<?xml version="1.0" encoding="UTF-8"?>
<svg version="1.1" xmlns="http://www.w3.org/2000/svg" width="887" height="281">
<path d="M0 0 C0.87333984 -0.020625 1.74667969 -0.04125 2.64648438 -0.0625 C8.57206758 -0.09790304 12.93152349 0.71812785 18.3125 3.25 C21.28874239 6.44946057 22.55261256 9.00811426 22.8125 13.3125 C22.25927676 17.669133 21.5207856 19.30907153 18.3125 22.25 C16.0625 23.0625 16.0625 23.0625 14.3125 23.25 C16.32809427 26.98258198 18.2808503 30.35290419 21.0625 33.5625 C23.3125 36.25 23.3125 36.25 23.3125 38.25 C28.59449593 39.44988045 28.59449593 39.44988045 33.3125 37.25 C34.37553709 35.25070384 34.37553709 35.25070384 35.1796875 32.8828125 C35.50565918 32.00230225 35.83163086 31.12179199 36.16748047 30.21459961 C36.50408691 29.27753174 36.84069336 28.34046387 37.1875 27.375 C37.89447949 25.46173877 38.60280674 23.54897501 39.3125 21.63671875 C39.65410156 20.71036621 39.99570312 19.78401367 40.34765625 18.82958984 C42.70895611 12.5164587 45.23571619 6.25111437 48.3125 0.25 C51.3125 1.25 51.3125 1.25 52.70703125 3.89868164 C53.17496094 5.05746826 53.64289063 6.21625488 54.125 7.41015625 C54.37999268 8.03345322 54.63498535 8.65675018 54.89770508 9.29893494 C55.71306169 11.2994069 56.51277702 13.30573424 57.3125 15.3125 C57.85057304 16.63777195 58.38962496 17.96264692 58.9296875 19.28710938 C61.0557966 24.52254199 63.15769074 29.75300708 65.01953125 35.08984375 C66.00983429 38.44741391 66.00983429 38.44741391 69 39.75 C69.763125 39.915 70.52625 40.08 71.3125 40.25 C71.3125 40.91 71.3125 41.57 71.3125 42.25 C65.3725 42.25 59.4325 42.25 53.3125 42.25 C53.3125 41.59 53.3125 40.93 53.3125 40.25 C54.6325 39.92 55.9525 39.59 57.3125 39.25 C56.3225 35.62 55.3325 31.99 54.3125 28.25 C49.6925 28.25 45.0725 28.25 40.3125 28.25 C39.6525 31.55 38.9925 34.85 38.3125 38.25 C39.3025 38.91 40.2925 39.57 41.3125 40.25 C41.3125 40.91 41.3125 41.57 41.3125 42.25 C20.97454413 43.71379235 20.97454413 43.71379235 15.1796875 40.52734375 C13.14165436 38.19759215 11.71207319 36.00660616 10.3125 33.25 C9.42655239 31.74414005 8.53144786 30.2436096 7.625 28.75 C7.29113281 28.1003125 6.95726562 27.450625 6.61328125 26.78125 C5.0906552 24.66798478 5.0906552 24.66798478 0.3125 24.25 C0.6425 29.2 0.9725 34.15 1.3125 39.25 C2.9625 39.58 4.6125 39.91 6.3125 40.25 C6.3125 40.91 6.3125 41.57 6.3125 42.25 C0.0425 42.25 -6.2275 42.25 -12.6875 42.25 C-12.6875 41.59 -12.6875 40.93 -12.6875 40.25 C-11.0375 39.59 -9.3875 38.93 -7.6875 38.25 C-7.6875 27.36 -7.6875 16.47 -7.6875 5.25 C-10.1625 4.26 -10.1625 4.26 -12.6875 3.25 C-12.6875 2.59 -12.6875 1.93 -12.6875 1.25 C-8.45741866 -0.16002711 -4.43156267 0.02559747 0 0 Z M0.3125 4.25 C0.3125 9.86 0.3125 15.47 0.3125 21.25 C7.6177713 22.86466422 7.6177713 22.86466422 11.25 20.9375 C13.40230875 19.41126242 13.40230875 19.41126242 14.3125 17.25 C14.36529673 14.90639946 14.36529673 14.90639946 14.125 12.3125 C14.06957031 11.43722656 14.01414062 10.56195313 13.95703125 9.66015625 C13.5031875 7.1233746 13.5031875 7.1233746 11.453125 5.48046875 C7.64343486 3.29059212 4.46062296 2.86729235 0.3125 4.25 Z M46.3125 11.25 C44.6625 15.87 43.0125 20.49 41.3125 25.25 C45.2725 25.25 49.2325 25.25 53.3125 25.25 C52.52697823 23.28919376 51.73387877 21.33142184 50.9375 19.375 C50.49664063 18.28445312 50.05578125 17.19390625 49.6015625 16.0703125 C48.48198662 13.18670638 48.48198662 13.18670638 46.3125 11.25 Z " fill="#AF997E" transform="translate(557.6875,94.75)"/>
<path d="M0 0 C2.06242617 -0.02717692 4.12495703 -0.0464758 6.1875 -0.0625 C7.33605469 -0.07410156 8.48460937 -0.08570312 9.66796875 -0.09765625 C12.59300586 -0.01192832 15.16316291 0.32150977 18 1 C16.625 2.5 16.625 2.5 15 4 C14.34 4 13.68 4 13 4 C13 9.28 13 14.56 13 20 C18.18566264 15.61900915 22.70856803 11.25700416 27 6 C26.34 5.566875 25.68 5.13375 25 4.6875 C24.34 4.130625 23.68 3.57375 23 3 C23 2.01 23 1.02 23 0 C24.7290774 -0.02725341 26.45828176 -0.04650987 28.1875 -0.0625 C29.15042969 -0.07410156 30.11335938 -0.08570312 31.10546875 -0.09765625 C33.85576513 -0.00486622 36.32479591 0.37888315 39 1 C39 1.66 39 2.32 39 3 C38.13117188 3.37769531 37.26234375 3.75539063 36.3671875 4.14453125 C32.58974061 6.22607101 30.0656527 8.59102467 27.125 11.6875 C26.62742187 12.19861328 26.12984375 12.70972656 25.6171875 13.23632812 C24.40441824 14.48408112 23.20119281 15.74109864 22 17 C23.52276362 20.39874559 25.52386001 23.05846254 27.875 25.9375 C28.89207031 27.18853516 28.89207031 27.18853516 29.9296875 28.46484375 C31.360451 30.21685415 32.8040358 31.95844406 34.2578125 33.69140625 C36 36 36 36 36 38 C39.96 38.33 43.92 38.66 48 39 C48.4021875 37.76636719 48.804375 36.53273437 49.21875 35.26171875 C51.17581664 29.39396437 53.32950768 23.60406119 55.5 17.8125 C56.08587891 16.23178711 56.08587891 16.23178711 56.68359375 14.61914062 C58.56162997 9.60155902 60.45700759 4.71920707 63 0 C63.99 0 64.98 0 66 0 C67.56562076 3.72786381 69.12682777 7.45756212 70.6875 11.1875 C71.14793701 12.28344482 71.60837402 13.37938965 72.08276367 14.50854492 C74.87113898 21.17742978 77.49980905 27.84227963 79.76953125 34.70703125 C81.32532901 37.60624802 83.16513619 38.43965348 86 40 C86 40.66 86 41.32 86 42 C80.39 42 74.78 42 69 42 C68.67 41.34 68.34 40.68 68 40 C69.32 39.67 70.64 39.34 72 39 C71.31282934 35.10603294 70.27666659 31.82999978 69 28 C64.38 28 59.76 28 55 28 C54.34 31.3 53.68 34.6 53 38 C54.32 38.66 55.64 39.32 57 40 C57 40.66 57 41.32 57 42 C33.79141872 44.06390772 33.79141872 44.06390772 27.80419922 40.8046875 C24.14414033 37.49184047 22.15489001 33.40796445 20 29 C17.24809913 25.00912026 17.24809913 25.00912026 13 23 C13 28.28 13 33.56 13 39 C14.98 39.33 16.96 39.66 19 40 C18.67 40.66 18.34 41.32 18 42 C12.06 42 6.12 42 0 42 C-0.33 41.34 -0.66 40.68 -1 40 C1.97 39.505 1.97 39.505 5 39 C5 27.45 5 15.9 5 4 C3.35 3.67 1.7 3.34 0 3 C0 2.01 0 1.02 0 0 Z M61 12 C60.32694982 13.60149886 59.66177773 15.20631029 59 16.8125 C58.62875 17.70582031 58.2575 18.59914063 57.875 19.51953125 C56.83366763 22.0331433 56.83366763 22.0331433 57 25 C60.63 25 64.26 25 68 25 C66.35 20.71 64.7 16.42 63 12 C62.34 12 61.68 12 61 12 Z " fill="#8C7A66" transform="translate(458,95)"/>
<path d="M0 0 C2.55688707 2.79312561 4.06638238 5.9774935 5.6640625 9.38671875 C6.14617187 10.40701172 6.62828125 11.42730469 7.125 12.47851562 C7.62 13.53748047 8.115 14.59644531 8.625 15.6875 C9.61534967 17.79643693 10.60744172 19.90455683 11.6015625 22.01171875 C12.25632568 23.41103638 12.25632568 23.41103638 12.92431641 24.83862305 C13.82049505 26.92649047 13.82049505 26.92649047 15 28 C16.81859145 24.25292432 18.62880659 20.50186217 20.4375 16.75 C20.95376953 15.68652344 21.47003906 14.62304688 22.00195312 13.52734375 C22.74155273 11.99013672 22.74155273 11.99013672 23.49609375 10.421875 C23.95169678 9.47924805 24.4072998 8.53662109 24.87670898 7.56542969 C26.16241846 4.82333951 26.16241846 4.82333951 27 1 C33.435 0.505 33.435 0.505 40 0 C40.495 1.485 40.495 1.485 41 3 C39.02 3.99 39.02 3.99 37 5 C36.67 16.22 36.34 27.44 36 39 C37.65 39.33 39.3 39.66 41 40 C41 40.66 41 41.32 41 42 C35.06 42 29.12 42 23 42 C23 41.34 23 40.68 23 40 C25.475 39.505 25.475 39.505 28 39 C27.67 29.76 27.34 20.52 27 11 C22.71 20.57 18.42 30.14 14 40 C13.01 40 12.02 40 11 40 C10.41714233 38.82642944 10.41714233 38.82642944 9.82250977 37.62915039 C8.3835154 34.73414617 6.94273793 31.84003859 5.50073242 28.9465332 C4.87631422 27.69265987 4.25261363 26.43842891 3.62963867 25.18383789 C2.73543835 23.38334385 1.83846419 21.58422825 0.94140625 19.78515625 C0.40201416 18.70113525 -0.13737793 17.61711426 -0.69311523 16.50024414 C-1.77670447 14.12359416 -1.77670447 14.12359416 -3 13 C-3.02917228 16.22914752 -3.04685663 19.45826083 -3.0625 22.6875 C-3.07087891 23.59951172 -3.07925781 24.51152344 -3.08789062 25.45117188 C-3.09111328 26.33740234 -3.09433594 27.22363281 -3.09765625 28.13671875 C-3.10289307 28.94842529 -3.10812988 29.76013184 -3.11352539 30.59643555 C-2.99096881 33.19120883 -2.71770725 35.50021412 -2 38 C0.47636012 39.37466625 0.47636012 39.37466625 3 40 C3 40.66 3 41.32 3 42 C-2.28 42 -7.56 42 -13 42 C-12.67 41.01 -12.34 40.02 -12 39 C-9.9375 38.3125 -9.9375 38.3125 -8 38 C-7.27990929 26.88844641 -6.68452505 16.09046577 -8 5 C-10.475 4.01 -10.475 4.01 -13 3 C-13 2.34 -13 1.68 -13 1 C-8.60508704 0.14245601 -4.47344425 -0.42202304 0 0 Z " fill="#907C62" transform="translate(206,95)"/>
<path d="M0 0 C1.06089844 -0.04898438 2.12179687 -0.09796875 3.21484375 -0.1484375 C4.62443359 0.11066406 4.62443359 0.11066406 6.0625 0.375 C8.23680742 3.53462736 9.85987531 6.91393255 11.47265625 10.38671875 C11.90513672 11.30904297 12.33761719 12.23136719 12.78320312 13.18164062 C13.68291608 15.11333874 14.58133936 17.04563804 15.47851562 18.97851562 C15.90970703 19.89697266 16.34089844 20.81542969 16.78515625 21.76171875 C17.17453369 22.59920654 17.56391113 23.43669434 17.96508789 24.29956055 C19.00617186 26.51505287 19.00617186 26.51505287 21.0625 28.375 C25.0225 19.135 28.9825 9.895 33.0625 0.375 C37.3525 0.375 41.6425 0.375 46.0625 0.375 C45.7325 1.695 45.4025 3.015 45.0625 4.375 C44.0725 4.705 43.0825 5.035 42.0625 5.375 C42.03306876 9.16664991 42.0155581 12.95826979 42 16.75 C41.98743164 18.34134766 41.98743164 18.34134766 41.97460938 19.96484375 C41.9545576 26.50172204 42.2566922 32.88674824 43.0625 39.375 C44.3825 39.705 45.7025 40.035 47.0625 40.375 C47.0625 41.035 47.0625 41.695 47.0625 42.375 C41.1225 42.375 35.1825 42.375 29.0625 42.375 C28.7325 41.715 28.4025 41.055 28.0625 40.375 C29.7125 39.715 31.3625 39.055 33.0625 38.375 C33.0625 29.135 33.0625 19.895 33.0625 10.375 C30.32014606 16.87836113 30.32014606 16.87836113 27.58911133 23.38647461 C25.08819751 29.26913084 22.29118268 34.85801938 19.0625 40.375 C16.0625 39.375 16.0625 39.375 14.52856445 36.78295898 C13.73518677 35.09408569 13.73518677 35.09408569 12.92578125 33.37109375 C12.64147751 32.77321548 12.35717377 32.17533722 12.06425476 31.55934143 C11.15814391 29.64813204 10.26648352 27.7305694 9.375 25.8125 C8.76330939 24.51583238 8.15069031 23.21960232 7.53710938 21.92382812 C6.032939 18.74654807 4.54848943 15.56108005 3.0625 12.375 C3.0625 21.285 3.0625 30.195 3.0625 39.375 C4.7125 39.705 6.3625 40.035 8.0625 40.375 C8.0625 41.035 8.0625 41.695 8.0625 42.375 C3.1125 42.375 -1.8375 42.375 -6.9375 42.375 C-6.9375 41.715 -6.9375 41.055 -6.9375 40.375 C-5.2875 39.715 -3.6375 39.055 -1.9375 38.375 C-1.9375 27.485 -1.9375 16.595 -1.9375 5.375 C-3.9175 4.715 -5.8975 4.055 -7.9375 3.375 C-7.9375 2.715 -7.9375 2.055 -7.9375 1.375 C-5.24210046 0.02730023 -3.00738169 0.09477809 0 0 Z " fill="#D3C1B0" transform="translate(636.9375,94.625)"/>
<path d="M0 0 C1.79021705 -0.00233999 1.79021705 -0.00233999 3.6166001 -0.00472724 C6.89366233 -0.00800085 10.17068684 -0.00685648 13.44774806 -0.00374103 C16.99587816 -0.00146319 20.54400345 -0.00497835 24.09213257 -0.00772095 C31.02914298 -0.01215238 37.96614253 -0.01121385 44.90315335 -0.00830831 C50.54491892 -0.00604375 56.18668145 -0.00574631 61.82844734 -0.00683212 C63.03598665 -0.00706197 63.03598665 -0.00706197 64.26792069 -0.00729647 C65.90367178 -0.00761621 67.53942286 -0.00794043 69.17517395 -0.00826906 C84.49056513 -0.0111162 99.80595032 -0.00784893 115.12134052 -0.00246869 C128.24142423 0.0019978 141.36149909 0.00122321 154.48158264 -0.00338745 C169.74313854 -0.00874821 185.00468919 -0.01084069 200.2662459 -0.00777519 C201.89605971 -0.00745666 203.52587352 -0.00714229 205.15568733 -0.00683212 C205.95743842 -0.00667785 206.75918951 -0.00652357 207.58523608 -0.00636462 C213.21484473 -0.00550391 218.84445002 -0.00695275 224.47405815 -0.00931168 C231.34244124 -0.0121266 238.21081292 -0.01133589 245.07919472 -0.00603093 C248.57853045 -0.00341655 252.07784721 -0.00235015 255.57718277 -0.00568008 C259.38179616 -0.0084277 263.18635674 -0.0049665 266.9909668 0 C268.62612359 -0.00334608 268.62612359 -0.00334608 270.29431385 -0.00675976 C277.75444591 0.01202499 285.12913052 0.464131 292.55897522 1.12698364 C292.55897522 1.78698364 292.55897522 2.44698364 292.55897522 3.12698364 C283.84779991 3.91560096 275.23703425 4.26141319 266.49261475 4.20927429 C265.24419086 4.20604516 263.99576697 4.20281604 262.70951205 4.19948906 C259.28417056 4.18959336 255.85890796 4.17507449 252.43359625 4.15850627 C248.72487295 4.14172786 245.01613119 4.13104896 241.30738831 4.11959839 C234.89494959 4.09897989 228.48253454 4.07456754 222.07011986 4.04751778 C212.79904729 4.00841479 203.52796087 3.97512762 194.25686107 3.94322252 C179.21212283 3.89129203 164.16740586 3.83471164 149.12269592 3.775177 C134.51528245 3.71738285 119.90786331 3.66179731 105.3004303 3.60916138 C103.94796392 3.6042868 103.94796392 3.6042868 102.56817498 3.59931374 C98.04451977 3.58302308 93.5208644 3.56677562 88.99720895 3.55054963 C51.51777142 3.41605808 14.03836558 3.2740075 -23.44102478 3.12698364 C-23.77102478 2.46698364 -24.10102478 1.80698364 -24.44102478 1.12698364 C-16.2736344 0.32695665 -8.20403459 -0.01675394 0 0 Z " fill="#897D77" transform="translate(493.44102478027344,220.87301635742188)"/>
<path d="M0 0 C2.74135927 -0.00080767 5.48271687 -0.00310287 8.22407532 -0.00531006 C14.86006898 -0.0097285 21.49605126 -0.0088093 28.13204534 -0.00589742 C33.52491955 -0.00362976 38.91779058 -0.00333674 44.31066513 -0.00442123 C45.46630355 -0.00465108 45.46630355 -0.00465108 46.64528819 -0.00488558 C48.21075226 -0.00520533 49.77621633 -0.00552954 51.34168039 -0.00585817 C65.97539715 -0.00870095 80.60910762 -0.00544385 95.24282335 -0.0000578 C107.79258198 0.00441808 120.34233137 0.00362553 132.89208984 -0.00097656 C147.4925549 -0.00632821 162.09301447 -0.00843573 176.69348037 -0.0053643 C178.24980473 -0.00504577 179.8061291 -0.00473139 181.36245346 -0.00442123 C182.12807615 -0.00426696 182.89369884 -0.00411268 183.68252221 -0.00395373 C189.0725101 -0.00309102 194.4624945 -0.00454598 199.85248184 -0.00690079 C206.41501071 -0.00970513 212.97752761 -0.00894671 219.54005511 -0.00362004 C222.88666132 -0.00099301 226.23323108 -0.00050005 229.57983971 -0.0032692 C233.20714663 -0.00599441 236.83439713 -0.00258277 240.46170044 0.00241089 C241.51888405 0.00018017 242.57606766 -0.00205055 243.66528714 -0.00434887 C248.44637333 0.00845251 252.96747781 0.12371489 257.66748047 1.12939453 C257.66748047 1.78939453 257.66748047 2.44939453 257.66748047 3.12939453 C220.33281698 3.30270105 182.99812158 3.46535336 145.66335031 3.61370746 C141.25611669 3.63122926 136.84888344 3.64883931 132.44165039 3.66650391 C131.56424582 3.67001914 130.68684125 3.67353438 129.78284866 3.67715614 C115.57412447 3.73429249 101.36544116 3.79857889 87.15676009 3.86550553 C72.57846285 3.93401409 58.00014816 3.9948439 43.42178875 4.04853857 C34.42542852 4.08191598 25.4291355 4.12128986 16.43283612 4.16832291 C10.2645996 4.19999709 4.09636193 4.22421572 -2.07192851 4.24256708 C-5.63123866 4.25337674 -9.19045577 4.26747771 -12.74971008 4.29043007 C-16.60958669 4.31523508 -20.46941008 4.32434261 -24.32936096 4.3319397 C-26.01468433 4.34651464 -26.01468433 4.34651464 -27.73405463 4.36138403 C-33.33788458 4.35869185 -38.04387769 4.02832813 -43.33251953 2.12939453 C-43.33251953 1.79939453 -43.33251953 1.46939453 -43.33251953 1.12939453 C-28.89607826 -0.08848212 -14.47780532 -0.0120796 0 0 Z " fill="#716661" transform="translate(154.33251953125,220.87060546875)"/>
<path d="M0 0 C2.41674224 -0.02705308 4.8331794 -0.04686438 7.25 -0.0625 C7.93191406 -0.07087891 8.61382812 -0.07925781 9.31640625 -0.08789062 C12.69342554 -0.10428392 15.77291639 -0.05628768 19 1 C18.67 1.99 18.34 2.98 18 4 C16.68 4 15.36 4 14 4 C14.33 8.95 14.66 13.9 15 19 C21.27 19 27.54 19 34 19 C34 14.05 34 9.1 34 4 C31.525 3.505 31.525 3.505 29 3 C30 1 30 1 33 0 C38.04936467 -0.29098034 43.08614397 -0.31036161 48 1 C48 1.66 48 2.32 48 3 C46.35 3.66 44.7 4.32 43 5 C43 15.89 43 26.78 43 38 C44.65 38.33 46.3 38.66 48 39 C48 39.99 48 40.98 48 42 C41.73 42 35.46 42 29 42 C29.33 41.01 29.66 40.02 30 39 C31.98 38.505 31.98 38.505 34 38 C34.33 32.72 34.66 27.44 35 22 C24.605 22.495 24.605 22.495 14 23 C14 28.28 14 33.56 14 39 C15.65 39 17.3 39 19 39 C19.33 39.99 19.66 40.98 20 42 C13.73 42 7.46 42 1 42 C1.33 41.01 1.66 40.02 2 39 C3.485 38.505 3.485 38.505 5 38 C5 27.11 5 16.22 5 5 C2.525 4.01 2.525 4.01 0 3 C0 2.01 0 1.02 0 0 Z " fill="#A18B6F" transform="translate(315,95)"/>
<path d="M0 0 C0.66163651 0.0028299 1.32327301 0.00565979 2.00495911 0.00857544 C4.11416862 0.01975332 6.2229505 0.04485269 8.33203125 0.0703125 C9.76366573 0.08034543 11.19530689 0.08947074 12.62695312 0.09765625 C16.13295102 0.11968455 19.63869938 0.15419765 23.14453125 0.1953125 C23.14453125 3.8253125 23.14453125 7.4553125 23.14453125 11.1953125 C20.14453125 10.1953125 20.14453125 10.1953125 18.875 7.68359375 C17.33133578 4.8664197 17.33133578 4.8664197 14.0078125 4.48828125 C12.83605469 4.45347656 11.66429687 4.41867188 10.45703125 4.3828125 C8.37390625 4.3209375 6.29078125 4.2590625 4.14453125 4.1953125 C4.14453125 9.1453125 4.14453125 14.0953125 4.14453125 19.1953125 C5.58828125 19.0921875 7.03203125 18.9890625 8.51953125 18.8828125 C9.33164062 18.82480469 10.14375 18.76679687 10.98046875 18.70703125 C13.52374463 18.36540722 13.52374463 18.36540722 15.14453125 15.1953125 C16.13453125 15.5253125 17.12453125 15.8553125 18.14453125 16.1953125 C18.14453125 19.8253125 18.14453125 23.4553125 18.14453125 27.1953125 C17.15453125 27.5253125 16.16453125 27.8553125 15.14453125 28.1953125 C14.90992188 27.56109375 14.6753125 26.926875 14.43359375 26.2734375 C13.32162217 24.01280511 13.32162217 24.01280511 10.98046875 23.3671875 C10.16835938 23.22796875 9.35625 23.08875 8.51953125 22.9453125 C7.07578125 22.6978125 5.63203125 22.4503125 4.14453125 22.1953125 C4.47453125 27.4753125 4.80453125 32.7553125 5.14453125 38.1953125 C7.04203125 38.2365625 8.93953125 38.2778125 10.89453125 38.3203125 C11.961875 38.34351563 13.02921875 38.36671875 14.12890625 38.390625 C17.12239245 38.19674636 18.69813912 37.88554706 21.14453125 36.1953125 C22.91180983 33.1618658 22.91180983 33.1618658 24.14453125 30.1953125 C24.80453125 30.1953125 25.46453125 30.1953125 26.14453125 30.1953125 C26.22837203 34.47119248 25.99181328 37.95890237 25.14453125 42.1953125 C13.59453125 42.1953125 2.04453125 42.1953125 -9.85546875 42.1953125 C-9.85546875 41.5353125 -9.85546875 40.8753125 -9.85546875 40.1953125 C-7.87546875 39.5353125 -5.89546875 38.8753125 -3.85546875 38.1953125 C-3.85546875 27.3053125 -3.85546875 16.4153125 -3.85546875 5.1953125 C-5.83546875 4.2053125 -7.81546875 3.2153125 -9.85546875 2.1953125 C-6.1761743 -0.25755046 -4.38168968 -0.03697628 0 0 Z " fill="#8E7C64" transform="translate(374.85546875,94.8046875)"/>
<path d="M0 0 C0 -0.66 0 -1.32 0 -2 C0.99 -1.67 1.98 -1.34 3 -1 C3 2.96 3 6.92 3 11 C2.01 11 1.02 11 0 11 C-0.350625 10.071875 -0.70125 9.14375 -1.0625 8.1875 C-3.54020405 4.11127721 -5.49016498 3.37588187 -10 2 C-13.83312049 1.45241136 -15.64490497 1.8398591 -19.1875 3.4375 C-22.98573026 6.8981098 -24.21165757 9.96379304 -25 15 C-25.15735956 22.57424011 -23.99763015 28.54818347 -18.9375 34.375 C-14.61561873 36.76582794 -10.82878035 36.88796721 -6 36 C-3.69378379 34.87795204 -1.73926642 33.63285159 0.30859375 32.09375 C2 31 2 31 5 31 C3.614012 34.35066172 2.2243823 35.83371851 -0.875 37.6875 C-1.55304688 38.10386719 -2.23109375 38.52023438 -2.9296875 38.94921875 C-7.70122672 41.37099997 -12.74711686 41.7118393 -18 41 C-25.0932881 38.65311091 -29.29863135 35.4475454 -33 29 C-34.91147804 23.26556587 -35.20171718 16.25810392 -33.09375 10.54296875 C-25.59712064 -2.02349649 -13.42608153 -4.88221146 0 0 Z " fill="#A89175" transform="translate(308,97)"/>
<path d="M0 0 C5.94 0 11.88 0 18 0 C18 0.99 18 1.98 18 3 C16.35 3.66 14.7 4.32 13 5 C13 16.22 13 27.44 13 39 C22.99839902 39.00963604 22.99839902 39.00963604 26.5 36.25 C27.59021483 34.61467775 28.62513693 32.94207596 29.625 31.25 C30.07875 30.5075 30.5325 29.765 31 29 C31.66 29 32.32 29 33 29 C32.85966889 30.97956441 32.7125877 32.95865141 32.5625 34.9375 C32.48128906 36.03964844 32.40007812 37.14179688 32.31640625 38.27734375 C32 41 32 41 31 42 C28.6243148 42.0883967 26.27791326 42.11530305 23.90234375 42.09765625 C22.83905602 42.09553383 22.83905602 42.09553383 21.75428772 42.09336853 C19.48198288 42.08775443 17.20977525 42.07519963 14.9375 42.0625 C13.40039204 42.05748681 11.86328255 42.05292359 10.32617188 42.04882812 C6.55074358 42.03778042 2.77538829 42.02050641 -1 42 C-1 41.34 -1 40.68 -1 40 C1.475 39.505 1.475 39.505 4 39 C4 27.45 4 15.9 4 4 C2.35 3.67 0.7 3.34 -1 3 C-0.67 2.01 -0.34 1.02 0 0 Z " fill="#BCA484" transform="translate(406,95)"/>
<path d="M0 0 C4.29 0 8.58 0 13 0 C12.67 1.32 12.34 2.64 12 4 C11.01 4.33 10.02 4.66 9 5 C8.97056876 8.79164991 8.9530581 12.58326979 8.9375 16.375 C8.92912109 17.43589844 8.92074219 18.49679688 8.91210938 19.58984375 C8.8920576 26.12672204 9.1941922 32.51174824 10 39 C11.32 39.33 12.64 39.66 14 40 C14 40.66 14 41.32 14 42 C8.06 42 2.12 42 -4 42 C-4.33 41.34 -4.66 40.68 -5 40 C-3.35 39.34 -1.7 38.68 0 38 C0 28.76 0 19.52 0 10 C-2.83488995 16.77262755 -2.83488995 16.77262755 -5.65356445 23.55200195 C-6.011521 24.39722412 -6.36947754 25.24244629 -6.73828125 26.11328125 C-7.09962158 26.97735596 -7.46096191 27.84143066 -7.83325195 28.73168945 C-8.9809851 30.96303255 -10.12780747 32.35388355 -12 34 C-12 33.01 -12 32.02 -12 31 C-12.66 31 -13.32 31 -14 31 C-13.67 29.68 -13.34 28.36 -13 27 C-12.67 27.33 -12.34 27.66 -12 28 C-8.04 18.76 -4.08 9.52 0 0 Z " fill="#7D7164" transform="translate(670,95)"/>
<path d="M0 0 C1.05960937 0.00676758 1.05960937 0.00676758 2.140625 0.01367188 C3.88545275 0.02546125 5.630237 0.04339676 7.375 0.0625 C7.375 1.3825 7.375 2.7025 7.375 4.0625 C6.385 4.0625 5.395 4.0625 4.375 4.0625 C4.375 15.2825 4.375 26.5025 4.375 38.0625 C5.695 38.7225 7.015 39.3825 8.375 40.0625 C8.375 40.7225 8.375 41.3825 8.375 42.0625 C2.435 42.0625 -3.505 42.0625 -9.625 42.0625 C-9.625 41.4025 -9.625 40.7425 -9.625 40.0625 C-7.15 39.5675 -7.15 39.5675 -4.625 39.0625 C-4.625 27.8425 -4.625 16.6225 -4.625 5.0625 C-7.1 4.0725 -7.1 4.0725 -9.625 3.0625 C-9.625 2.4025 -9.625 1.7425 -9.625 1.0625 C-6.55966836 -0.47016582 -3.35745728 -0.04026471 0 0 Z " fill="#988268" transform="translate(260.625,94.9375)"/>
<path d="M0 0 C0.99 0 1.98 0 3 0 C4.56562076 3.72786381 6.12682777 7.45756212 7.6875 11.1875 C8.14793701 12.28344482 8.60837402 13.37938965 9.08276367 14.50854492 C11.87113898 21.17742978 14.49980905 27.84227963 16.76953125 34.70703125 C18.32532901 37.60624802 20.16513619 38.43965348 23 40 C23 40.66 23 41.32 23 42 C17.39 42 11.78 42 6 42 C5.67 41.34 5.34 40.68 5 40 C6.98 39.505 6.98 39.505 9 39 C8.855625 38.319375 8.71125 37.63875 8.5625 36.9375 C7.93054091 33.63726918 7.45686059 30.32855574 7 27 C2.38 27 -2.24 27 -7 27 C-7 26.67 -7 26.34 -7 26 C-2.71 26 1.58 26 6 26 C6 25.34 6 24.68 6 24 C5.34 24 4.68 24 4 24 C3.32243118 22.44219668 2.65840543 20.87849904 2 19.3125 C1.62875 18.44238281 1.2575 17.57226562 0.875 16.67578125 C-0.01870488 13.9427998 -0.16449676 11.85299066 0 9 C-0.66 9 -1.32 9 -2 9 C-1.34 6.03 -0.68 3.06 0 0 Z " fill="#AD977D" transform="translate(521,95)"/>
<path d="M0 0 C16.0734543 -0.02343502 32.146903 -0.04103101 48.22037029 -0.05181217 C55.68476116 -0.0569527 63.14914137 -0.06395232 70.61352539 -0.07543945 C77.12492706 -0.08545518 83.63632101 -0.09186971 90.14773017 -0.09408849 C93.59050282 -0.09538398 97.03325338 -0.09839531 100.47601891 -0.10573006 C104.33387918 -0.11304061 108.19169441 -0.11398674 112.04956055 -0.11352539 C113.17166428 -0.11712067 114.29376801 -0.12071594 115.44987488 -0.12442017 C123.00720889 -0.11470774 130.4736722 0.323269 138 1 C138 1.66 138 2.32 138 3 C128.49626225 3.91776086 119.08798733 4.15701952 109.54785156 4.13037109 C107.21152549 4.12491007 104.87538352 4.13040437 102.5390625 4.13671875 C101.05208291 4.13605957 99.56510343 4.13478176 98.078125 4.1328125 C97.03147675 4.13584885 97.03147675 4.13584885 95.96368408 4.13894653 C91.1150159 4.1150159 91.1150159 4.1150159 90 3 C87.2017097 2.84479093 84.42564076 2.75337273 81.62475586 2.70288086 C80.74678848 2.68322769 79.86882111 2.66357452 78.96424866 2.64332581 C76.04785965 2.57920105 73.13137677 2.5220109 70.21484375 2.46484375 C68.19844162 2.42185746 66.18204862 2.37844104 64.16566467 2.33460999 C58.84744493 2.22016832 53.52912069 2.11159587 48.21075439 2.00421143 C42.78821477 1.89369592 37.36579327 1.77767681 31.94335938 1.66210938 C21.29568176 1.43599448 10.64788576 1.21607472 0 1 C0 0.67 0 0.34 0 0 Z " fill="#695E5A" transform="translate(648,221)"/>
<path d="M0 0 C0.66 0 1.32 0 2 0 C3.65497356 3.30994713 3.10084335 6.99123 3.0625 10.625 C3.05798828 11.42679688 3.05347656 12.22859375 3.04882812 13.0546875 C3.03703168 15.03649006 3.01909605 17.01825433 3 19 C3.66 19 4.32 19 5 19 C5 24.61 5 30.22 5 36 C6.98 36.33 8.96 36.66 11 37 C10.67 37.66 10.34 38.32 10 39 C4.06 39 -1.88 39 -8 39 C-8.33 38.34 -8.66 37.68 -9 37 C-5.535 36.505 -5.535 36.505 -2 36 C-1.96241577 34.52406372 -1.96241577 34.52406372 -1.92407227 33.01831055 C-1.8298918 29.36729943 -1.7296971 25.71647384 -1.62768555 22.06567383 C-1.58437695 20.48563985 -1.54269894 18.90556031 -1.50268555 17.32543945 C-1.44488417 15.05405952 -1.3812184 12.78290811 -1.31640625 10.51171875 C-1.29133751 9.45219246 -1.29133751 9.45219246 -1.26576233 8.3712616 C-1.1740253 5.3335176 -0.96792314 2.90376942 0 0 Z " fill="#AC9579" transform="translate(466,98)"/>
<path d="M0 0 C5.94 0 11.88 0 18 0 C18 0.99 18 1.98 18 3 C16.35 3.66 14.7 4.32 13 5 C13 16.22 13 27.44 13 39 C22.99839902 39.00963604 22.99839902 39.00963604 26.5 36.25 C27.59021483 34.61467775 28.62513693 32.94207596 29.625 31.25 C30.07875 30.5075 30.5325 29.765 31 29 C31.66 29 32.32 29 33 29 C32.85966889 30.97956441 32.7125877 32.95865141 32.5625 34.9375 C32.48128906 36.03964844 32.40007812 37.14179688 32.31640625 38.27734375 C32 41 32 41 31 42 C28.6243148 42.0883967 26.27791326 42.11530305 23.90234375 42.09765625 C22.83905602 42.09553383 22.83905602 42.09553383 21.75428772 42.09336853 C19.48198288 42.08775443 17.20977525 42.07519963 14.9375 42.0625 C13.40039204 42.05748681 11.86328255 42.05292359 10.32617188 42.04882812 C6.55074358 42.03778042 2.77538829 42.02050641 -1 42 C-1 41.34 -1 40.68 -1 40 C1.475 39.505 1.475 39.505 4 39 C4 39.33 4 39.66 4 40 C6.31 40.33 8.62 40.66 11 41 C11 28.13 11 15.26 11 2 C8.36 2 5.72 2 3 2 C3 2.66 3 3.32 3 4 C1.68 3.67 0.36 3.34 -1 3 C-0.67 2.01 -0.34 1.02 0 0 Z " fill="#6E5F52" transform="translate(406,95)"/>
<path d="M0 0 C0.99 0 1.98 0 3 0 C3.33 10.89 3.66 21.78 4 33 C5.98 33.66 7.96 34.32 10 35 C10 35.66 10 36.32 10 37 C4.06 37 -1.88 37 -8 37 C-8.33 36.34 -8.66 35.68 -9 35 C-6.03 34.505 -6.03 34.505 -3 34 C-2.970271 32.61494263 -2.970271 32.61494263 -2.93994141 31.2019043 C-2.86182261 27.77438826 -2.77513003 24.34731202 -2.68261719 20.92016602 C-2.64434653 19.43717788 -2.60949022 17.95409752 -2.578125 16.47094727 C-2.532432 14.33836928 -2.47444662 12.20642509 -2.4140625 10.07421875 C-2.36693115 8.14968872 -2.36693115 8.14968872 -2.31884766 6.1862793 C-2 3 -2 3 0 0 Z " fill="#DBC09C" transform="translate(674,100)"/>
<path d="M0 0 C0 -0.66 0 -1.32 0 -2 C0.99 -1.67 1.98 -1.34 3 -1 C3 2.96 3 6.92 3 11 C2.01 11 1.02 11 0 11 C-0.350625 10.071875 -0.70125 9.14375 -1.0625 8.1875 C-3.54020405 4.11127721 -5.49016498 3.37588187 -10 2 C-13.83312049 1.45241136 -15.64490497 1.8398591 -19.1875 3.4375 C-24.21870604 8.02148773 -25.15602224 14.4169735 -26 21 C-26.33 21 -26.66 21 -27 21 C-27 17.37 -27 13.74 -27 10 C-28.98 10.99 -30.96 11.98 -33 13 C-31.77377763 6.71561033 -27.95773809 3.62943845 -23 0 C-16.37254135 -4.15411841 -7.01517171 -2.55097153 0 0 Z " fill="#8E7C6A" transform="translate(308,97)"/>
<path d="M0 0 C2.475 0.495 2.475 0.495 5 1 C4.67 2.98 4.34 4.96 4 7 C-2.625 7.125 -2.625 7.125 -6 6 C-7.1845131 9.55353929 -7.26641894 12.27013478 -7 16 C-5.50014391 17.66710346 -5.50014391 17.66710346 -4 19 C-4.3125 21.1875 -4.3125 21.1875 -5 23 C-8.1033501 23.9753386 -9.53731874 24.20312836 -12.5625 22.875 C-15.31952857 20.75420879 -17.19391167 18.98699224 -19 16 C-19.08577001 11.96880973 -18.08612742 10.13172429 -15.875 6.75 C-12.55386117 3.57325851 -10.51131085 2.71231224 -6 2 C-2.5625 2.375 -2.5625 2.375 0 3 C0 2.01 0 1.02 0 0 Z M-12.5625 7 C-14.77544541 10.07888058 -15.24968488 13.23959443 -15 17 C-13.54002013 19.62716577 -13.54002013 19.62716577 -11 21 C-8.33165034 21.33498301 -8.33165034 21.33498301 -6 21 C-7.32 20.34 -8.64 19.68 -10 19 C-10.02696365 17.20841511 -10.04637917 15.41671527 -10.0625 13.625 C-10.07410156 12.62726563 -10.08570313 11.62953125 -10.09765625 10.6015625 C-10 8 -10 8 -9 6 C-11.02842666 5.82031543 -11.02842666 5.82031543 -12.5625 7 Z " fill="#776B61" transform="translate(445,207)"/>
<path d="M0 0 C0.625 1.8125 0.625 1.8125 1 4 C0.34 4.99 -0.32 5.98 -1 7 C-0.34 7 0.32 7 1 7 C1 7.99 1 8.98 1 10 C0.34 10 -0.32 10 -1 10 C-1.103125 10.66 -1.20625 11.32 -1.3125 12 C-2.19213564 15.83841009 -3.56969896 19.33096691 -5 23 C-1.04 22.67 2.92 22.34 7 22 C7.495 24.97 7.495 24.97 8 28 C7.505 27.01 7.505 27.01 7 26 C2.38 26 -2.24 26 -7 26 C-7.66 29.3 -8.32 32.6 -9 36 C-7.68 36.66 -6.36 37.32 -5 38 C-5 38.66 -5 39.32 -5 40 C-13.91 40 -22.82 40 -32 40 C-32.33 39.34 -32.66 38.68 -33 38 C-30.36 38 -27.72 38 -25 38 C-24.67 37.34 -24.34 36.68 -24 36 C-20.7 36.33 -17.4 36.66 -14 37 C-13.59910156 35.76894531 -13.19820313 34.53789062 -12.78515625 33.26953125 C-10.81284603 27.35491688 -8.63075906 21.52307181 -6.4375 15.6875 C-5.83905273 14.08165039 -5.83905273 14.08165039 -5.22851562 12.44335938 C-4.84244141 11.41404297 -4.45636719 10.38472656 -4.05859375 9.32421875 C-3.71111084 8.39697998 -3.36362793 7.46974121 -3.00561523 6.5144043 C-2.10836168 4.27094367 -1.11845376 2.14007306 0 0 Z " fill="#73665A" transform="translate(520,97)"/>
<path d="M0 0 C7.22531133 1.29767232 11.94078024 7.63123908 16 13.3125 C19 17.68526786 19 17.68526786 19 20 C20.32 20.33 21.64 20.66 23 21 C17.8947918 21.45402049 14.21158331 21.74558973 9.75 19 C5.57065133 14.84439763 2.25704446 9.88556669 -1 5 C-0.625 2.3125 -0.625 2.3125 0 0 Z " fill="#BCA889" transform="translate(476,115)"/>
<path d="M0 0 C0.66 0 1.32 0 2 0 C2.33 1.32 2.66 2.64 3 4 C3.66 4 4.32 4 5 4 C4.99476318 4.73114014 4.98952637 5.46228027 4.98413086 6.21557617 C4.96329839 9.53954198 4.95031986 12.86349403 4.9375 16.1875 C4.92912109 17.33798828 4.92074219 18.48847656 4.91210938 19.67382812 C4.90888672 20.78564453 4.90566406 21.89746094 4.90234375 23.04296875 C4.89710693 24.06414795 4.89187012 25.08532715 4.88647461 26.13745117 C4.99634653 28.9078776 5.21265432 31.33995305 6 34 C8.47636012 35.37466625 8.47636012 35.37466625 11 36 C11 36.66 11 37.32 11 38 C5.72 38 0.44 38 -5 38 C-4.67 37.01 -4.34 36.02 -4 35 C-1.9375 34.3125 -1.9375 34.3125 0 34 C0.7492131 22.5428027 1.23162186 11.44460927 0 0 Z " fill="#493D30" transform="translate(198,99)"/>
<path d="M0 0 C0.99 0 1.98 0 3 0 C4.1787322 2.39054107 5.34302997 4.78645215 6.5 7.1875 C6.83386719 7.86103516 7.16773438 8.53457031 7.51171875 9.22851562 C9.29700132 12.96303529 10.46127195 15.75794549 10 20 C10.66 20 11.32 20 12 20 C11.67 22.64 11.34 25.28 11 28 C9.68 28 8.36 28 7 28 C4.53079472 23.75090925 4.21271315 19.38315872 3.5625 14.58203125 C3.376875 13.72996094 3.19125 12.87789062 3 12 C2.34 11.67 1.68 11.34 1 11 C0.66666667 9.33333333 0.33333333 7.66666667 0 6 C-0.66 5.67 -1.32 5.34 -2 5 C-2 2 -2 2 0 0 Z " fill="#B89F85" transform="translate(646,106)"/>
<path d="M0 0 C1.25458008 -0.00451172 2.50916016 -0.00902344 3.80175781 -0.01367188 C4.97834961 -0.01173828 6.15494141 -0.00980469 7.3671875 -0.0078125 C8.95829346 -0.00612061 8.95829346 -0.00612061 10.58154297 -0.00439453 C13.125 0.125 13.125 0.125 15.125 1.125 C16.81963258 1.24402812 18.51871122 1.30214687 20.21728516 1.33032227 C21.27823395 1.35026749 22.33918274 1.37021271 23.43228149 1.39076233 C24.58126923 1.40747482 25.73025696 1.42418732 26.9140625 1.44140625 C28.67440323 1.4725779 28.67440323 1.4725779 30.4703064 1.50437927 C34.23014304 1.56991983 37.99005122 1.62878076 41.75 1.6875 C44.29427832 1.73068092 46.83854933 1.77429507 49.3828125 1.81835938 C55.63013207 1.92560582 61.87752326 2.0273638 68.125 2.125 C68.125 2.455 68.125 2.785 68.125 3.125 C56.25073633 3.3022129 44.3763734 3.46815116 32.50175381 3.61977577 C26.9876463 3.69053692 21.47364756 3.76515188 15.9597168 3.84863281 C10.63653229 3.92908307 5.31330115 3.99933344 -0.01011467 4.06257248 C-2.03908163 4.08845661 -4.06800549 4.11798945 -6.0968647 4.15126419 C-8.94288418 4.19731208 -11.7887818 4.23027715 -14.63500977 4.26025391 C-15.47011078 4.2767952 -16.30521179 4.29333649 -17.1656189 4.31037903 C-22.13377134 4.34628923 -26.1638054 3.72341511 -30.875 2.125 C-30.875 1.795 -30.875 1.465 -30.875 1.125 C-20.58133218 0.22989845 -10.33049213 0.01579184 0 0 Z " fill="#4B4240" transform="translate(141.875,220.875)"/>
<path d="M0 0 C7.59 0 15.18 0 23 0 C23 0.66 23 1.32 23 2 C17.72 1.67 12.44 1.34 7 1 C7.0928125 3.35125 7.0928125 3.35125 7.1875 5.75 C7.3581389 10.07285201 6.60546401 11.6354638 4 15 C4 16.32 4 17.64 4 19 C4.66 19.33 5.32 19.66 6 20 C6 24.95 6 29.9 6 35 C4.02 35.495 4.02 35.495 2 36 C1.97494385 34.9805127 1.9498877 33.96102539 1.92407227 32.91064453 C1.83002996 29.13479646 1.72980163 25.35913373 1.62768555 21.58349609 C1.58432462 19.94812347 1.54265039 18.31270523 1.50268555 16.67724609 C1.44501088 14.32896159 1.38130871 11.98090696 1.31640625 9.6328125 C1.29969376 8.89942657 1.28298126 8.16604065 1.26576233 7.41043091 C1.21362038 3.57797692 1.21362038 3.57797692 0 0 Z " fill="#CCB18F" transform="translate(371,97)"/>
<path d="M0 0 C3.3 0 6.6 0 10 0 C10 11.88 10 23.76 10 36 C9.505 34.515 9.505 34.515 9 33 C8.01 33 7.02 33 6 33 C5.67 22.77 5.34 12.54 5 2 C3.35 1.67 1.7 1.34 0 1 C0 0.67 0 0.34 0 0 Z " fill="#CAAB86" transform="translate(317,97)"/>
<path d="M0 0 C1.65 0 3.3 0 5 0 C5 0.66 5 1.32 5 2 C5.99 2.33 6.98 2.66 8 3 C10.04296875 5.43359375 10.04296875 5.43359375 12.1875 8.4375 C12.90292969 9.42621094 13.61835937 10.41492188 14.35546875 11.43359375 C16 14 16 14 16 16 C16.66 16.33 17.32 16.66 18 17 C12.8881813 17.30069522 10.16021401 16.985489 6 14 C3.9453125 11.66015625 3.9453125 11.66015625 2.125 9.0625 C1.50882813 8.20785156 0.89265625 7.35320312 0.2578125 6.47265625 C-1 4 -1 4 -0.6953125 1.68359375 C-0.46585938 1.12800781 -0.23640625 0.57242188 0 0 Z " fill="#C6AF95" transform="translate(566,119)"/>
<path d="M0 0 C0.66 0.33 1.32 0.66 2 1 C2 10.57 2 20.14 2 30 C4.31 30.33 6.62 30.66 9 31 C9 31.66 9 32.32 9 33 C3.06 33 -2.88 33 -9 33 C-9 32.34 -9 31.68 -9 31 C-5.535 30.505 -5.535 30.505 -2 30 C-1.96241577 28.69011108 -1.96241577 28.69011108 -1.92407227 27.35375977 C-1.82912291 24.12397448 -1.72987971 20.89435846 -1.62768555 17.66479492 C-1.58428566 16.26510801 -1.54261436 14.86536641 -1.50268555 13.46557617 C-1.44510555 11.45738505 -1.38086 9.44938851 -1.31640625 7.44140625 C-1.26141968 5.62684937 -1.26141968 5.62684937 -1.20532227 3.77563477 C-1 1 -1 1 0 0 Z " fill="#C3AA80" transform="translate(260,104)"/>
<path d="M0 0 C0.99 0.66 1.98 1.32 3 2 C3.34057617 5.07275391 3.34057617 5.07275391 3.29296875 8.9765625 C3.28872391 9.66181 3.28447906 10.3470575 3.28010559 11.05307007 C3.26329753 13.24411129 3.22564405 15.43423632 3.1875 17.625 C3.17245579 19.10936173 3.15876693 20.59373785 3.14648438 22.078125 C3.1133879 25.71904833 3.06159207 29.35943478 3 33 C2.67 33 2.34 33 2 33 C1.67 24.09 1.34 15.18 1 6 C-3.29 15.57 -7.58 25.14 -12 35 C-12.99 35 -13.98 35 -15 35 C-15.33 33.35 -15.66 31.7 -16 30 C-15.01 30 -14.02 30 -13 30 C-12.67902344 28.63681641 -12.67902344 28.63681641 -12.3515625 27.24609375 C-10.72765519 21.56241818 -7.96377302 16.35502962 -5.375 11.0625 C-4.6015625 9.46438477 -4.6015625 9.46438477 -3.8125 7.83398438 C-2.54662942 5.22019605 -1.2756851 2.6090085 0 0 Z " fill="#64594A" transform="translate(232,100)"/>
<path d="M0 0 C0.87333984 -0.020625 1.74667969 -0.04125 2.64648438 -0.0625 C8.56316341 -0.09784984 12.93813411 0.7241089 18.3125 3.25 C19.8125 5.4375 19.8125 5.4375 20.3125 7.25 C18.9925 6.59 17.6725 5.93 16.3125 5.25 C15.14943557 8.79950034 15.38884951 11.80823948 15.75 15.5 C15.85183594 16.57765625 15.95367188 17.6553125 16.05859375 18.765625 C16.18427734 19.99539062 16.18427734 19.99539062 16.3125 21.25 C14.9925 20.59 13.6725 19.93 12.3125 19.25 C12.6425 18.59 12.9725 17.93 13.3125 17.25 C13.2254796 15.53766312 13.07152838 13.82824594 12.875 12.125 C12.77316406 11.21492188 12.67132812 10.30484375 12.56640625 9.3671875 C12.44072266 8.31917969 12.44072266 8.31917969 12.3125 7.25 C6.57959085 4.54155119 6.57959085 4.54155119 0.3125 4.25 C0.3125 3.92 0.3125 3.59 0.3125 3.25 C-1.5746875 3.2190625 -1.5746875 3.2190625 -3.5 3.1875 C-4.20769531 3.17589844 -4.91539062 3.16429688 -5.64453125 3.15234375 C-7.89055461 3.16736783 -7.89055461 3.16736783 -10.6875 4.25 C-11.3475 3.92 -12.0075 3.59 -12.6875 3.25 C-12.6875 2.59 -12.6875 1.93 -12.6875 1.25 C-8.45741866 -0.16002711 -4.43156267 0.02559747 0 0 Z " fill="#9A8772" transform="translate(557.6875,94.75)"/>
<path d="M0 0 C1.82989274 2.74483912 2.73655011 4.92324118 3.8125 8 C5.45004152 12.25142854 6.71579234 14.09590771 11 16 C11 16.66 11 17.32 11 18 C5.39 18 -0.22 18 -6 18 C-6.33 17.34 -6.66 16.68 -7 16 C-5.68 15.67 -4.36 15.34 -3 15 C-3.226875 13.906875 -3.45375 12.81375 -3.6875 11.6875 C-3.790625 10.470625 -3.89375 9.25375 -4 8 C-2.625 6.375 -2.625 6.375 -1 5 C-0.27802838 2.39388923 -0.27802838 2.39388923 0 0 Z " fill="#CAB498" transform="translate(533,119)"/>
<path d="M0 0 C0.33 0 0.66 0 1 0 C2.33589978 11.30743746 2.09861278 22.63373899 2 34 C1.01 34.495 1.01 34.495 0 35 C-0.99 34.67 -1.98 34.34 -3 34 C-2.67 23.44 -2.34 12.88 -2 2 C-1.34 2 -0.68 2 0 2 C0 1.34 0 0.68 0 0 Z " fill="#BEA37A" transform="translate(238,100)"/>
<path d="M0 0 C4.29 0 8.58 0 13 0 C12.67 1.32 12.34 2.64 12 4 C11.01 4.33 10.02 4.66 9 5 C9 16.22 9 27.44 9 39 C8.34 38.67 7.68 38.34 7 38 C7 27.11 7 16.22 7 5 C3.9254644 5.7763932 3.9254644 5.7763932 2 8 C2 7.34 2 6.68 2 6 C1.34 6 0.68 6 0 6 C0 4.02 0 2.04 0 0 Z " fill="#967A67" transform="translate(670,95)"/>
<path d="M0 0 C0.66 0.33 1.32 0.66 2 1 C1.98839844 2.19238281 1.97679687 3.38476562 1.96484375 4.61328125 C1.95546408 6.17968594 1.94636407 7.74609231 1.9375 9.3125 C1.92912109 10.09818359 1.92074219 10.88386719 1.91210938 11.69335938 C1.90888672 12.45068359 1.90566406 13.20800781 1.90234375 13.98828125 C1.89710693 14.68477783 1.89187012 15.38127441 1.88647461 16.09887695 C1.93104009 18.22497968 1.93104009 18.22497968 3 21 C1.02 21 -0.96 21 -3 21 C-3.144375 20.030625 -3.28875 19.06125 -3.4375 18.0625 C-3.67562341 15.13513227 -3.67562341 15.13513227 -5 14 C-5.4309604 10.62003913 -5.50401073 7.37258244 -5 4 C-2.5 1.375 -2.5 1.375 0 0 Z " fill="#C7A87F" transform="translate(280,106)"/>
<path d="M0 0 C2.41674224 -0.02705308 4.8331794 -0.04686438 7.25 -0.0625 C7.93191406 -0.07087891 8.61382812 -0.07925781 9.31640625 -0.08789062 C12.69342554 -0.10428392 15.77291639 -0.05628768 19 1 C18.67 1.99 18.34 2.98 18 4 C16.68 4 15.36 4 14 4 C14.1136515 6.62594784 14.24039054 9.25011547 14.375 11.875 C14.4059375 12.62136719 14.436875 13.36773437 14.46875 14.13671875 C14.55643831 18.53473188 14.55643831 18.53473188 17 22 C16.01 22.33 15.02 22.66 14 23 C14 28.28 14 33.56 14 39 C13.34 38.67 12.68 38.34 12 38 C12 26.12 12 14.24 12 2 C6.3993299 2.76114525 6.3993299 2.76114525 1 4 C0.67 2.68 0.34 1.36 0 0 Z " fill="#6B5946" transform="translate(315,95)"/>
<path d="M0 0 C0.66 0.33 1.32 0.66 2 1 C2 2.32 2 3.64 2 5 C4.31 5.66 6.62 6.32 9 7 C9.33 8.65 9.66 10.3 10 12 C5.7051592 14.88809394 2.19809459 17.21240991 -3 18 C-3.33 18.66 -3.66 19.32 -4 20 C-5.32 19.67 -6.64 19.34 -8 19 C-8 18.01 -8 17.02 -8 16 C-7.38640625 15.74734375 -6.7728125 15.4946875 -6.140625 15.234375 C-2.5601925 13.16974604 -1.34878242 9.79345057 0 6 C0.33802605 2.66423653 0.33802605 2.66423653 0 0 Z M2 8 C1.34 9.98 0.68 11.96 0 14 C2.44480079 13.81171228 2.44480079 13.81171228 5 13 C6.36020151 11.03241727 6.36020151 11.03241727 7 9 C5.35 8.67 3.7 8.34 2 8 Z " fill="#92867C" transform="translate(444,216)"/>
<path d="M0 0 C3.3 0 6.6 0 10 0 C10 0.66 10 1.32 10 2 C8.35 2.33 6.7 2.66 5 3 C5 13.56 5 24.12 5 35 C4.67 35 4.34 35 4 35 C4 28.73 4 22.46 4 16 C2.68 16.33 1.36 16.66 0 17 C0 11.39 0 5.78 0 0 Z " fill="#CCB493" transform="translate(351,97)"/>
<path d="M0 0 C3 1 3 1 4.1328125 2.6015625 C6.35924345 7.14207916 7.57945765 10.95349174 8 16 C6.02 16.66 4.04 17.32 2 18 C-0.96534983 12.90330498 -2.71363933 9.06593428 -2 3 C-1.34 2.01 -0.68 1.02 0 0 Z " fill="#A98F6D" transform="translate(213,113)"/>
<path d="M0 0 C4.70491803 2.40983607 4.70491803 2.40983607 6 5 C6.37067927 9.52228704 6.54119588 11.96090392 4.4375 16 C1.19404435 18.66129695 -0.91765377 18.39253329 -5 18 C-4.67 17.34 -4.34 16.68 -4 16 C-2.68 16.33 -1.36 16.66 0 17 C-0.144375 16.09636719 -0.28875 15.19273438 -0.4375 14.26171875 C-0.623125 13.08222656 -0.80875 11.90273437 -1 10.6875 C-1.2784375 8.92986328 -1.2784375 8.92986328 -1.5625 7.13671875 C-2 4 -2 4 -2 1 C-1.34 0.67 -0.68 0.34 0 0 Z " fill="#D8BD9A" transform="translate(574,99)"/>
<path d="M0 0 C0.66163651 0.0028299 1.32327301 0.00565979 2.00495911 0.00857544 C4.11416862 0.01975332 6.2229505 0.04485269 8.33203125 0.0703125 C9.76366573 0.08034543 11.19530689 0.08947074 12.62695312 0.09765625 C16.13295102 0.11968455 19.63869938 0.15419765 23.14453125 0.1953125 C23.14453125 3.8253125 23.14453125 7.4553125 23.14453125 11.1953125 C20.14453125 10.1953125 20.14453125 10.1953125 18.45703125 7.1328125 C18.02390625 6.1634375 17.59078125 5.1940625 17.14453125 4.1953125 C17.80453125 4.1953125 18.46453125 4.1953125 19.14453125 4.1953125 C19.14453125 3.5353125 19.14453125 2.8753125 19.14453125 2.1953125 C8.25453125 2.6903125 8.25453125 2.6903125 -2.85546875 3.1953125 C-2.52546875 3.5253125 -2.19546875 3.8553125 -1.85546875 4.1953125 C-1.78302822 6.21495449 -1.77169687 8.23698374 -1.79296875 10.2578125 C-1.80199219 11.36253906 -1.81101562 12.46726562 -1.8203125 13.60546875 C-1.83191406 14.46011719 -1.84351563 15.31476563 -1.85546875 16.1953125 C-2.18546875 16.1953125 -2.51546875 16.1953125 -2.85546875 16.1953125 C-2.85804688 15.43605469 -2.860625 14.67679688 -2.86328125 13.89453125 C-2.98038977 10.88484232 -3.16718046 8.13027765 -3.85546875 5.1953125 C-6.72676443 2.8797801 -6.72676443 2.8797801 -9.85546875 2.1953125 C-6.1761743 -0.25755046 -4.38168968 -0.03697628 0 0 Z " fill="#6D5F4F" transform="translate(374.85546875,94.8046875)"/>
<path d="M0 0 C1.37478516 0.01740234 1.37478516 0.01740234 2.77734375 0.03515625 C3.69644531 0.04417969 4.61554688 0.05320313 5.5625 0.0625 C6.27277344 0.07410156 6.98304688 0.08570313 7.71484375 0.09765625 C7.71484375 1.08765625 7.71484375 2.07765625 7.71484375 3.09765625 C5.40484375 3.09765625 3.09484375 3.09765625 0.71484375 3.09765625 C0.38484375 4.08765625 0.05484375 5.07765625 -0.28515625 6.09765625 C2.02484375 6.09765625 4.33484375 6.09765625 6.71484375 6.09765625 C6.71484375 6.75765625 6.71484375 7.41765625 6.71484375 8.09765625 C4.40484375 8.09765625 2.09484375 8.09765625 -0.28515625 8.09765625 C-0.28515625 9.08765625 -0.28515625 10.07765625 -0.28515625 11.09765625 C2.35484375 11.09765625 4.99484375 11.09765625 7.71484375 11.09765625 C7.71484375 12.08765625 7.71484375 13.07765625 7.71484375 14.09765625 C6.06909809 14.12453776 4.42322962 14.14399748 2.77734375 14.16015625 C1.86082031 14.17175781 0.94429687 14.18335938 0 14.1953125 C-2.28515625 14.09765625 -2.28515625 14.09765625 -3.28515625 13.09765625 C-3.38389441 11.09966053 -3.41487424 9.09808467 -3.41015625 7.09765625 C-3.41273438 6.00453125 -3.4153125 4.91140625 -3.41796875 3.78515625 C-3.23774943 0.13836536 -3.23774943 0.13836536 0 0 Z " fill="#7C797A" transform="translate(231.28515625,169.90234375)"/>
<path d="M0 0 C1.23556641 0.01740234 1.23556641 0.01740234 2.49609375 0.03515625 C3.32238281 0.04417969 4.14867187 0.05320313 5 0.0625 C5.63808594 0.07410156 6.27617187 0.08570313 6.93359375 0.09765625 C6.93359375 1.08765625 6.93359375 2.07765625 6.93359375 3.09765625 C4.62359375 3.09765625 2.31359375 3.09765625 -0.06640625 3.09765625 C-0.06640625 4.08765625 -0.06640625 5.07765625 -0.06640625 6.09765625 C2.24359375 6.09765625 4.55359375 6.09765625 6.93359375 6.09765625 C6.93359375 6.75765625 6.93359375 7.41765625 6.93359375 8.09765625 C4.62359375 8.09765625 2.31359375 8.09765625 -0.06640625 8.09765625 C-0.06640625 9.08765625 -0.06640625 10.07765625 -0.06640625 11.09765625 C2.24359375 11.09765625 4.55359375 11.09765625 6.93359375 11.09765625 C7.26359375 12.08765625 7.59359375 13.07765625 7.93359375 14.09765625 C4.30359375 14.09765625 0.67359375 14.09765625 -3.06640625 14.09765625 C-3.09326563 11.95188988 -3.11273713 9.8060298 -3.12890625 7.66015625 C-3.14050781 6.46519531 -3.15210938 5.27023438 -3.1640625 4.0390625 C-3.03472503 0.14341801 -3.03472503 0.14341801 0 0 Z " fill="#858083" transform="translate(315.06640625,169.90234375)"/>
<path d="M0 0 C2.16577207 3.2486581 2.24955466 4.18601347 2.1875 7.9375 C2.18105469 8.79214844 2.17460938 9.64679688 2.16796875 10.52734375 C2.01275689 12.81220668 1.63624477 14.80622805 1 17 C6.19840878 17.20807829 6.19840878 17.20807829 11.25 16.3125 C13 16 13 16 15.25 17.4375 C15.8275 17.953125 16.405 18.46875 17 19 C16.34 19 15.68 19 15 19 C14.67 19.99 14.34 20.98 14 22 C14 21.34 14 20.68 14 20 C10.06924356 20.57452746 10.06924356 20.57452746 7 23 C6.67 22.34 6.34 21.68 6 21 C4.35 20.67 2.7 20.34 1 20 C1.33 24.95 1.66 29.9 2 35 C1.01 34.67 0.02 34.34 -1 34 C-1.13947228 22.62526092 -0.73570866 11.35093354 0 0 Z " fill="#8B7866" transform="translate(557,99)"/>
<path d="M0 0 C7.38461538 -0.49230769 7.38461538 -0.49230769 10.5 2 C10.995 2.66 11.49 3.32 12 4 C11.649375 4.9075 11.29875 5.815 10.9375 6.75 C10.03531221 9.87758436 9.86618493 11.05208081 11 14 C8 13 8 13 6 10 C5.01 9.67 4.02 9.34 3 9 C3 10.65 3 12.3 3 14 C2.01 14 1.02 14 0 14 C0 9.38 0 4.76 0 0 Z M3 3 C3 4.32 3 5.64 3 7 C4.65 7 6.3 7 8 7 C8.33 5.68 8.66 4.36 9 3 C7.02 3 5.04 3 3 3 Z " fill="#989295" transform="translate(511,170)"/>
<path d="M0 0 C2.27477677 3.53854164 1.99082706 5.70947373 1.125 9.75 C0.92132812 10.73484375 0.71765625 11.7196875 0.5078125 12.734375 C0.34023438 13.48203125 0.17265625 14.2296875 0 15 C0.99 15.66 1.98 16.32 3 17 C3 17.66 3 18.32 3 19 C-4.59 19 -12.18 19 -20 19 C-20.33 18.34 -20.66 17.68 -21 17 C-18.69 17 -16.38 17 -14 17 C-13.67 16.34 -13.34 15.68 -13 15 C-12.236875 15.20625 -11.47375 15.4125 -10.6875 15.625 C-7.78114056 16.33391203 -7.78114056 16.33391203 -5 14 C-3.98603527 11.61789694 -3.11542608 9.32501613 -2.3125 6.875 C-2.08755859 6.21628906 -1.86261719 5.55757813 -1.63085938 4.87890625 C-1.078032 3.25571099 -0.53778691 1.62824021 0 0 Z " fill="#998A7B" transform="translate(596,118)"/>
<path d="M0 0 C3.3 0 6.6 0 10 0 C10 0.99 10 1.98 10 3 C7.69 3 5.38 3 3 3 C3 3.99 3 4.98 3 6 C4.98 6 6.96 6 9 6 C9 6.66 9 7.32 9 8 C7.02 8 5.04 8 3 8 C3 8.99 3 9.98 3 11 C5.31 11 7.62 11 10 11 C10 11.99 10 12.98 10 14 C6.7 14 3.4 14 0 14 C0 9.38 0 4.76 0 0 Z " fill="#858083" transform="translate(199,170)"/>
<path d="M0 0 C2.35535891 2.64977877 3.02190076 4.080168 2.9375 7.625 C1.74788158 10.63869999 0.93851805 11.6080704 -2 13 C-5.77579201 12.93375803 -8.07482922 12.78061285 -11 10.3125 C-12.38906225 7.10029355 -12.05521374 5.3063364 -11 2 C-7.75493913 -1.86911104 -4.60615542 -1.33997249 0 0 Z M-8 2 C-8.38063221 4.3260857 -8.71269945 6.66055264 -9 9 C-7.81575674 10.41577477 -7.81575674 10.41577477 -4.4375 10.0625 C-2.7359375 10.0315625 -2.7359375 10.0315625 -1 10 C-0.32198966 7.09926819 -0.32198966 7.09926819 0 4 C-1.89755144 1.65026182 -1.89755144 1.65026182 -5.125 1.875 C-6.07375 1.91625 -7.0225 1.9575 -8 2 Z " fill="#9A9495" transform="translate(574,171)"/>
<path d="M0 0 C3 0 3 0 4.60546875 1.53125 C5.12753906 2.1809375 5.64960937 2.830625 6.1875 3.5 C6.71730469 4.1496875 7.24710938 4.799375 7.79296875 5.46875 C8.19128906 5.9740625 8.58960938 6.479375 9 7 C9 4.69 9 2.38 9 0 C9.99 0 10.98 0 12 0 C12 4.29 12 8.58 12 13 C8.43688534 11.21844267 6.64354525 9.83236991 4 7 C4 8.98 4 10.96 4 13 C3.01 13.33 2.02 13.66 1 14 C0 13 0 13 -0.09765625 10.05859375 C-0.08605469 8.86363281 -0.07445312 7.66867188 -0.0625 6.4375 C-0.05347656 5.23996094 -0.04445313 4.04242188 -0.03515625 2.80859375 C-0.02355469 1.88175781 -0.01195312 0.95492187 0 0 Z " fill="#898386" transform="translate(580,170)"/>
<path d="M0 0 C0.99 0 1.98 0 3 0 C3 1.32 3 2.64 3 4 C4.94074861 3.72382467 4.94074861 3.72382467 7 3 C7.66 2.01 8.32 1.02 9 0 C9.33 1.32 9.66 2.64 10 4 C8.68 4.99 7.36 5.98 6 7 C6.99 8.485 6.99 8.485 8 10 C8 11.32 8 12.64 8 14 C8.66 14.33 9.32 14.66 10 15 C12.25321274 18.81312925 13.39213671 21.55578397 13 26 C9.74826898 22.18408851 7.88357484 17.76575534 5.8125 13.25 C4.554375 10.5275 3.29625 7.805 2 5 C1.67 13.25 1.34 21.5 1 30 C0.67 30 0.34 30 0 30 C0 20.1 0 10.2 0 0 Z " fill="#978571" transform="translate(638,102)"/>
<path d="M0 0 C0.99 0.33 1.98 0.66 3 1 C3 2.65 3 4.3 3 6 C4.98 6 6.96 6 9 6 C9 4.02 9 2.04 9 0 C9.99 0 10.98 0 12 0 C12 4.29 12 8.58 12 13 C11.01 13.33 10.02 13.66 9 14 C9 12.02 9 10.04 9 8 C7.02 8.33 5.04 8.66 3 9 C3 10.65 3 12.3 3 14 C2.01 14 1.02 14 0 14 C0 9.38 0 4.76 0 0 Z " fill="#888386" transform="translate(351,170)"/>
<path d="M0 0 C2.0625 0.4375 2.0625 0.4375 4 1 C4.103125 1.763125 4.20625 2.52625 4.3125 3.3125 C4.76434916 6.02987123 4.76434916 6.02987123 6.5625 7.5625 C7.036875 8.036875 7.51125 8.51125 8 9 C8 10.32 8 11.64 8 13 C6.56589632 13.24954005 5.12739928 13.47392642 3.6875 13.6875 C2.88699219 13.81511719 2.08648437 13.94273437 1.26171875 14.07421875 C-1 14 -1 14 -2.79296875 12.51953125 C-3.19128906 12.01808594 -3.58960938 11.51664063 -4 11 C-3.690625 10.278125 -3.38125 9.55625 -3.0625 8.8125 C-2.07446889 6.19712353 -1.53166153 3.73425932 -1 1 C-0.67 0.67 -0.34 0.34 0 0 Z M0 3 C0 3.66 0 4.32 0 5 C0.99 5 1.98 5 3 5 C3 4.34 3 3.68 3 3 C2.01 3 1.02 3 0 3 Z M0 8 C-0.33 8.99 -0.66 9.98 -1 11 C0.32 11 1.64 11 3 11 C3 10.34 3 9.68 3 9 C2.01 8.67 1.02 8.34 0 8 Z " fill="#8E898D" transform="translate(407,170)"/>
<path d="M0 0 C3.3 0 6.6 0 10 0 C10 0.99 10 1.98 10 3 C7.36 3 4.72 3 2 3 C2 3.99 2 4.98 2 6 C4.31 6 6.62 6 9 6 C9 6.66 9 7.32 9 8 C6.69 8 4.38 8 2 8 C2 8.99 2 9.98 2 11 C4.64 11 7.28 11 10 11 C10 11.99 10 12.98 10 14 C6.7 14 3.4 14 0 14 C0 9.38 0 4.76 0 0 Z " fill="#928D8F" transform="translate(368,170)"/>
<path d="M0 0 C0.33 0 0.66 0 1 0 C1 1.65 1 3.3 1 5 C1.99 5.33 2.98 5.66 4 6 C4.07347656 7.71509766 4.07347656 7.71509766 4.1484375 9.46484375 C4.22345189 10.95575473 4.29900028 12.44663892 4.375 13.9375 C4.4059375 14.69224609 4.436875 15.44699219 4.46875 16.22460938 C4.5726315 18.15507395 4.77895614 20.07942081 5 22 C5.66 22.33 6.32 22.66 7 23 C3.37 23 -0.26 23 -4 23 C-3.01 21.68 -2.02 20.36 -1 19 C-0.5046465 16.79063937 -0.5046465 16.79063937 -0.48828125 14.453125 C-0.45283203 13.60878906 -0.41738281 12.76445313 -0.38085938 11.89453125 C-0.35830078 11.02183594 -0.33574219 10.14914063 -0.3125 9.25 C-0.27833984 8.36183594 -0.24417969 7.47367187 -0.20898438 6.55859375 C-0.12671286 4.37252197 -0.05749828 2.18684049 0 0 Z " fill="#D5BA93" transform="translate(465,113)"/>
<path d="M0 0 C0.33 0.66 0.66 1.32 1 2 C1.66 2 2.32 2 3 2 C3.16435547 2.99580078 3.16435547 2.99580078 3.33203125 4.01171875 C4.23413597 9.03563527 5.26443049 12.6479576 8 17 C8.1875 19.8125 8.1875 19.8125 8 22 C6.68 22 5.36 22 4 22 C4 21.01 4 20.02 4 19 C3.34 19 2.68 19 2 19 C1.855625 17.865625 1.71125 16.73125 1.5625 15.5625 C1.38828522 12.19222799 1.38828522 12.19222799 0 11 C-0.07226502 9.14712498 -0.0838122 7.29166122 -0.0625 5.4375 C-0.05347656 4.42558594 -0.04445313 3.41367188 -0.03515625 2.37109375 C-0.02355469 1.58863281 -0.01195312 0.80617188 0 0 Z " fill="#D8C3A3" transform="translate(608,100)"/>
<path d="M0 0 C3 1 3 1 4.1875 2.5625 C5.37040794 6.11122383 5.12443279 9.26701621 5 13 C4.01 13.33 3.02 13.66 2 14 C2 14.66 2 15.32 2 16 C1.34 16 0.68 16 0 16 C0 14.35 0 12.7 0 11 C-4.62 11 -9.24 11 -14 11 C-14 10.67 -14 10.34 -14 10 C-9.71 10 -5.42 10 -1 10 C-1.33 8.02 -1.66 6.04 -2 4 C-1.0625 1.625 -1.0625 1.625 0 0 Z " fill="#C6B195" transform="translate(528,111)"/>
<path d="M0 0 C-0.39832031 0.42667969 -0.79664063 0.85335937 -1.20703125 1.29296875 C-6.28853131 7.2893861 -7.67200013 13.35817618 -9 21 C-9.33 21 -9.66 21 -10 21 C-10 17.37 -10 13.74 -10 10 C-11.98 10.99 -13.96 11.98 -16 13 C-14.93024662 7.51751391 -12.26062639 4.79440695 -8.109375 1.34765625 C-5.30754901 -0.44239924 -3.24443325 -0.56777582 0 0 Z " fill="#887A66" transform="translate(291,97)"/>
<path d="M0 0 C1.06089844 -0.04898438 2.12179687 -0.09796875 3.21484375 -0.1484375 C6.0625 0.375 6.0625 0.375 8.00390625 2.7734375 C8.35324219 3.63195312 8.70257812 4.49046875 9.0625 5.375 C8.7325 6.035 8.4025 6.695 8.0625 7.375 C7.4025 6.055 6.7425 4.735 6.0625 3.375 C4.0825 3.375 2.1025 3.375 0.0625 3.375 C0.0625 15.255 0.0625 27.135 0.0625 39.375 C-0.5975 39.045 -1.2575 38.715 -1.9375 38.375 C-1.9375 27.485 -1.9375 16.595 -1.9375 5.375 C-3.9175 4.715 -5.8975 4.055 -7.9375 3.375 C-7.9375 2.715 -7.9375 2.055 -7.9375 1.375 C-5.24210046 0.02730023 -3.00738169 0.09477809 0 0 Z " fill="#76685A" transform="translate(636.9375,94.625)"/>
<path d="M0 0 C0.99 0 1.98 0 3 0 C3.33 3.3 3.66 6.6 4 10 C5.32 10 6.64 10 8 10 C9.04005702 6.61981469 9.08004482 3.5219721 9 0 C9.99 0 10.98 0 12 0 C12.10815225 1.76949095 12.18566083 3.54087487 12.25 5.3125 C12.29640625 6.29863281 12.3428125 7.28476563 12.390625 8.30078125 C12 11 12 11 10.1796875 12.86328125 C7.09268779 14.4731682 5.27235742 13.99593487 2 13 C-0.20914 9.68629 -0.22481553 8.6553979 -0.125 4.8125 C-0.10695313 3.91144531 -0.08890625 3.01039063 -0.0703125 2.08203125 C-0.04710937 1.39496094 -0.02390625 0.70789063 0 0 Z " fill="#8A8588" transform="translate(442,170)"/>
<path d="M0 0 C3.90432869 1.95216435 6.03839944 3.87386607 9 7 C9 4.69 9 2.38 9 0 C9.99 0 10.98 0 12 0 C12 4.29 12 8.58 12 13 C8.43688534 11.21844267 6.64354525 9.83236991 4 7 C3.34 9.31 2.68 11.62 2 14 C1.34 13.67 0.68 13.34 0 13 C0 8.71 0 4.42 0 0 Z " fill="#AEAAAB" transform="translate(479,170)"/>
<path d="M0 0 C4.1424367 1.38081223 5.32203099 3.59825558 8 7 C8.33 4.69 8.66 2.38 9 0 C9.99 0.33 10.98 0.66 12 1 C12 4.96 12 8.92 12 13 C9 13 9 13 7.39453125 11.46875 C6.87246094 10.8190625 6.35039063 10.169375 5.8125 9.5 C5.28269531 8.8503125 4.75289062 8.200625 4.20703125 7.53125 C3.80871094 7.0259375 3.41039062 6.520625 3 6 C2.67 8.64 2.34 11.28 2 14 C1.34 13.67 0.68 13.34 0 13 C0 8.71 0 4.42 0 0 Z " fill="#A29C9E" transform="translate(666,170)"/>
<path d="M0 0 C0.99 0.33 1.98 0.66 3 1 C3 3.97 3 6.94 3 10 C3.99 10.33 4.98 10.66 6 11 C6.66 10.67 7.32 10.34 8 10 C8.46751788 7.64400765 8.46751788 7.64400765 8.625 4.9375 C8.69976563 4.01839844 8.77453125 3.09929687 8.8515625 2.15234375 C8.90054688 1.44207031 8.94953125 0.73179687 9 0 C9.99 0.33 10.98 0.66 12 1 C12.31608392 10.48251748 12.31608392 10.48251748 10 13 C6.5625 13.9375 6.5625 13.9375 3 14 C1.2890625 12.859375 1.2890625 12.859375 0 11 C-0.29296875 8.30078125 -0.29296875 8.30078125 -0.1875 5.3125 C-0.16042969 4.31863281 -0.13335938 3.32476562 -0.10546875 2.30078125 C-0.07066406 1.54152344 -0.03585937 0.78226563 0 0 Z " fill="#8F8B8D" transform="translate(611,170)"/>
<path d="M0 0 C3.26954202 0.56371414 4.82575883 1.49962266 7 4 C7.6496875 3.01 7.6496875 3.01 8.3125 2 C8.869375 1.34 9.42625 0.68 10 0 C10.99 0 11.98 0 13 0 C11.79618552 2.49361571 10.54571278 4.68143083 9 7 C10.98 9.97 10.98 9.97 13 13 C12.01 13.33 11.02 13.66 10 14 C8.68 12.68 7.36 11.36 6 10 C5.3503125 10.99 5.3503125 10.99 4.6875 12 C4.130625 12.66 3.57375 13.32 3 14 C2.01 14 1.02 14 0 14 C1.33333333 11.33333333 2.66666667 8.66666667 4 6 C3.34 5.38125 2.68 4.7625 2 4.125 C0 2 0 2 0 0 Z " fill="#8D898B" transform="translate(212,170)"/>
<path d="M0 0 C0 0.99 0 1.98 0 3 C-2.64 2.67 -5.28 2.34 -8 2 C-8.04254356 3.99954746 -8.04080783 6.00041636 -8 8 C-7.01732141 9.20561184 -7.01732141 9.20561184 -5.15234375 9.09765625 C-3.1015625 9.06510417 -1.05078125 9.03255208 1 9 C0.67 9.99 0.34 10.98 0 12 C-3.1875 12.8125 -3.1875 12.8125 -7 13 C-10 10.9375 -10 10.9375 -12 8 C-12.07089184 4.45540788 -11.65406211 2.77984328 -9.375 0.0625 C-6.00996099 -1.44291219 -3.5343001 -0.74764041 0 0 Z " fill="#8B8489" transform="translate(438,171)"/>
<path d="M0 0 C0.66 0 1.32 0 2 0 C2 3.63 2 7.26 2 11 C3.98 11 5.96 11 8 11 C8.33 7.37 8.66 3.74 9 0 C9.66 0 10.32 0 11 0 C11.08114106 1.77007714 11.13925505 3.54122098 11.1875 5.3125 C11.22230469 6.29863281 11.25710938 7.28476563 11.29296875 8.30078125 C11 11 11 11 9.7109375 12.8671875 C8 14 8 14 4.4375 13.8125 C1 13 1 13 -1 11 C-1.23046875 8.65234375 -1.23046875 8.65234375 -1.1875 5.9375 C-1.18105469 5.03902344 -1.17460937 4.14054688 -1.16796875 3.21484375 C-1 1 -1 1 0 0 Z " fill="#8E8A8B" transform="translate(259,170)"/>
<path d="M0 0 C0.66 0 1.32 0 2 0 C2.86604534 1.76505435 3.71748642 3.53728074 4.5625 5.3125 C5.27599609 6.79169922 5.27599609 6.79169922 6.00390625 8.30078125 C7 11 7 11 6 14 C5.34 13.34 4.68 12.68 4 12 C2.01178687 11.60235737 0.01055661 11.26224651 -2 11 C-2.99 12.485 -2.99 12.485 -4 14 C-4.66 14 -5.32 14 -6 14 C-5.31113213 10.61108678 -4.01283514 7.81988387 -2.4375 4.75 C-1.75494141 3.41195312 -1.75494141 3.41195312 -1.05859375 2.046875 C-0.70925781 1.37140625 -0.35992188 0.6959375 0 0 Z M0 4 C-0.33 5.32 -0.66 6.64 -1 8 C0.32 7.67 1.64 7.34 3 7 C2.01 6.01 1.02 5.02 0 4 Z " fill="#9D979A" transform="translate(655,170)"/>
<path d="M0 0 C3.5625 0.25 3.5625 0.25 7 1 C7.33 1.66 7.66 2.32 8 3 C5.69 3 3.38 3 1 3 C0.67 3.66 0.34 4.32 0 5 C2.31 5.66 4.62 6.32 7 7 C7.6875 8.8125 7.6875 8.8125 8 11 C7 12.8125 7 12.8125 5 14 C1.3125 13.6875 1.3125 13.6875 -2 13 C-2 12.01 -2 11.02 -2 10 C0.31 10.33 2.62 10.66 5 11 C4.67 10.34 4.34 9.68 4 9 C3.175 8.731875 2.35 8.46375 1.5 8.1875 C-1 7 -1 7 -1.9375 4.5 C-1.958125 3.675 -1.97875 2.85 -2 2 C-1.34 1.34 -0.68 0.68 0 0 Z " fill="#9E999C" transform="translate(599,170)"/>
<path d="M0 0 C0.33 0.99 0.66 1.98 1 3 C-1.97 2.67 -4.94 2.34 -8 2 C-8.04254356 3.99954746 -8.04080783 6.00041636 -8 8 C-7.01732141 9.20561184 -7.01732141 9.20561184 -5.15234375 9.09765625 C-3.1015625 9.06510417 -1.05078125 9.03255208 1 9 C0.67 9.99 0.34 10.98 0 12 C-3.25 12.75 -3.25 12.75 -7 13 C-9.48751074 11.23255816 -10.61885164 9.78770662 -11.9375 7.0625 C-12.02959505 4.02336335 -10.75755857 2.40850619 -9 0 C-5.93109813 -1.53445094 -3.29905734 -0.54984289 0 0 Z " fill="#858083" transform="translate(346,171)"/>
<path d="M0 0 C1.875 1.5 1.875 1.5 3 3 C-0.1964086 4.06546953 -2.65747276 4.07427838 -6 4 C-6 5.98 -6 7.96 -6 10 C-3.36 10 -0.72 10 2 10 C2 10.99 2 11.98 2 13 C-1.1875 13.8125 -1.1875 13.8125 -5 14 C-8.14799562 11.72272657 -9.72101232 10.27094386 -10.5625 6.4375 C-9.22881116 0.65818171 -5.58154116 -0.83129336 0 0 Z " fill="#8B8788" transform="translate(252,170)"/>
<path d="M0 0 C0.99 0.66 1.98 1.32 3 2 C3 2.66 3 3.32 3 4 C1.88625 3.814375 0.7725 3.62875 -0.375 3.4375 C-3.82568861 2.68319343 -3.82568861 2.68319343 -6 4 C-6 5.98 -6 7.96 -6 10 C-2.846632 10.70074844 -0.27275026 11 3 11 C3 11.66 3 12.32 3 13 C0.13647558 13.63094606 -2.11092034 14.11726892 -5 14 C-8.0625 11.9375 -8.0625 11.9375 -10 9 C-10 5.7377941 -9.55258481 3.87250234 -7.8125 1.125 C-5.12842587 -0.54097705 -3.09207756 -0.32209141 0 0 Z " fill="#A49DA1" transform="translate(557,170)"/>
<path d="M0 0 C3 1 3 1 4.38671875 3.43359375 C4.81597656 4.42488281 5.24523437 5.41617188 5.6875 6.4375 C6.34298828 7.92056641 6.34298828 7.92056641 7.01171875 9.43359375 C8 12 8 12 8 14 C7.01 13.67 6.02 13.34 5 13 C5 12.34 5 11.68 5 11 C2.36 11 -0.28 11 -3 11 C-3.33 11.99 -3.66 12.98 -4 14 C-5.06528748 11.26980214 -5.07998186 10.20701188 -4.00390625 7.421875 C-3.52824219 6.54015625 -3.05257813 5.6584375 -2.5625 4.75 C-2.08941406 3.85796875 -1.61632812 2.9659375 -1.12890625 2.046875 C-0.75636719 1.37140625 -0.38382812 0.6959375 0 0 Z M1 4 C0.34 5.65 -0.32 7.3 -1 9 C0.32 9 1.64 9 3 9 C2.67 7.35 2.34 5.7 2 4 C1.67 4 1.34 4 1 4 Z " fill="#9D989A" transform="translate(500,170)"/>
<path d="M0 0 C1.23556641 0.01740234 1.23556641 0.01740234 2.49609375 0.03515625 C3.32238281 0.04417969 4.14867187 0.05320313 5 0.0625 C5.63808594 0.07410156 6.27617187 0.08570313 6.93359375 0.09765625 C6.93359375 1.08765625 6.93359375 2.07765625 6.93359375 3.09765625 C4.62359375 3.09765625 2.31359375 3.09765625 -0.06640625 3.09765625 C-0.06640625 4.08765625 -0.06640625 5.07765625 -0.06640625 6.09765625 C1.91359375 6.09765625 3.89359375 6.09765625 5.93359375 6.09765625 C5.93359375 6.75765625 5.93359375 7.41765625 5.93359375 8.09765625 C3.95359375 8.09765625 1.97359375 8.09765625 -0.06640625 8.09765625 C-0.06640625 10.07765625 -0.06640625 12.05765625 -0.06640625 14.09765625 C-1.05640625 13.76765625 -2.04640625 13.43765625 -3.06640625 13.09765625 C-3.09327178 11.11856227 -3.11274 9.13936654 -3.12890625 7.16015625 C-3.14050781 6.05800781 -3.15210938 4.95585937 -3.1640625 3.8203125 C-3.03217531 0.14329751 -3.03217531 0.14329751 0 0 Z " fill="#847E81" transform="translate(385.06640625,169.90234375)"/>
<path d="M0 0 C0.66 0 1.32 0 2 0 C1.67 3.96 1.34 7.92 1 12 C-5.6 12 -12.2 12 -19 12 C-19 11.67 -19 11.34 -19 11 C-18.26394531 10.98582031 -17.52789062 10.97164062 -16.76953125 10.95703125 C-10.44581309 10.70285184 -10.44581309 10.70285184 -5 7.75 C-2.97005404 5.04386821 -2.97005404 5.04386821 -1.3125 2.1875 C-0.879375 1.465625 -0.44625 0.74375 0 0 Z " fill="#C1AD94" transform="translate(437,124)"/>
<path d="M0 0 C0.66 0 1.32 0 2 0 C2.08384078 4.27587998 1.84728203 7.76358987 1 12 C-10.55 12 -22.1 12 -34 12 C-34 11.34 -34 10.68 -34 10 C-22.78 10.33 -11.56 10.66 0 11 C-0.495 9.02 -0.495 9.02 -1 7 C-4.11785113 7.64644661 -4.11785113 7.64644661 -5 10 C-5.66 9.34 -6.32 8.68 -7 8 C-6.401875 7.79375 -5.80375 7.5875 -5.1875 7.375 C-2.18981233 5.49073918 -1.38638224 3.18867916 0 0 Z " fill="#645950" transform="translate(399,125)"/>
<path d="M0 0 C-1.385988 3.35066172 -2.7756177 4.83371851 -5.875 6.6875 C-6.89207031 7.31205078 -6.89207031 7.31205078 -7.9296875 7.94921875 C-11.45773333 9.73986843 -14.63278109 10.15425365 -18.5625 10.1875 C-19.70912109 10.20876953 -19.70912109 10.20876953 -20.87890625 10.23046875 C-23 10 -23 10 -26 8 C-22.7 8.33 -19.4 8.66 -16 9 C-16 8.34 -16 7.68 -16 7 C-17.32 6.67 -18.64 6.34 -20 6 C-19.1646875 5.97873047 -19.1646875 5.97873047 -18.3125 5.95703125 C-12.733955 5.60837219 -9.24983982 4.34401945 -4.7265625 1.05859375 C-3 0 -3 0 0 0 Z " fill="#6E6153" transform="translate(313,128)"/>
<path d="M0 0 C0.66 0 1.32 0 2 0 C2.08636719 0.69867188 2.17273438 1.39734375 2.26171875 2.1171875 C2.68204824 4.83968863 3.13743453 7.38196209 4 10 C6.45748398 11.75568004 6.45748398 11.75568004 9 12 C9 12.66 9 13.32 9 14 C3.72 14 -1.56 14 -7 14 C-7 13.34 -7 12.68 -7 12 C-5.02 11.67 -3.04 11.34 -1 11 C-0.67 7.37 -0.34 3.74 0 0 Z " fill="#695E4D" transform="translate(200,123)"/>
<path d="M0 0 C0.33 0 0.66 0 1 0 C1.33 7.59 1.66 15.18 2 23 C3.98 23.66 5.96 24.32 8 25 C8 25.66 8 26.32 8 27 C2.06 27 -3.88 27 -10 27 C-10.33 26.34 -10.66 25.68 -11 25 C-10.36191406 24.93941406 -9.72382812 24.87882812 -9.06640625 24.81640625 C-7.82697266 24.69072266 -7.82697266 24.69072266 -6.5625 24.5625 C-5.73878906 24.48128906 -4.91507813 24.40007812 -4.06640625 24.31640625 C-2.01337975 24.21069185 -2.01337975 24.21069185 -1 23 C-0.84259395 21.29436222 -0.74906608 19.58272756 -0.68359375 17.87109375 C-0.64169922 16.83662109 -0.59980469 15.80214844 -0.55664062 14.73632812 C-0.51732422 13.64771484 -0.47800781 12.55910156 -0.4375 11.4375 C-0.39431641 10.34501953 -0.35113281 9.25253906 -0.30664062 8.12695312 C-0.20017932 5.41810436 -0.09816484 2.70916008 0 0 Z " fill="#B6A391" transform="translate(676,110)"/>
<path d="M0 0 C1.76141726 2.64212589 3.23818698 5.2427764 4.6875 8.0625 C5.14511719 8.94035156 5.60273438 9.81820312 6.07421875 10.72265625 C6.37972656 11.47417969 6.68523437 12.22570312 7 13 C6 15 6 15 4 17 C3.35232207 19.57061311 3.35232207 19.57061311 3 22 C0.35534962 18.8745041 -0.84414715 15.91211733 -2 12 C-1.01 12 -0.02 12 1 12 C0.67 8.04 0.34 4.08 0 0 Z " fill="#A38B6B" transform="translate(208,99)"/>
<path d="M0 0 C0.99 0 1.98 0 3 0 C6 5.625 6 5.625 6 9 C6.66 9 7.32 9 8 9 C8.99 6.03 9.98 3.06 11 0 C11.99 0 12.98 0 14 0 C12.50829734 4.9723422 10.39542583 9.41845739 8 14 C5 13 5 13 3.61328125 10.56640625 C2.96939453 9.07947266 2.96939453 9.07947266 2.3125 7.5625 C1.87550781 6.57378906 1.43851562 5.58507812 0.98828125 4.56640625 C0 2 0 2 0 0 Z " fill="#938F91" transform="translate(295,170)"/>
<path d="M0 0 C0.66 0.33 1.32 0.66 2 1 C2.05819424 4.24992446 2.09366116 7.49971435 2.125 10.75 C2.14175781 11.67039062 2.15851563 12.59078125 2.17578125 13.5390625 C2.18222656 14.42851563 2.18867188 15.31796875 2.1953125 16.234375 C2.20578613 17.05131836 2.21625977 17.86826172 2.22705078 18.70996094 C1.97829916 21.21887518 1.25700129 22.83395625 0 25 C-0.33 25 -0.66 25 -1 25 C-1.02886984 21.02084841 -1.04675406 17.04172347 -1.0625 13.0625 C-1.07087891 11.92619141 -1.07925781 10.78988281 -1.08789062 9.61914062 C-1.09111328 8.53955078 -1.09433594 7.45996094 -1.09765625 6.34765625 C-1.10289307 5.34742432 -1.10812988 4.34719238 -1.11352539 3.31665039 C-1 1 -1 1 0 0 Z " fill="#C1A275" transform="translate(260,104)"/>
<path d="M0 0 C3.63 0 7.26 0 11 0 C11.33 0.99 11.66 1.98 12 3 C10.35 3 8.7 3 7 3 C7 6.63 7 10.26 7 14 C6.01 13.67 5.02 13.34 4 13 C4 10.03 4 7.06 4 4 C2.68 3.34 1.36 2.68 0 2 C0 1.34 0 0.68 0 0 Z " fill="#8B8489" transform="translate(681,170)"/>
<path d="M0 0 C3.65628954 0.43716505 5.58712749 2.12153353 8.25 4.5625 C8.95640625 5.20316406 9.6628125 5.84382813 10.390625 6.50390625 C10.92171875 6.99761719 11.4528125 7.49132812 12 8 C11.67 8.66 11.34 9.32 11 10 C9.68 9.01 8.36 8.02 7 7 C6.01 7.495 6.01 7.495 5 8 C5 8.99 5 9.98 5 11 C1.69558013 8.79705342 0.19613917 7.71450698 -0.875 3.8125 C-0.91625 2.884375 -0.9575 1.95625 -1 1 C-0.67 0.67 -0.34 0.34 0 0 Z " fill="#C3AB8A" transform="translate(476,115)"/>
<path d="M0 0 C0.33 0 0.66 0 1 0 C1 9.9 1 19.8 1 30 C0.67 29.01 0.34 28.02 0 27 C-0.99 27 -1.98 27 -3 27 C-3 23.37 -3 19.74 -3 16 C-2.01 16 -1.02 16 0 16 C0 10.72 0 5.44 0 0 Z " fill="#D1B38C" transform="translate(326,103)"/>
<path d="M0 0 C6.93 0.33 13.86 0.66 21 1 C21 1.66 21 2.32 21 3 C13.62213563 3.71853983 6.28534238 4.12393965 -1.125 4.1875 C-1.85904053 4.20039063 -2.59308105 4.21328125 -3.34936523 4.2265625 C-7.12002889 4.23358995 -8.78292232 4.14471846 -12 2 C-6.06 1.505 -6.06 1.505 0 1 C0 0.67 0 0.34 0 0 Z " fill="#585253" transform="translate(765,221)"/>
<path d="M0 0 C0 0.66 0 1.32 0 2 C-3.63 2 -7.26 2 -11 2 C-11.33 7.61 -11.66 13.22 -12 19 C-12.66 18.67 -13.32 18.34 -14 18 C-14 13.05 -14 8.1 -14 3 C-15.65 2.67 -17.3 2.34 -19 2 C-16.2964117 -3.40717659 -4.92216157 -1.31257642 0 0 Z " fill="#695747" transform="translate(363,96)"/>
<path d="M0 0 C1.32 0 2.64 0 4 0 C4.66 1.65 5.32 3.3 6 5 C6.598125 4.175 7.19625 3.35 7.8125 2.5 C8.534375 1.675 9.25625 0.85 10 0 C10.99 0 11.98 0 13 0 C11.79618552 2.49361571 10.54571278 4.68143083 9 7 C8.29187186 9.32108669 7.61975848 11.65377147 7 14 C6.34 13.67 5.68 13.34 5 13 C4.690625 11.906875 4.38125 10.81375 4.0625 9.6875 C3.08501242 6.29504311 2.16869581 4.66158122 0 2 C0 1.34 0 0.68 0 0 Z " fill="#918C8F" transform="translate(524,170)"/>
<path d="M0 0 C0.81726563 0.00193359 1.63453125 0.00386719 2.4765625 0.00585938 C3.3221875 0.01810547 4.1678125 0.03035156 5.0390625 0.04296875 C5.87695312 0.04361328 6.71484375 0.04425781 7.578125 0.04492188 C12.04606363 0.07653465 16.2678606 0.33547651 20.6640625 1.23046875 C20.6640625 1.89046875 20.6640625 2.55046875 20.6640625 3.23046875 C10.95787589 3.39878412 1.34252676 2.87264173 -8.3359375 2.23046875 C-5.42249152 0.56969758 -3.34550838 -0.01865525 0 0 Z " fill="#8E8687" transform="translate(391.3359375,220.76953125)"/>
<path d="M0 0 C0.66 0 1.32 0 2 0 C2 0.66 2 1.32 2 2 C4.97 2.99 7.94 3.98 11 5 C11 5.66 11 6.32 11 7 C5.06 7 -0.88 7 -7 7 C-7 6.34 -7 5.68 -7 5 C-5.02 4.67 -3.04 4.34 -1 4 C-0.67 2.68 -0.34 1.36 0 0 Z " fill="#A89786" transform="translate(618,130)"/>
<path d="M0 0 C1.7290774 -0.02725341 3.45828176 -0.04650987 5.1875 -0.0625 C6.15042969 -0.07410156 7.11335938 -0.08570312 8.10546875 -0.09765625 C10.85576513 -0.00486622 13.32479591 0.37888315 16 1 C16 1.66 16 2.32 16 3 C12.70450534 4.72264494 9.66881155 6.29445932 6 7 C6 5.68 6 4.36 6 3 C4.02 3 2.04 3 0 3 C0 2.01 0 1.02 0 0 Z " fill="#867263" transform="translate(481,95)"/>
<path d="M0 0 C0.99 0 1.98 0 3 0 C3 3.3 3 6.6 3 10 C5.31 10 7.62 10 10 10 C9.67 10.99 9.34 11.98 9 13 C2.84765625 13.09765625 2.84765625 13.09765625 1 13 C0 12 0 12 -0.09765625 9.27734375 C-0.08605469 8.17519531 -0.07445312 7.07304687 -0.0625 5.9375 C-0.05347656 4.83277344 -0.04445313 3.72804687 -0.03515625 2.58984375 C-0.02355469 1.73519531 -0.01195312 0.88054687 0 0 Z " fill="#8A8587" transform="translate(627,171)"/>
<path d="M0 0 C2.475 0.495 2.475 0.495 5 1 C5.33 2.32 5.66 3.64 6 5 C7.65 4.67 9.3 4.34 11 4 C10.01 4 9.02 4 8 4 C8.33 3.01 8.66 2.02 9 1 C10.70884005 2.62339805 12.37446717 4.29319053 14 6 C14 6.66 14 7.32 14 8 C14.66 8.33 15.32 8.66 16 9 C11.00165008 9.29402058 7.94937682 9.20219742 4 6 C1.6875 2.8125 1.6875 2.8125 0 0 Z " fill="#B4A18A" transform="translate(568,127)"/>
<path d="M0 0 C3.96 0 7.92 0 12 0 C12 0.99 12 1.98 12 3 C10.35 3 8.7 3 7 3 C7.33 6.3 7.66 9.6 8 13 C7.01 13 6.02 13 5 13 C5 9.7 5 6.4 5 3 C3.35 2.67 1.7 2.34 0 2 C0 1.34 0 0.68 0 0 Z " fill="#8E888B" transform="translate(636,170)"/>
<path d="M0 0 C3.63 0 7.26 0 11 0 C11.33 0.99 11.66 1.98 12 3 C10.35 3 8.7 3 7 3 C7 6.63 7 10.26 7 14 C6.34 14 5.68 14 5 14 C5 10.37 5 6.74 5 3 C3.35 2.67 1.7 2.34 0 2 C0 1.34 0 0.68 0 0 Z " fill="#8E8A8C" transform="translate(273,170)"/>
<path d="M0 0 C3.86463725 0.41406828 6.12722 2.52621722 9 5 C8.67 6.98 8.34 8.96 8 11 C6.68 10.34 5.36 9.68 4 9 C4 8.67 4 8.34 4 8 C2.68 7.67 1.36 7.34 0 7 C-0.38133299 5.0085944 -0.71325582 3.00720923 -1 1 C-0.67 0.67 -0.34 0.34 0 0 Z " fill="#C3AB8A" transform="translate(481,121)"/>
<path d="M0 0 C0.99 0 1.98 0 3 0 C3.99 3.63 4.98 7.26 6 11 C4.35 11.33 2.7 11.66 1 12 C0.87625 11.030625 0.7525 10.06125 0.625 9.0625 C0.41875 8.051875 0.2125 7.04125 0 6 C-0.66 5.67 -1.32 5.34 -2 5 C-2 2 -2 2 0 0 Z " fill="#D3BB9C" transform="translate(646,106)"/>
<path d="M0 0 C0.99 0.33 1.98 0.66 3 1 C4.1875 4.0625 4.1875 4.0625 5 7 C4.34 7 3.68 7 3 7 C2.67 9.97 2.34 12.94 2 16 C2.66 16.33 3.32 16.66 4 17 C3.34 17.66 2.68 18.32 2 19 C-0.09350689 15.5980513 -0.17942163 12.94727588 0 9 C-0.66 9 -1.32 9 -2 9 C-1.34 6.03 -0.68 3.06 0 0 Z " fill="#AF9D88" transform="translate(606,95)"/>
<path d="M0 0 C0.33 0.66 0.66 1.32 1 2 C0.67 2.99 0.34 3.98 0 5 C0.66 5 1.32 5 2 5 C1.36441803 7.92891899 0.42419834 10.39562664 -0.9375 13.0625 C-1.44603516 14.06990234 -1.44603516 14.06990234 -1.96484375 15.09765625 C-3 17 -3 17 -5 20 C-5.66 19.67 -6.32 19.34 -7 19 C-4.94235079 12.54646385 -2.57616518 6.2638737 0 0 Z " fill="#7F7265" transform="translate(604,99)"/>
<path d="M0 0 C1.375 1.8125 1.375 1.8125 2 4 C1.625 6.25 1.625 6.25 1 8 C-0.32 8 -1.64 8 -3 8 C-3 6.68 -3 5.36 -3 4 C-3.99 4 -4.98 4 -6 4 C-6.33 4.66 -6.66 5.32 -7 6 C-7 4.02 -7 2.04 -7 0 C-4.25509788 -1.37245106 -2.87939419 -0.93580311 0 0 Z " fill="#E0C5A1" transform="translate(644,98)"/>
<path d="M0 0 C0.33 0 0.66 0 1 0 C1 10.89 1 21.78 1 33 C1.66 33.33 2.32 33.66 3 34 C-0.63 34 -4.26 34 -8 34 C-8 33.34 -8 32.68 -8 32 C-5 31 -5 31 -1 32 C-0.67 21.44 -0.34 10.88 0 0 Z " fill="#A39277" transform="translate(240,102)"/>
<path d="M0 0 C0.66 0 1.32 0 2 0 C2.33 3.63 2.66 7.26 3 11 C4.65 11 6.3 11 8 11 C8.33 11.99 8.66 12.98 9 14 C6.03 14 3.06 14 0 14 C0 9.38 0 4.76 0 0 Z " fill="#918C8F" transform="translate(459,170)"/>
<path d="M0 0 C0.66 0 1.32 0 2 0 C1.37934787 6.05135823 -0.62493262 12.62493262 -5 17 C-5 16.01 -5 15.02 -5 14 C-5.66 14 -6.32 14 -7 14 C-6.67 12.68 -6.34 11.36 -6 10 C-5.67 10.33 -5.34 10.66 -5 11 C-3.35 7.37 -1.7 3.74 0 0 Z " fill="#8B8277" transform="translate(663,112)"/>
<path d="M0 0 C0.5690821 2.2104842 1.06179972 4.37079829 1.4375 6.625 C1.82100329 9.17107484 1.82100329 9.17107484 4 11 C6.78302919 11.20872719 8.48718205 11.25640898 11 10 C10.67 11.32 10.34 12.64 10 14 C6.73840759 15.0250719 5.44560389 15.2176205 2.3125 13.6875 C0 12 0 12 -2 10 C-1.7578125 7.6171875 -1.7578125 7.6171875 -1.125 4.875 C-0.92132813 3.96492187 -0.71765625 3.05484375 -0.5078125 2.1171875 C-0.34023438 1.41851562 -0.17265625 0.71984375 0 0 Z " fill="#70625B" transform="translate(430,216)"/>
<path d="M0 0 C0.33 0 0.66 0 1 0 C1 11.22 1 22.44 1 34 C2.32 34.66 3.64 35.32 5 36 C2.36 36 -0.28 36 -3 36 C-2.34 35.01 -1.68 34.02 -1 33 C-0.76006345 30.46413152 -0.62746781 28.02783969 -0.5859375 25.48828125 C-0.56657135 24.76005661 -0.5472052 24.03183197 -0.5272522 23.28153992 C-0.46753624 20.95864525 -0.42110383 18.63570081 -0.375 16.3125 C-0.33681279 14.73630668 -0.29776062 13.16013405 -0.2578125 11.58398438 C-0.16184152 7.72282465 -0.07778151 3.86156724 0 0 Z " fill="#D1BC9C" transform="translate(412,100)"/>
<path d="M0 0 C0.66 0.33 1.32 0.66 2 1 C2 2.32 2 3.64 2 5 C4.31 5.66 6.62 6.32 9 7 C6 9 6 9 2 9 C1.34 10.65 0.68 12.3 0 14 C0.66 14.33 1.32 14.66 2 15 C0.68 14.67 -0.64 14.34 -2 14 C-1.54177532 10.53058454 -1.10868317 7.32604951 0 4 C0 2.68 0 1.36 0 0 Z " fill="#665C56" transform="translate(444,216)"/>
<path d="M0 0 C0.33 0 0.66 0 1 0 C1 1.98 1 3.96 1 6 C-8.9 6 -18.8 6 -29 6 C-25.15936385 4.07968193 -24.16305106 3.77255213 -20.15625 3.9453125 C-19.23972656 3.96980469 -18.32320313 3.99429688 -17.37890625 4.01953125 C-15.45933373 4.0898548 -13.54003131 4.16798367 -11.62109375 4.25390625 C-6.10568248 4.52614286 -6.10568248 4.52614286 -1.40625 1.9921875 C-0.71015625 1.00605469 -0.71015625 1.00605469 0 0 Z " fill="#C7B79B" transform="translate(398,130)"/>
<path d="M0 0 C1.87056791 0.2275015 3.74685958 0.40962811 5.625 0.5625 C6.62789062 0.64628906 7.63078125 0.73007813 8.6640625 0.81640625 C9.43492187 0.87699219 10.20578125 0.93757812 11 1 C11 1.33 11 1.66 11 2 C1.29380893 3.20253695 -8.64889992 4.40040003 -18 1 C-18 0.67 -18 0.34 -18 0 C-15.3753399 -0.19430855 -12.75053235 -0.38073238 -10.125 -0.5625 C-9.00544922 -0.64661133 -9.00544922 -0.64661133 -7.86328125 -0.73242188 C-2.2265625 -1.11328125 -2.2265625 -1.11328125 0 0 Z " fill="#2E2A2C" transform="translate(129,222)"/>
<path d="M0 0 C0.33 0 0.66 0 1 0 C1 5.28 1 10.56 1 16 C3.31 15.01 5.62 14.02 8 13 C8 13.66 8 14.32 8 15 C9.32 15.66 10.64 16.32 12 17 C11.67 17.66 11.34 18.32 11 19 C10.34 18.34 9.68 17.68 9 17 C8.01 17 7.02 17 6 17 C5.34 17.99 4.68 18.98 4 20 C3.01 19.67 2.02 19.34 1 19 C-0.65497356 15.69005287 -0.10084335 12.00877 -0.0625 8.375 C-0.05798828 7.57320313 -0.05347656 6.77140625 -0.04882812 5.9453125 C-0.03703168 3.96350994 -0.01909605 1.98174567 0 0 Z " fill="#847360" transform="translate(470,99)"/>
<path d="M0 0 C2.48650823 3.72976234 1.91186782 4.90897874 1.09375 9.0625 C0.79162545 11.33122571 0.79162545 11.33122571 3 14 C0.03 14 -2.94 14 -6 14 C-5.01 13.67 -4.02 13.34 -3 13 C-2.87625 11.96875 -2.7525 10.9375 -2.625 9.875 C-2.06110186 6.37883154 -1.21317941 3.31602373 0 0 Z " fill="#817166" transform="translate(510,122)"/>
<path d="M0 0 C0.66 0 1.32 0 2 0 C2.33 1.32 2.66 2.64 3 4 C3.66 4 4.32 4 5 4 C4.67 9.28 4.34 14.56 4 20 C0.71091189 15.61454919 0.47356809 12.9594022 0.3125 7.75 C0.27833984 7.00492187 0.24417969 6.25984375 0.20898438 5.4921875 C0.12685946 3.66197508 0.06174347 1.83101331 0 0 Z " fill="#71614E" transform="translate(198,99)"/>
<path d="M0 0 C1.75 1.4375 1.75 1.4375 2.6875 4.3125 C2.75 7.4375 2.75 7.4375 1.3125 9.8125 C0.796875 10.34875 0.28125 10.885 -0.25 11.4375 C-2.56 11.1075 -4.87 10.7775 -7.25 10.4375 C-7.25 10.1075 -7.25 9.7775 -7.25 9.4375 C-5.27 9.4375 -3.29 9.4375 -1.25 9.4375 C-1.25 7.4575 -1.25 5.4775 -1.25 3.4375 C-3.23 2.7775 -5.21 2.1175 -7.25 1.4375 C-7.25 1.1075 -7.25 0.7775 -7.25 0.4375 C-4.56026772 -0.30964785 -2.73221402 -0.6830535 0 0 Z " fill="#8A8486" transform="translate(574.25,171.5625)"/>
<path d="M0 0 C1.65 0 3.3 0 5 0 C5 3.63 5 7.26 5 11 C2 10 2 10 0.3125 6.9375 C-0.120625 5.968125 -0.55375 4.99875 -1 4 C-0.34 4 0.32 4 1 4 C0.67 2.68 0.34 1.36 0 0 Z " fill="#8D7C6A" transform="translate(393,95)"/>
<path d="M0 0 C2.24785023 3.51330666 1.99978232 5.61828096 1.125 9.625 C0.29671091 13.2849209 0.29671091 13.2849209 0 17 C-0.66 17 -1.32 17 -2 17 C-2.33 16.34 -2.66 15.68 -3 15 C-3.99 15 -4.98 15 -6 15 C-5.65066406 14.16855469 -5.30132813 13.33710938 -4.94140625 12.48046875 C-4.25884766 10.85044922 -4.25884766 10.85044922 -3.5625 9.1875 C-3.11003906 8.10855469 -2.65757812 7.02960938 -2.19140625 5.91796875 C-1.39624987 3.9704874 -0.66520352 1.99561057 0 0 Z " fill="#807063" transform="translate(596,118)"/>
<path d="M0 0 C2.95839355 -0.02689449 5.91654427 -0.04678741 8.875 -0.0625 C9.71675781 -0.07087891 10.55851562 -0.07925781 11.42578125 -0.08789062 C12.23144531 -0.09111328 13.03710938 -0.09433594 13.8671875 -0.09765625 C14.98262939 -0.10551147 14.98262939 -0.10551147 16.12060547 -0.11352539 C18 0 18 0 20 1 C20 1.66 20 2.32 20 3 C17.04160645 3.02689449 14.08345573 3.04678741 11.125 3.0625 C9.86236328 3.07506836 9.86236328 3.07506836 8.57421875 3.08789062 C7.76855469 3.09111328 6.96289062 3.09433594 6.1328125 3.09765625 C5.01737061 3.10551147 5.01737061 3.10551147 3.87939453 3.11352539 C2 3 2 3 0 2 C0 1.34 0 0.68 0 0 Z " fill="#8C8077" transform="translate(330,114)"/>
<path d="M0 0 C2.4375 0.6875 2.4375 0.6875 5 2 C5.8125 4.625 5.8125 4.625 6 7 C4.02 7.66 2.04 8.32 0 9 C-1.125 2.25 -1.125 2.25 0 0 Z " fill="#B59776" transform="translate(215,122)"/>
<path d="M0 0 C0.99 0 1.98 0 3 0 C3 3.63 3 7.26 3 11 C1.02 11.99 1.02 11.99 -1 13 C-3.25 12.125 -3.25 12.125 -5 11 C-3.68 10.67 -2.36 10.34 -1 10 C0.04005702 6.61981469 0.08004482 3.5219721 0 0 Z " fill="#837F81" transform="translate(451,170)"/>
<path d="M0 0 C2.125 0.375 2.125 0.375 4 1 C4.33 2.65 4.66 4.3 5 6 C4.34 6 3.68 6 3 6 C3 6.99 3 7.98 3 9 C1.68 8.67 0.36 8.34 -1 8 C-1.625 5.125 -1.625 5.125 -2 2 C-1.34 1.34 -0.68 0.68 0 0 Z M0 3 C0 3.66 0 4.32 0 5 C0.99 5 1.98 5 3 5 C3 4.34 3 3.68 3 3 C2.01 3 1.02 3 0 3 Z " fill="#9E999D" transform="translate(407,170)"/>
<path d="M0 0 C3.3 0 6.6 0 10 0 C10 0.66 10 1.32 10 2 C8.35 2.33 6.7 2.66 5 3 C4.67 6.3 4.34 9.6 4 13 C3.67 13 3.34 13 3 13 C3 10.36 3 7.72 3 5 C2.01 4.67 1.02 4.34 0 4 C0 2.68 0 1.36 0 0 Z " fill="#B9A085" transform="translate(351,97)"/>
<path d="M0 0 C1.5103701 4.5311103 1.01654359 9.00738456 0.9375 13.75 C0.83881192 17.01298372 0.83881192 17.01298372 2 20 C0.02 20 -1.96 20 -4 20 C-4 18 -4 18 -2 16 C-1.72368207 13.675511 -1.55009511 11.33814521 -1.4375 9 C-1.09567198 2.19134396 -1.09567198 2.19134396 0 0 Z " fill="#C4AD8B" transform="translate(281,107)"/>
<path d="M0 0 C0.99 0 1.98 0 3 0 C3.99 2.97 4.98 5.94 6 9 C5.01 8.34 4.02 7.68 3 7 C2.34 7.66 1.68 8.32 1 9 C0.01 9 -0.98 9 -2 9 C-1.34 6.03 -0.68 3.06 0 0 Z " fill="#A7957E" transform="translate(521,95)"/>
<path d="M0 0 C0.89267578 0.00322266 1.78535156 0.00644531 2.70507812 0.00976562 C4.09823242 0.02233398 4.09823242 0.02233398 5.51953125 0.03515625 C6.45990234 0.03966797 7.40027344 0.04417969 8.36914062 0.04882812 C10.69016837 0.06060999 13.01106769 0.07706067 15.33203125 0.09765625 C15.33203125 0.42765625 15.33203125 0.75765625 15.33203125 1.09765625 C13.43517578 1.29681641 13.43517578 1.29681641 11.5 1.5 C9.839825 1.67821088 8.17966977 1.85660588 6.51953125 2.03515625 C5.26946289 2.16567383 5.26946289 2.16567383 3.99414062 2.29882812 C2.79047852 2.4293457 2.79047852 2.4293457 1.5625 2.5625 C0.82410889 2.64105225 0.08571777 2.71960449 -0.67504883 2.80053711 C-2.87066253 3.06917621 -2.87066253 3.06917621 -5.66796875 4.09765625 C-6.32796875 3.76765625 -6.98796875 3.43765625 -7.66796875 3.09765625 C-7.66796875 2.43765625 -7.66796875 1.77765625 -7.66796875 1.09765625 C-4.78531726 0.13677242 -2.99134604 -0.01905316 0 0 Z " fill="#635549" transform="translate(552.66796875,94.90234375)"/>
<path d="M0 0 C3.73639216 1.24546405 4.18756513 2.63404953 6 6 C5.01 6 4.02 6 3 6 C2.67 8.64 2.34 11.28 2 14 C1.34 13.67 0.68 13.34 0 13 C0 8.71 0 4.42 0 0 Z " fill="#AEA8AB" transform="translate(666,170)"/>
<path d="M0 0 C0.33 0 0.66 0 1 0 C1 5.61 1 11.22 1 17 C3.31 17.33 5.62 17.66 8 18 C8 18.33 8 18.66 8 19 C3.38 19 -1.24 19 -6 19 C-6 18.67 -6 18.34 -6 18 C-4.35 17.67 -2.7 17.34 -1 17 C-0.67 11.39 -0.34 5.78 0 0 Z " fill="#CAB499" transform="translate(351,117)"/>
<path d="M0 0 C0.53109375 0.42152344 1.0621875 0.84304687 1.609375 1.27734375 C2.31578125 1.82519531 3.0221875 2.37304688 3.75 2.9375 C4.44609375 3.48277344 5.1421875 4.02804688 5.859375 4.58984375 C7.96092128 5.97425654 9.54321799 6.56286987 12 7 C12 7.66 12 8.32 12 9 C8.04 8.67 4.08 8.34 0 8 C0.66 7.34 1.32 6.68 2 6 C1.34 4.02 0.68 2.04 0 0 Z " fill="#887860" transform="translate(285,128)"/>
<path d="M0 0 C2.475 0.495 2.475 0.495 5 1 C4.01 1.66 3.02 2.32 2 3 C1.77892213 5.7885289 1.71892465 8.34653181 1.8125 11.125 C1.82603516 11.87910156 1.83957031 12.63320312 1.85351562 13.41015625 C1.88890015 15.27374127 1.94270833 17.13695978 2 19 C1.34 18.67 0.68 18.34 0 18 C0 12.06 0 6.12 0 0 Z " fill="#796B57" transform="translate(327,115)"/>
<path d="M0 0 C0.66 0 1.32 0 2 0 C1.49202991 4.3177458 0.80317221 8.03302114 -1 12 C-1.99 12 -2.98 12 -4 12 C-4.33 10.35 -4.66 8.7 -5 7 C-4.01 7 -3.02 7 -2 7 C-1.34 4.69 -0.68 2.38 0 0 Z " fill="#857561" transform="translate(221,123)"/>
<path d="M0 0 C0.99 0 1.98 0 3 0 C3 4.29 3 8.58 3 13 C-1 11 -1 11 -2 8 C-1.34 7.67 -0.68 7.34 0 7 C0 4.69 0 2.38 0 0 Z " fill="#BBB5B7" transform="translate(589,170)"/>
<path d="M0 0 C0.99 0.33 1.98 0.66 3 1 C3 4.63 3 8.26 3 12 C2.01 12.33 1.02 12.66 0 13 C-0.66 11.35 -1.32 9.7 -2 8 C-1.34 8 -0.68 8 0 8 C0 6.68 0 5.36 0 4 C-0.66 3.67 -1.32 3.34 -2 3 C-1.34 2.01 -0.68 1.02 0 0 Z " fill="#675A50" transform="translate(390,110)"/>
<path d="M0 0 C0.75 1.75 0.75 1.75 1 4 C-0.9375 6.25 -0.9375 6.25 -3 8 C-3.33 7.34 -3.66 6.68 -4 6 C-2.68 4.02 -1.36 2.04 0 0 Z M1 3 C2.32 3 3.64 3 5 3 C4.34 7.29 3.68 11.58 3 16 C2.67 16 2.34 16 2 16 C2.01740234 14.84371094 2.01740234 14.84371094 2.03515625 13.6640625 C2.04417969 12.66117188 2.05320312 11.65828125 2.0625 10.625 C2.07410156 9.62726563 2.08570313 8.62953125 2.09765625 7.6015625 C2.18006602 5.01567547 2.18006602 5.01567547 1 3 Z " fill="#85725B" transform="translate(279,102)"/>
<path d="M0 0 C0.33 0.99 0.66 1.98 1 3 C7.435 2.505 7.435 2.505 14 2 C14 2.99 14 3.98 14 5 C9.05 5 4.1 5 -1 5 C-0.67 3.35 -0.34 1.7 0 0 Z " fill="#A0958B" transform="translate(598,117)"/>
<path d="M0 0 C1.98 0.495 1.98 0.495 4 1 C4.33 3.64 4.66 6.28 5 9 C3.68 9 2.36 9 1 9 C0.35142329 5.83818852 0 3.21569078 0 0 Z " fill="#E2C79F" transform="translate(611,113)"/>
<path d="M0 0 C3.3 0 6.6 0 10 0 C9.34 0.66 8.68 1.32 8 2 C8.3185177 4.10820797 8.3185177 4.10820797 9 6 C8.01 6.495 8.01 6.495 7 7 C6.34 6.67 5.68 6.34 5 6 C4.67 6.66 4.34 7.32 4 8 C4 6.02 4 4.04 4 2 C2.68 1.34 1.36 0.68 0 0 Z " fill="#C1A888" transform="translate(196,97)"/>
<path d="M0 0 C1.9375 1 1.9375 1 4 3 C4.66549451 5.69924572 4.81680763 8.20631637 5 11 C3 8 3 8 1 4 C0.67 7.3 0.34 10.6 0 14 C-0.33 14 -0.66 14 -1 14 C-1.33 9.71 -1.66 5.42 -2 1 C-1.34 0.67 -0.68 0.34 0 0 Z " fill="#DDC4A6" transform="translate(574,99)"/>
<path d="M0 0 C2.41674224 -0.02705308 4.8331794 -0.04686438 7.25 -0.0625 C7.93191406 -0.07087891 8.61382812 -0.07925781 9.31640625 -0.08789062 C12.69342554 -0.10428392 15.77291639 -0.05628768 19 1 C18.67 1.66 18.34 2.32 18 3 C17.10796875 2.98839844 16.2159375 2.97679688 15.296875 2.96484375 C14.12640625 2.95582031 12.9559375 2.94679688 11.75 2.9375 C10.58984375 2.92589844 9.4296875 2.91429688 8.234375 2.90234375 C5.59022872 2.98217908 3.50173909 3.21356222 1 4 C0.67 2.68 0.34 1.36 0 0 Z " fill="#554338" transform="translate(315,95)"/>
<path d="M0 0 C1.05960937 0.00676758 1.05960937 0.00676758 2.140625 0.01367188 C3.88545275 0.02546125 5.630237 0.04339676 7.375 0.0625 C7.375 1.0525 7.375 2.0425 7.375 3.0625 C6.54355469 3.05089844 5.71210938 3.03929688 4.85546875 3.02734375 C3.22544922 3.01380859 3.22544922 3.01380859 1.5625 3 C-0.05591797 2.98259766 -0.05591797 2.98259766 -1.70703125 2.96484375 C-4.69012169 2.92625234 -4.69012169 2.92625234 -7.625 4.0625 C-8.285 3.7325 -8.945 3.4025 -9.625 3.0625 C-9.625 2.4025 -9.625 1.7425 -9.625 1.0625 C-6.55966836 -0.47016582 -3.35745728 -0.04026471 0 0 Z " fill="#53473C" transform="translate(260.625,94.9375)"/>
<path d="M0 0 C0.99 0.33 1.98 0.66 3 1 C4.16063604 5.25566547 3.76173392 8.6835078 3 13 C2.01 13 1.02 13 0 13 C0 8.71 0 4.42 0 0 Z " fill="#938D8F" transform="translate(479,170)"/>
<path d="M0 0 C0.33 0.66 0.66 1.32 1 2 C3.52733235 2.65555119 3.52733235 2.65555119 6 3 C6 3.66 6 4.32 6 5 C1.05 5 -3.9 5 -9 5 C-9 4.34 -9 3.68 -9 3 C-5.71303767 2.20046862 -4.28976808 1.90341064 -1 3 C-0.67 2.01 -0.34 1.02 0 0 Z " fill="#887B6E" transform="translate(639,132)"/>
<path d="M0 0 C0.66 0 1.32 0 2 0 C2 4.29 2 8.58 2 13 C-0.64 13 -3.28 13 -6 13 C-6 12.67 -6 12.34 -6 12 C-4.35 11.67 -2.7 11.34 -1 11 C-0.67 7.37 -0.34 3.74 0 0 Z " fill="#AF9F85" transform="translate(200,123)"/>
<path d="M0 0 C1.72476562 0.00386719 1.72476562 0.00386719 3.484375 0.0078125 C4.62390625 0.00523438 5.7634375 0.00265625 6.9375 0 C9.83481876 0.11671663 12.42046464 0.46636005 15.234375 1.1328125 C14.904375 1.7928125 14.574375 2.4528125 14.234375 3.1328125 C13.40292969 3.12121094 12.57148438 3.10960938 11.71484375 3.09765625 C10.08482422 3.08412109 10.08482422 3.08412109 8.421875 3.0703125 C6.80345703 3.05291016 6.80345703 3.05291016 5.15234375 3.03515625 C2.16925331 2.99656484 2.16925331 2.99656484 -0.765625 4.1328125 C-1.755625 3.1428125 -2.745625 2.1528125 -3.765625 1.1328125 C-2.765625 0.1328125 -2.765625 0.1328125 0 0 Z " fill="#67584D" transform="translate(460.765625,94.8671875)"/>
<path d="M0 0 C2.18975773 3.28463659 2.99806563 6.20696275 4 10 C3.34 10 2.68 10 2 10 C2 9.01 2 8.02 2 7 C1.34 7 0.68 7 0 7 C0 7.66 0 8.32 0 9 C-0.66 9 -1.32 9 -2 9 C-2.33 9.99 -2.66 10.98 -3 12 C-3.6875 10.1875 -3.6875 10.1875 -4 8 C-3.02246356 6.97803008 -2.0194119 5.98020375 -1 5 C-0.27802838 2.39388923 -0.27802838 2.39388923 0 0 Z " fill="#A5927A" transform="translate(533,119)"/>
<path d="M0 0 C2.97 0.495 2.97 0.495 6 1 C6 1.99 6 2.98 6 4 C-0.27 4 -6.54 4 -13 4 C-12.67 3.34 -12.34 2.68 -12 2 C-8.04 2 -4.08 2 0 2 C0 1.34 0 0.68 0 0 Z " fill="#645852" transform="translate(357,133)"/>
<path d="M0 0 C0.66 0.33 1.32 0.66 2 1 C2.4140625 3.72265625 2.4140625 3.72265625 2.625 7.0625 C2.69976562 8.16722656 2.77453125 9.27195313 2.8515625 10.41015625 C2.90054688 11.26480469 2.94953125 12.11945313 3 13 C2.01 13.495 2.01 13.495 1 14 C0.34 13.34 -0.32 12.68 -1 12 C-0.69096017 10.66082739 -0.34976758 9.32911682 0 8 C0.09730035 5.32680103 0.04460478 2.67628708 0 0 Z " fill="#BA9D73" transform="translate(237,121)"/>
<path d="M0 0 C0.99 0 1.98 0 3 0 C3 0.66 3 1.32 3 2 C3.66 2 4.32 2 5 2 C5 1.34 5 0.68 5 0 C5.66 0 6.32 0 7 0 C6.67 1.98 6.34 3.96 6 6 C4.68 6 3.36 6 2 6 C1.34 4.02 0.68 2.04 0 0 Z " fill="#A59480" transform="translate(651,128)"/>
<path d="M0 0 C4.29 0 8.58 0 13 0 C12.67 1.32 12.34 2.64 12 4 C6.06 3.01 6.06 3.01 0 2 C0 1.34 0 0.68 0 0 Z " fill="#6A6057" transform="translate(670,95)"/>
<path d="M0 0 C0.33 0 0.66 0 1 0 C1.28875 1.0725 1.5775 2.145 1.875 3.25 C2.72820109 6.09400364 3.5636503 8.43508983 5 11 C2.5625 10.625 2.5625 10.625 0 10 C-1.49106457 7.01787087 -1.11941467 4.28390342 -1 1 C-0.67 0.67 -0.34 0.34 0 0 Z " fill="#8E8577" transform="translate(435,216)"/>
<path d="M0 0 C0.99 0.33 1.98 0.66 3 1 C3.02708567 2.60407328 3.04643483 4.2082785 3.0625 5.8125 C3.07410156 6.70582031 3.08570313 7.59914062 3.09765625 8.51953125 C3 11 3 11 2 14 C1.34 14 0.68 14 0 14 C0 9.38 0 4.76 0 0 Z " fill="#A29E9F" transform="translate(289,170)"/>
<path d="M0 0 C2.08234592 0.06743348 4.16668557 0.08514472 6.25 0.0625 C7.86648438 0.04896484 7.86648438 0.04896484 9.515625 0.03515625 C10.74539063 0.01775391 10.74539063 0.01775391 12 0 C12 0.66 12 1.32 12 2 C6.06 2 0.12 2 -6 2 C-6 1.34 -6 0.68 -6 0 C-3.43140578 -1.28429711 -2.74278524 -0.68569631 0 0 Z " fill="#6D6359" transform="translate(257,135)"/>
<path d="M0 0 C2.475 0.495 2.475 0.495 5 1 C5 1.66 5 2.32 5 3 C5.66 3 6.32 3 7 3 C7 3.66 7 4.32 7 5 C6.34 5 5.68 5 5 5 C5 5.66 5 6.32 5 7 C4.34 7 3.68 7 3 7 C3 6.34 3 5.68 3 5 C2.01 5 1.02 5 0 5 C0 3.35 0 1.7 0 0 Z " fill="#DCC29A" transform="translate(651,123)"/>
<path d="M0 0 C0.33 0 0.66 0 1 0 C1.04898437 0.66386719 1.09796875 1.32773438 1.1484375 2.01171875 C1.54878071 6.73991012 2.0830669 10.61843863 4 15 C3.67 15.66 3.34 16.32 3 17 C3.66 17.33 4.32 17.66 5 18 C4.01 18 3.02 18 2 18 C0.04968308 13.92276266 -0.21581971 10.68307578 -0.125 6.1875 C-0.10695313 5.02605469 -0.08890625 3.86460938 -0.0703125 2.66796875 C-0.04710937 1.78753906 -0.02390625 0.90710938 0 0 Z " fill="#826F58" transform="translate(274,110)"/>
<path d="M0 0 C0.99 0.33 1.98 0.66 3 1 C2.67 5.29 2.34 9.58 2 14 C1.34 14 0.68 14 0 14 C0 9.38 0 4.76 0 0 Z " fill="#ABA5A8" transform="translate(472,170)"/>
<path d="M0 0 C0.99 0 1.98 0 3 0 C5.1875 2.5 5.1875 2.5 7 5 C3.37 5 -0.26 5 -4 5 C-2.1875 2.5 -2.1875 2.5 0 0 Z " fill="#D0BD9C" transform="translate(553,131)"/>
<path d="M0 0 C0.66 0 1.32 0 2 0 C2 2.31 2 4.62 2 7 C-0.07553648 7.5534764 -1.84365964 8 -4 8 C-4.33 8.66 -4.66 9.32 -5 10 C-5.66 9.34 -6.32 8.68 -7 8 C-6.401875 7.79375 -5.80375 7.5875 -5.1875 7.375 C-2.18981233 5.49073918 -1.38638224 3.18867916 0 0 Z " fill="#85776B" transform="translate(399,125)"/>
<path d="M0 0 C2.57833439 2.57833439 3.3761471 5.10325781 4.6875 8.5 C5.14511719 9.6653125 5.60273437 10.830625 6.07421875 12.03125 C7 15 7 15 6 17 C4 14 4 14 4 11 C3.01 10.67 2.02 10.34 1 10 C0.67 6.7 0.34 3.4 0 0 Z " fill="#847563" transform="translate(611,103)"/>
<path d="M0 0 C0.99 0 1.98 0 3 0 C3 0.66 3 1.32 3 2 C2.34 2 1.68 2 1 2 C0.34 4.97 -0.32 7.94 -1 11 C-1.66 10.34 -2.32 9.68 -3 9 C-2.67582137 5.19090105 -2.14418558 3.21627837 0 0 Z " fill="#928776" transform="translate(429,214)"/>
<path d="M0 0 C0.66 1.32 1.32 2.64 2 4 C-1.3125 4.6875 -1.3125 4.6875 -5 5 C-6.9375 3.5625 -6.9375 3.5625 -8 2 C-4.71023192 0.90341064 -3.28696233 1.20046862 0 2 C0 1.34 0 0.68 0 0 Z " fill="#837982" transform="translate(604,179)"/>
<path d="M0 0 C1.65 0 3.3 0 5 0 C5.33 0.99 5.66 1.98 6 3 C-0.27 3 -6.54 3 -13 3 C-12.67 2.34 -12.34 1.68 -12 1 C-8.04 1 -4.08 1 0 1 C0 0.67 0 0.34 0 0 Z " fill="#665B4F" transform="translate(329,134)"/>
<path d="M0 0 C0.33 0 0.66 0 1 0 C1 2.64 1 5.28 1 8 C0.67 7.34 0.34 6.68 0 6 C-2.80980673 5.30772968 -2.80980673 5.30772968 -6.0625 4.875 C-7.16722656 4.70742187 -8.27195312 4.53984375 -9.41015625 4.3671875 C-10.26480469 4.24601562 -11.11945313 4.12484375 -12 4 C-12 3.67 -12 3.34 -12 3 C-6.06 2.505 -6.06 2.505 0 2 C0 1.34 0 0.68 0 0 Z " fill="#CEBEA8" transform="translate(390,112)"/>
<path d="M0 0 C1.32 0.33 2.64 0.66 4 1 C4 1.66 4 2.32 4 3 C-1.61 3 -7.22 3 -13 3 C-13.33 2.34 -13.66 1.68 -14 1 C-9.38 1 -4.76 1 0 1 C0 0.67 0 0.34 0 0 Z " fill="#76695D" transform="translate(540,134)"/>
<path d="M0 0 C2 2 2 2 2.375 5.875 C2.31541346 9.15225968 2.14649924 9.81687595 0 12.5 C-0.66 12.995 -1.32 13.49 -2 14 C-1.54177532 10.53058454 -1.10868317 7.32604951 0 4 C0 2.68 0 1.36 0 0 Z " fill="#9A8975" transform="translate(578,102)"/>
<path d="M0 0 C2.89932357 2.39509338 3.50168276 4.31245243 4 8 C2.35 8.33 0.7 8.66 -1 9 C-0.67 7.35 -0.34 5.7 0 4 C-0.99 3.67 -1.98 3.34 -3 3 C-2.01 2.01 -1.02 1.02 0 0 Z " fill="#D8C29F" transform="translate(524,101)"/>
<path d="M0 0 C5.625 -0.25 5.625 -0.25 9 2 C9 2.66 9 3.32 9 4 C6.03 3.67 3.06 3.34 0 3 C0 2.01 0 1.02 0 0 Z " fill="#8B828A" transform="translate(551,170)"/>
<path d="M0 0 C0.33 0.99 0.66 1.98 1 3 C-2.3 2.67 -5.6 2.34 -9 2 C-9 1.34 -9 0.68 -9 0 C-5.93109813 -1.53445094 -3.29905734 -0.54984289 0 0 Z " fill="#908A8C" transform="translate(346,171)"/>
<path d="M0 0 C-1.3125 2 -1.3125 2 -3 4 C-3.99 4 -4.98 4 -6 4 C-6.33 4.66 -6.66 5.32 -7 6 C-7 4.02 -7 2.04 -7 0 C-4.3333581 -1.33332095 -2.83319697 -0.67102033 0 0 Z " fill="#D9BF9B" transform="translate(644,98)"/>
<path d="M0 0 C0.99 0 1.98 0 3 0 C3 0.66 3 1.32 3 2 C4.65 2 6.3 2 8 2 C8.33 3.65 8.66 5.3 9 7 C8.01 7 7.02 7 6 7 C6 5.68 6 4.36 6 3 C4.02 3 2.04 3 0 3 C0 2.01 0 1.02 0 0 Z " fill="#A99884" transform="translate(481,95)"/>
<path d="M0 0 C0.99 0.33 1.98 0.66 3 1 C3 4.96 3 8.92 3 13 C2.67 13 2.34 13 2 13 C2 9.7 2 6.4 2 3 C-0.97 2.67 -3.94 2.34 -7 2 C-3 1 -3 1 0 2 C0 1.34 0 0.68 0 0 Z " fill="#594B3D" transform="translate(308,95)"/>
<path d="M0 0 C1.32 0 2.64 0 4 0 C3.67 1.98 3.34 3.96 3 6 C1.0625 5.625 1.0625 5.625 -1 5 C-1.33 4.34 -1.66 3.68 -2 3 C-1.34 3 -0.68 3 0 3 C0 2.01 0 1.02 0 0 Z " fill="#AC9B84" transform="translate(446,208)"/>
<path d="M0 0 C-1.36983503 3.16115776 -1.9890638 3.9927092 -5 6 C-5.99 5.67 -6.98 5.34 -8 5 C-3.375 0 -3.375 0 0 0 Z " fill="#80776E" transform="translate(313,128)"/>
<path d="M0 0 C0.99 0.33 1.98 0.66 3 1 C1.25 6.75 1.25 6.75 -1 9 C-1 8.01 -1 7.02 -1 6 C-1.66 6 -2.32 6 -3 6 C-2.67 4.68 -2.34 3.36 -2 2 C-1.67 2.33 -1.34 2.66 -1 3 C-0.67 2.01 -0.34 1.02 0 0 Z " fill="#7F7266" transform="translate(659,120)"/>
<path d="M0 0 C1.32 0.33 2.64 0.66 4 1 C3.67 2.65 3.34 4.3 3 6 C3.66 6 4.32 6 5 6 C4 9 4 9 2 10 C1.855625 8.906875 1.71125 7.81375 1.5625 6.6875 C1.11711896 3.06877013 1.11711896 3.06877013 0 0 Z " fill="#CBB393" transform="translate(608,109)"/>
<path d="M0 0 C0.99 0 1.98 0 3 0 C2.75 2.375 2.75 2.375 2 5 C-0.0625 6.3125 -0.0625 6.3125 -2 7 C-2.66 6.34 -3.32 5.68 -4 5 C-3.01 4.34 -2.02 3.68 -1 3 C-0.67 2.01 -0.34 1.02 0 0 Z " fill="#988D83" transform="translate(451,224)"/>
<path d="M0 0 C0.66 0.66 1.32 1.32 2 2 C3.31747324 2.69748583 4.64914193 3.36959957 6 4 C4.824375 4.12375 4.824375 4.12375 3.625 4.25 C0.85250896 4.72806339 0.85250896 4.72806339 -0.3125 7.0625 C-0.6528125 8.0215625 -0.6528125 8.0215625 -1 9 C-1.66 9 -2.32 9 -3 9 C-2.30058404 5.85262818 -1.23921302 2.97411124 0 0 Z " fill="#827D7F" transform="translate(652,175)"/>
<path d="M0 0 C0.99 0 1.98 0 3 0 C3 4.29 3 8.58 3 13 C2.67 13 2.34 13 2 13 C2 11.02 2 9.04 2 7 C1.34 6.67 0.68 6.34 0 6 C0 4.02 0 2.04 0 0 Z " fill="#8E898A" transform="translate(488,170)"/>
<path d="M0 0 C0.99 0 1.98 0 3 0 C1.55746343 3.36591866 -0.33264727 5.51047079 -3 8 C-3 4.38462395 -2.10770759 2.88834003 0 0 Z " fill="#9B9598" transform="translate(534,170)"/>
<path d="M0 0 C0.99 0 1.98 0 3 0 C1.50902342 3.7952131 -0.75700849 5.61042731 -4 8 C-3.40353695 4.65980694 -2.31705841 2.49529367 0 0 Z " fill="#9C9899" transform="translate(222,170)"/>
<path d="M0 0 C0.33 0.99 0.66 1.98 1 3 C1.66 3.33 2.32 3.66 3 4 C-0.63 4 -4.26 4 -8 4 C-8 3.34 -8 2.68 -8 2 C-4.86650268 0.95550089 -4.01031744 1.06576355 -1 2 C-0.67 1.34 -0.34 0.68 0 0 Z " fill="#AB9A83" transform="translate(240,132)"/>
<path d="M0 0 C0.33 0.99 0.66 1.98 1 3 C-3.29 2.67 -7.58 2.34 -12 2 C-12.33 2.66 -12.66 3.32 -13 4 C-13 3.01 -13 2.02 -13 1 C-8.60563789 0.14256349 -4.47427924 -0.08948558 0 0 Z " fill="#5D5141" transform="translate(246,95)"/>
<path d="M0 0 C1.98 0.495 1.98 0.495 4 1 C3.34 3.97 2.68 6.94 2 10 C1.67 10 1.34 10 1 10 C0.25989846 6.57703036 0 3.49869895 0 0 Z " fill="#4D473C" transform="translate(435,212)"/>
<path d="M0 0 C0.66 0 1.32 0 2 0 C1.67 3.96 1.34 7.92 1 12 C0.67 12 0.34 12 0 12 C-0.144375 10.88625 -0.28875 9.7725 -0.4375 8.625 C-0.78372035 5.17857953 -0.78372035 5.17857953 -2 3 C-1.34 2.01 -0.68 1.02 0 0 Z " fill="#62584B" transform="translate(437,124)"/>
<path d="M0 0 C2.64465038 3.1254959 3.84414715 6.08788267 5 10 C3.68 9.34 2.36 8.68 1 8 C1 6.35 1 4.7 1 3 C0.34 3 -0.32 3 -1 3 C-0.67 2.01 -0.34 1.02 0 0 Z " fill="#86755E" transform="translate(215,114)"/>
<path d="M0 0 C0.66 0.99 1.32 1.98 2 3 C0.25 5.0625 0.25 5.0625 -2 7 C-3.32 6.67 -4.64 6.34 -6 6 C-4.02 4.02 -2.04 2.04 0 0 Z " fill="#6E6256" transform="translate(480,107)"/>
<path d="M0 0 C1 2 1 2 1 6 C0 8.25 0 8.25 -1 10 C-2.49821059 6.62902617 -3 4.79557881 -3 1 C-2.01 0.67 -1.02 0.34 0 0 Z " fill="#B5A084" transform="translate(524,104)"/>
<path d="M0 0 C1.95582488 2.93373731 3.56224304 5.78216298 5 9 C4.67 9.66 4.34 10.32 4 11 C2.29159719 9.36587557 1.06546953 8.13093906 0 6 C-0.039992 4.00039988 -0.04346799 1.99952758 0 0 Z " fill="#917F69" transform="translate(208,99)"/>
<path d="M0 0 C4.62 0 9.24 0 14 0 C14 0.33 14 0.66 14 1 C8.40693931 3.05459372 5.59306069 3.05459372 0 1 C0 0.67 0 0.34 0 0 Z " fill="#3D393C" transform="translate(111,222)"/>
<path d="M0 0 C2.97 0.99 5.94 1.98 9 3 C9 3.66 9 4.32 9 5 C5.625 4.75 5.625 4.75 2 4 C1.34 2.68 0.68 1.36 0 0 Z " fill="#A7A1A5" transform="translate(563,179)"/>
<path d="M0 0 C2.475 0.99 2.475 0.99 5 2 C5 3.66666667 5 5.33333333 5 7 C4.01 7 3.02 7 2 7 C0 5 0 5 -0.125 2.375 C-0.08375 1.59125 -0.0425 0.8075 0 0 Z " fill="#7E797C" transform="translate(410,176)"/>
<path d="M0 0 C0.99 0.33 1.98 0.66 3 1 C2.34 1 1.68 1 1 1 C0.67 2.65 0.34 4.3 0 6 C-1.32 6 -2.64 6 -4 6 C-3.6875 4.125 -3.6875 4.125 -3 2 C-2.01 1.34 -1.02 0.68 0 0 Z " fill="#C5AE8F" transform="translate(283,100)"/>
<path d="M0 0 C0.33 0.66 0.66 1.32 1 2 C-0.125 3.5625 -0.125 3.5625 -2 5 C-5.1875 4.6875 -5.1875 4.6875 -8 4 C-5.33440687 2.22293791 -2.9719385 1.12451727 0 0 Z " fill="#5A5147" transform="translate(440,226)"/>
<path d="M0 0 C0 0.66 0 1.32 0 2 C-2.64 2.33 -5.28 2.66 -8 3 C-8 2.34 -8 1.68 -8 1 C-3.375 -1.125 -3.375 -1.125 0 0 Z " fill="#999498" transform="translate(560,181)"/>
<path d="M0 0 C1.875 0.25 1.875 0.25 4 1 C5.25 3.0625 5.25 3.0625 6 5 C3 5 3 5 1.3125 3.625 C0 2 0 2 0 0 Z " fill="#716E6F" transform="translate(212,170)"/>
<path d="M0 0 C-0.66 1.32 -1.32 2.64 -2 4 C-2 3.01 -2 2.02 -2 1 C-3.98 1 -5.96 1 -8 1 C-8.33 2.32 -8.66 3.64 -9 5 C-9 3.35 -9 1.7 -9 0 C-3.375 -1.125 -3.375 -1.125 0 0 Z " fill="#7C7879" transform="translate(522,172)"/>
<path d="M0 0 C0.66 0.99 1.32 1.98 2 3 C1.67 3.66 1.34 4.32 1 5 C-1.0625 5.625 -1.0625 5.625 -3 6 C-3.33 4.35 -3.66 2.7 -4 1 C-3.01 1.33 -2.02 1.66 -1 2 C-0.67 1.34 -0.34 0.68 0 0 Z " fill="#C8A986" transform="translate(219,124)"/>
<path d="M0 0 C1.98 1.65 3.96 3.3 6 5 C5.67 5.66 5.34 6.32 5 7 C4.4225 6.525625 3.845 6.05125 3.25 5.5625 C1.07417916 4.0515133 -0.42602448 3.45963849 -3 3 C-2.01 2.01 -1.02 1.02 0 0 Z " fill="#948068" transform="translate(482,118)"/>
<path d="M0 0 C1.2065625 0.0309375 1.2065625 0.0309375 2.4375 0.0625 C1.1175 1.7125 -0.2025 3.3625 -1.5625 5.0625 C-0.9025 5.3925 -0.2425 5.7225 0.4375 6.0625 C-0.5525 6.0625 -1.5425 6.0625 -2.5625 6.0625 C-2.94468767 4.40635343 -3.27645102 2.73792976 -3.5625 1.0625 C-2.5625 0.0625 -2.5625 0.0625 0 0 Z " fill="#B6A187" transform="translate(568.5625,118.9375)"/>
<path d="M0 0 C1.98 0 3.96 0 6 0 C6 0.66 6 1.32 6 2 C4.68 2 3.36 2 2 2 C1.67 3.32 1.34 4.64 1 6 C0.67 6 0.34 6 0 6 C0 4.02 0 2.04 0 0 Z " fill="#827363" transform="translate(327,97)"/>
<path d="M0 0 C2.64 0.33 5.28 0.66 8 1 C8 1.66 8 2.32 8 3 C2.25 3.125 2.25 3.125 0 2 C0 1.34 0 0.68 0 0 Z " fill="#BFAB94" transform="translate(289,134)"/>
<path d="M0 0 C0.66 0.66 1.32 1.32 2 2 C1.34 3.98 0.68 5.96 0 8 C-0.66 8 -1.32 8 -2 8 C-2.20086443 4.28400809 -2.1519437 3.22791555 0 0 Z " fill="#C6A780" transform="translate(213,113)"/>
<path d="M0 0 C0.33 0.66 0.66 1.32 1 2 C3.64 2 6.28 2 9 2 C9 2.33 9 2.66 9 3 C6.36 3 3.72 3 1 3 C0.67 3.99 0.34 4.98 0 6 C-1.125 2.25 -1.125 2.25 0 0 Z " fill="#706C6D" transform="translate(496,178)"/>
<path d="M0 0 C0.99 0 1.98 0 3 0 C3 2.31 3 4.62 3 7 C2.01 6.67 1.02 6.34 0 6 C0 4.02 0 2.04 0 0 Z " fill="#A1929C" transform="translate(589,170)"/>
<path d="M0 0 C0.66 0.99 1.32 1.98 2 3 C2.99 3.66 3.98 4.32 5 5 C2.03 5 -0.94 5 -4 5 C-3.01 4.67 -2.02 4.34 -1 4 C-0.26676204 1.98491642 -0.26676204 1.98491642 0 0 Z " fill="#C9B7A4" transform="translate(508,131)"/>
<path d="M0 0 C1.32 0.66 2.64 1.32 4 2 C3.67 3.32 3.34 4.64 3 6 C1.68 5.34 0.36 4.68 -1 4 C-0.67 2.68 -0.34 1.36 0 0 Z " fill="#DBC29B" transform="translate(486,126)"/>
<path d="" fill="#000000" transform="translate(0,0)"/>
<path d="" fill="#000000" transform="translate(0,0)"/>
<path d="" fill="#000000" transform="translate(0,0)"/>
<path d="" fill="#000000" transform="translate(0,0)"/>
</svg>
