<?xml version="1.0" encoding="UTF-8"?>
<svg version="1.1" xmlns="http://www.w3.org/2000/svg" width="261" height="180">
<path d="M0 0 C1.1315918 1.75561523 1.1315918 1.75561523 2.19921875 4.05859375 C2.60019775 4.91163086 3.00117676 5.76466797 3.41430664 6.64355469 C4.04453735 8.02655762 4.04453735 8.02655762 4.6875 9.4375 C5.34190063 10.84177246 5.34190063 10.84177246 6.00952148 12.27441406 C9.28444949 19.33543765 12.46841541 26.43921054 15.57495117 33.57592773 C16.89733073 37.03374239 16.89733073 37.03374239 19 40 C21.11985009 35.35610239 23.23772044 30.71130909 25.35375977 26.06567383 C26.0739187 24.4853476 26.79461837 22.90526767 27.51586914 21.32543945 C28.55236737 19.05484492 29.58691893 16.78337228 30.62109375 14.51171875 C30.94403915 13.80536789 31.26698456 13.09901703 31.59971619 12.3712616 C32.85805003 9.60318039 34.03762802 6.88711595 35 4 C33.02 3.34 31.04 2.68 29 2 C29 1.34 29 0.68 29 0 C34.7626003 -1.05556451 40.1059076 -0.94831638 45.9375 -0.5625 C46.81212891 -0.51029297 47.68675781 -0.45808594 48.58789062 -0.40429688 C50.72564632 -0.2757979 52.86288669 -0.13877359 55 0 C55 0.99 55 1.98 55 3 C53.02 3.66 51.04 4.32 49 5 C49 11.27 49 17.54 49 24 C52.54540188 24 53.06007364 23.40614728 55.625 21.125 C56.23601562 20.59132813 56.84703125 20.05765625 57.4765625 19.5078125 C59.10511496 18.05736476 59.10511496 18.05736476 60 16 C60.66 16 61.32 16 62 16 C62.37125 15.1646875 62.37125 15.1646875 62.75 14.3125 C64 12 64 12 66.125 9.5 C68.4 6.9875 68.4 6.9875 68 3 C66.02 2.67 64.04 2.34 62 2 C62 1.34 62 0.68 62 0 C76.78132118 -1.33257403 76.78132118 -1.33257403 83 0 C83 0.99 83 1.98 83 3 C81.86691406 3.32097656 80.73382813 3.64195313 79.56640625 3.97265625 C73.85643903 6.11940247 70.12883316 10.13786365 65.9375 14.4375 C65.15439453 15.20126953 64.37128906 15.96503906 63.56445312 16.75195312 C62.83033203 17.49251953 62.09621094 18.23308594 61.33984375 18.99609375 C60.67331787 19.66825928 60.00679199 20.3404248 59.32006836 21.03295898 C57.78832799 22.884155 57.78832799 22.884155 58.12719727 25.00610352 C59.08925848 27.20390881 60.20466035 28.97132205 61.625 30.90625 C62.1622168 31.64472168 62.69943359 32.38319336 63.25292969 33.14404297 C63.82946289 33.92150879 64.40599609 34.69897461 65 35.5 C65.58942383 36.29937988 66.17884766 37.09875977 66.78613281 37.92236328 C67.97347979 39.53191403 69.16258681 41.14016801 70.35351562 42.74707031 C71.78974144 44.71229745 73.17939725 46.69764439 74.546875 48.7109375 C78.92493165 54.99857204 82.46687388 58.93417818 90 61 C89.505 61.99 89.505 61.99 89 63 C73.42216359 64.348082 73.42216359 64.348082 68.41015625 61.55859375 C66.26989411 59.17398878 64.6718998 56.73742924 63 54 C61.59496154 51.93548564 60.16626046 49.8883735 58.73803711 47.83984375 C57.76378595 46.43065619 56.80180108 45.0128897 55.85375977 43.5859375 C55.41217529 42.92207031 54.97059082 42.25820312 54.515625 41.57421875 C54.12665039 40.98213623 53.73767578 40.39005371 53.33691406 39.7800293 C51.69615879 37.50849451 51.69615879 37.50849451 48 34 C48.495 46.375 48.495 46.375 49 59 C50.98 59.66 52.96 60.32 55 61 C55 61.66 55 62.32 55 63 C46.09 63 37.18 63 28 63 C29 61 29 61 35 59 C35 53.72 35 48.44 35 43 C32.76858068 44.89323398 30.53984004 46.78947696 28.3125 48.6875 C27.37374023 49.48317383 27.37374023 49.48317383 26.41601562 50.29492188 C17.99990541 56.88119164 17.99990541 56.88119164 13.62890625 66.18359375 C13.50582378 70.36115775 13.62376192 72.43564288 16 76 C19.67225096 78.44816731 22.65486838 79.29166976 27 79 C30.42191478 78.22384529 33.70300039 77.19583797 37 76 C35.42370514 79.5900304 33.72848557 81.37005355 30.19140625 83.23828125 C24.7519431 85.12900373 18.49476531 84.85254184 13.125 82.8125 C9.66101583 80.80338918 7.37787912 79.24256244 5 76 C4.00663883 69.94049687 5.25802902 66.739157 8.7109375 61.76171875 C9.13632813 61.18035156 9.56171875 60.59898438 10 60 C10.66 59.01 11.32 58.02 12 57 C11.47386696 54.72609202 11.47386696 54.72609202 10.2890625 52.30859375 C9.87205078 51.37176758 9.45503906 50.43494141 9.02539062 49.46972656 C8.56326172 48.4690918 8.10113281 47.46845703 7.625 46.4375 C7.16544922 45.41495117 6.70589844 44.39240234 6.23242188 43.33886719 C5.28824288 41.23960337 4.33866099 39.14276152 3.38378906 37.04833984 C2.10672987 34.23511452 0.85520471 31.41261274 -0.3828125 28.58203125 C-1.08850903 26.97133987 -1.7942363 25.36066195 -2.5 23.75 C-2.82532715 23.0067749 -3.1506543 22.2635498 -3.48583984 21.49780273 C-4.82329662 18.48125235 -6.16453986 15.7531902 -8 13 C-8.04945048 18.90819071 -8.08574364 24.81626084 -8.10986328 30.72460938 C-8.1199187 32.73439635 -8.13356485 34.7441687 -8.15087891 36.75390625 C-8.17514724 39.64326588 -8.18648771 42.53243202 -8.1953125 45.421875 C-8.20563507 46.31992859 -8.21595764 47.21798218 -8.22659302 48.14324951 C-8.22681961 49.4041037 -8.22681961 49.4041037 -8.22705078 50.69042969 C-8.231492 51.42767273 -8.23593323 52.16491577 -8.24050903 52.92449951 C-7.95622789 55.37773652 -7.34955319 56.93328637 -6 59 C-2.95800528 60.29231642 -2.95800528 60.29231642 0 61 C-0.33 61.99 -0.66 62.98 -1 64 C-7.27 63.67 -13.54 63.34 -20 63 C-20 62.34 -20 61.68 -20 61 C-17.69 60.01 -15.38 59.02 -13 58 C-12.10804859 31.00578759 -12.10804859 31.00578759 -12 4 C-12.99 4 -13.98 4 -15 4 C-15 3.01 -15 2.02 -15 1 C-12.62185747 -0.18907126 -10.70522169 -0.3533546 -8.0625 -0.625 C-6.74958984 -0.76808594 -6.74958984 -0.76808594 -5.41015625 -0.9140625 C-3 -1 -3 -1 0 0 Z M35 11 C34.69296143 11.69971924 34.38592285 12.39943848 34.06958008 13.12036133 C32.65129041 16.35139831 31.23190083 19.58195101 29.8125 22.8125 C29.32974609 23.91271484 28.84699219 25.01292969 28.34960938 26.14648438 C27.86943359 27.23896484 27.38925781 28.33144531 26.89453125 29.45703125 C26.41709473 30.54838379 25.9396582 31.63973633 25.44775391 32.76416016 C24.49092989 34.90273444 23.50394791 37.02809635 22.48583984 39.13818359 C22.02000488 40.1070752 21.55416992 41.0759668 21.07421875 42.07421875 C20.65100342 42.92975342 20.22778809 43.78528809 19.79174805 44.66674805 C18.90801377 47.27107999 19.05454129 48.45910262 20 51 C21.33849083 50.34374964 22.6701615 49.673611 24 49 C24.99515625 48.53851563 25.9903125 48.07703125 27.015625 47.6015625 C30.99683578 45.16860035 33.91501409 43.26141856 36 39 C37.57658153 29.80327444 36.73085966 20.25568165 36 11 C35.67 11 35.34 11 35 11 Z " fill="#C3A781" transform="translate(99,51)"/>
<path d="M0 0 C1.39025391 0.07831055 1.39025391 0.07831055 2.80859375 0.15820312 C5.08113901 0.28705878 7.35315099 0.42198311 9.625 0.5625 C9.625 1.5525 9.625 2.5425 9.625 3.5625 C7.645 4.2225 5.665 4.8825 3.625 5.5625 C3.625 11.8325 3.625 18.1025 3.625 24.5625 C7.17040188 24.5625 7.68507364 23.96864728 10.25 21.6875 C11.16652344 20.88699219 11.16652344 20.88699219 12.1015625 20.0703125 C13.73011496 18.61986476 13.73011496 18.61986476 14.625 16.5625 C15.285 16.5625 15.945 16.5625 16.625 16.5625 C16.8725 16.005625 17.12 15.44875 17.375 14.875 C18.625 12.5625 18.625 12.5625 20.75 10.0625 C23.025 7.55 23.025 7.55 22.625 3.5625 C20.645 3.2325 18.665 2.9025 16.625 2.5625 C16.625 1.9025 16.625 1.2425 16.625 0.5625 C31.40632118 -0.77007403 31.40632118 -0.77007403 37.625 0.5625 C37.625 1.5525 37.625 2.5425 37.625 3.5625 C36.49191406 3.88347656 35.35882813 4.20445313 34.19140625 4.53515625 C28.48143903 6.68190247 24.75383316 10.70036365 20.5625 15 C19.77939453 15.76376953 18.99628906 16.52753906 18.18945312 17.31445312 C17.45533203 18.05501953 16.72121094 18.79558594 15.96484375 19.55859375 C15.29831787 20.23075928 14.63179199 20.9029248 13.94506836 21.59545898 C12.41332799 23.446655 12.41332799 23.446655 12.75219727 25.56860352 C13.71425848 27.76640881 14.82966035 29.53382205 16.25 31.46875 C16.7872168 32.20722168 17.32443359 32.94569336 17.87792969 33.70654297 C18.45446289 34.48400879 19.03099609 35.26147461 19.625 36.0625 C20.21442383 36.86187988 20.80384766 37.66125977 21.41113281 38.48486328 C22.59847979 40.09441403 23.78758681 41.70266801 24.97851562 43.30957031 C26.41474144 45.27479745 27.80439725 47.26014439 29.171875 49.2734375 C33.54993165 55.56107204 37.09187388 59.49667818 44.625 61.5625 C44.13 62.5525 44.13 62.5525 43.625 63.5625 C28.04716359 64.910582 28.04716359 64.910582 23.03515625 62.12109375 C20.89489411 59.73648878 19.2968998 57.29992924 17.625 54.5625 C16.21996154 52.49798564 14.79126046 50.4508735 13.36303711 48.40234375 C12.38878595 46.99315619 11.42680108 45.5753897 10.47875977 44.1484375 C10.03717529 43.48457031 9.59559082 42.82070312 9.140625 42.13671875 C8.75165039 41.54463623 8.36267578 40.95255371 7.96191406 40.3425293 C6.32115879 38.07099451 6.32115879 38.07099451 2.625 34.5625 C2.955 42.8125 3.285 51.0625 3.625 59.5625 C5.605 60.2225 7.585 60.8825 9.625 61.5625 C9.625 62.2225 9.625 62.8825 9.625 63.5625 C0.715 63.5625 -8.195 63.5625 -17.375 63.5625 C-17.045 62.9025 -16.715 62.2425 -16.375 61.5625 C-15.385 61.253125 -14.395 60.94375 -13.375 60.625 C-12.385 60.274375 -11.395 59.92375 -10.375 59.5625 C-8.99654467 55.427134 -9.09427268 51.25162368 -9.03320312 46.92382812 C-8.94921875 44.93359375 -8.94921875 44.93359375 -8.375 41.5625 C-6.20966742 39.90873276 -5.0745604 39.5625 -2.375 39.5625 C-2.375 38.9025 -2.375 38.2425 -2.375 37.5625 C-3.035 37.2325 -3.695 36.9025 -4.375 36.5625 C-3.715 36.5625 -3.055 36.5625 -2.375 36.5625 C-0.61037317 33.47440305 -0.375 32.32937864 -0.375 28.5625 C-0.375 26.89583333 -0.375 25.22916667 -0.375 23.5625 C-1.365 23.5625 -2.355 23.5625 -3.375 23.5625 C-3.705 24.8825 -4.035 26.2025 -4.375 27.5625 C-5.365 27.2325 -6.355 26.9025 -7.375 26.5625 C-7.375 20.6225 -7.375 14.6825 -7.375 8.5625 C-8.365 8.8925 -9.355 9.2225 -10.375 9.5625 C-10.375 7.9125 -10.375 6.2625 -10.375 4.5625 C-12.355 3.9025 -14.335 3.2425 -16.375 2.5625 C-16.375 1.9025 -16.375 1.2425 -16.375 0.5625 C-10.83278869 -0.6803547 -5.61609437 -0.34850229 0 0 Z " fill="#BAA17D" transform="translate(144.375,50.4375)"/>
<path d="M0 0 C1.32 0.33 2.64 0.66 4 1 C4 6.94 4 12.88 4 19 C4.99 19 5.98 19 7 19 C6.67 17.35 6.34 15.7 6 14 C7.98 14.66 9.96 15.32 12 16 C11.979375 17.11375 11.95875 18.2275 11.9375 19.375 C11.73619282 22.83215921 11.73619282 22.83215921 13 25 C12.319375 25.5775 11.63875 26.155 10.9375 26.75 C9.9784375 27.86375 9.9784375 27.86375 9 29 C9.13641377 31.21858253 9.13641377 31.21858253 10 33 C9.195625 32.979375 8.39125 32.95875 7.5625 32.9375 C5.06645115 32.70366379 5.06645115 32.70366379 4 34 C3.76346477 36.52596259 3.57826308 39.03107207 3.4375 41.5625 C3.37272461 42.62887695 3.37272461 42.62887695 3.30664062 43.71679688 C3.20028223 45.47761912 3.09961154 47.2387832 3 49 C2.67 49 2.34 49 2 49 C1.505 42.565 1.505 42.565 1 36 C-1.23141932 37.89323398 -3.46015996 39.78947696 -5.6875 41.6875 C-6.62625977 42.48317383 -6.62625977 42.48317383 -7.58398438 43.29492188 C-16.00009459 49.88119164 -16.00009459 49.88119164 -20.37109375 59.18359375 C-20.49417622 63.36115775 -20.37623808 65.43564288 -18 69 C-14.32774904 71.44816731 -11.34513162 72.29166976 -7 72 C-3.57808522 71.22384529 -0.29699961 70.19583797 3 69 C1.42370514 72.5900304 -0.27151443 74.37005355 -3.80859375 76.23828125 C-9.2480569 78.12900373 -15.50523469 77.85254184 -20.875 75.8125 C-24.33898417 73.80338918 -26.62212088 72.24256244 -29 69 C-29.99336117 62.94049687 -28.74197098 59.739157 -25.2890625 54.76171875 C-24.86367187 54.18035156 -24.43828125 53.59898438 -24 53 C-22.06201737 50.22739701 -22.06201737 50.22739701 -21 48 C-20.34 48.33 -19.68 48.66 -19 49 C-17.74335022 46.09399739 -17 44.20395416 -17 41 C-17 40.34 -17 39.68 -17 39 C-16.34 39 -15.68 39 -15 39 C-15.515625 38.0925 -16.03125 37.185 -16.5625 36.25 C-18 33 -18 33 -17.6875 30.625 C-17.3471875 29.820625 -17.3471875 29.820625 -17 29 C-16.34 30.32 -15.68 31.64 -15 33 C-10.05 22.11 -5.1 11.22 0 0 Z M1 4 C0.69296143 4.69971924 0.38592285 5.39943848 0.06958008 6.12036133 C-1.34870959 9.35139831 -2.76809917 12.58195101 -4.1875 15.8125 C-4.67025391 16.91271484 -5.15300781 18.01292969 -5.65039062 19.14648438 C-6.13056641 20.23896484 -6.61074219 21.33144531 -7.10546875 22.45703125 C-7.58290527 23.54838379 -8.0603418 24.63973633 -8.55224609 25.76416016 C-9.50907011 27.90273444 -10.49605209 30.02809635 -11.51416016 32.13818359 C-11.97999512 33.1070752 -12.44583008 34.0759668 -12.92578125 35.07421875 C-13.34899658 35.92975342 -13.77221191 36.78528809 -14.20825195 37.66674805 C-15.09198623 40.27107999 -14.94545871 41.45910262 -14 44 C-12.66150917 43.34374964 -11.3298385 42.673611 -10 42 C-9.00484375 41.53851563 -8.0096875 41.07703125 -6.984375 40.6015625 C-3.00316422 38.16860035 -0.08498591 36.26141856 2 32 C3.57658153 22.80327444 2.73085966 13.25568165 2 4 C1.67 4 1.34 4 1 4 Z " fill="#B79D79" transform="translate(133,58)"/>
<path d="M0 0 C5.61 0 11.22 0 17 0 C17 0.33 17 0.66 17 1 C14.69 1 12.38 1 10 1 C10.33 9.91 10.66 18.82 11 28 C11.99 27.67 12.98 27.34 14 27 C13.67 28.32 13.34 29.64 13 31 C12.34 31 11.68 31 11 31 C11.33 39.91 11.66 48.82 12 58 C13.98 58.66 15.96 59.32 18 60 C18 60.66 18 61.32 18 62 C9.09 62 0.18 62 -9 62 C-8.67 61.34 -8.34 60.68 -8 60 C-7.01 59.690625 -6.02 59.38125 -5 59.0625 C-4.01 58.711875 -3.02 58.36125 -2 58 C-0.62154467 53.864634 -0.71927268 49.68912368 -0.65820312 45.36132812 C-0.57421875 43.37109375 -0.57421875 43.37109375 0 40 C2.16533258 38.34623276 3.3004396 38 6 38 C6 37.34 6 36.68 6 36 C5.34 35.67 4.68 35.34 4 35 C4.66 35 5.32 35 6 35 C7.76462683 31.91190305 8 30.76687864 8 27 C8 25.33333333 8 23.66666667 8 22 C7.01 22 6.02 22 5 22 C4.67 23.32 4.34 24.64 4 26 C3.01 25.67 2.02 25.34 1 25 C1 19.06 1 13.12 1 7 C0.01 7.33 -0.98 7.66 -2 8 C-1.34 5.36 -0.68 2.72 0 0 Z " fill="#BCA179" transform="translate(136,52)"/>
<path d="M0 0 C0 0.99 0 1.98 0 3 C-2.475 2.505 -2.475 2.505 -5 2 C-4.34 2.61875 -3.68 3.2375 -3 3.875 C-1 6 -1 6 -1 8 C-3.90600261 9.25664978 -5.79604584 10 -9 10 C-8.67 10.99 -8.34 11.98 -8 13 C-7.92381076 14.37568436 -7.90258155 15.7548645 -7.91821289 17.13256836 C-7.92800926 18.37416969 -7.92800926 18.37416969 -7.93800354 19.64085388 C-7.94943893 20.53152054 -7.96087433 21.42218719 -7.97265625 22.33984375 C-7.98530178 24.22590963 -7.99766279 26.11197743 -8.00976562 27.99804688 C-8.03459695 30.9716592 -8.06258607 33.94517184 -8.09594727 36.91870117 C-8.12614309 39.7882552 -8.14392198 42.65768156 -8.16015625 45.52734375 C-8.17361588 46.41598618 -8.1870755 47.3046286 -8.20094299 48.22019958 C-8.20432175 49.05108597 -8.2077005 49.88197235 -8.21118164 50.73803711 C-8.21863907 51.46623154 -8.2260965 52.19442596 -8.23377991 52.94468689 C-7.95555617 55.39073496 -7.34443012 56.93947528 -6 59 C-2.95800528 60.29231642 -2.95800528 60.29231642 0 61 C-0.33 61.99 -0.66 62.98 -1 64 C-7.27 63.67 -13.54 63.34 -20 63 C-20 62.34 -20 61.68 -20 61 C-17.69 60.01 -15.38 59.02 -13 58 C-12.10804859 31.00578759 -12.10804859 31.00578759 -12 4 C-12.99 4 -13.98 4 -15 4 C-15 3.01 -15 2.02 -15 1 C-12.62185747 -0.18907126 -10.70522169 -0.3533546 -8.0625 -0.625 C-6.74958984 -0.76808594 -6.74958984 -0.76808594 -5.41015625 -0.9140625 C-3 -1 -3 -1 0 0 Z " fill="#D1B287" transform="translate(99,51)"/>
<path d="M0 0 C0.66 0.33 1.32 0.66 2 1 C2 1.66 2 2.32 2 3 C2.66 3 3.32 3 4 3 C4 4.32 4 5.64 4 7 C5.32 7.33 6.64 7.66 8 8 C8 8.99 8 9.98 8 11 C8.75667969 11.07476562 9.51335937 11.14953125 10.29296875 11.2265625 C13.72588929 12.20739694 14.39003958 13.42690934 16.3125 16.375 C19.74137041 21.12557155 22.38967558 22.52359884 28 24 C27.67 24.66 27.34 25.32 27 26 C11.31011001 27.35777894 11.31011001 27.35777894 6.12890625 24.3125 C1.74881633 19.54325275 -0.48709934 14.22664898 -2 8 C-2.33 7.01 -2.66 6.02 -3 5 C-1.5625 2.3125 -1.5625 2.3125 0 0 Z " fill="#D4B68A" transform="translate(161,88)"/>
<path d="M0 0 C5.61 0 11.22 0 17 0 C17 0.33 17 0.66 17 1 C14.69 1 12.38 1 10 1 C10.33 9.91 10.66 18.82 11 28 C11.99 27.67 12.98 27.34 14 27 C13.67 28.32 13.34 29.64 13 31 C12.34 31 11.68 31 11 31 C10.67 33.31 10.34 35.62 10 38 C9.34 37.67 8.68 37.34 8 37 C8.185625 35.906875 8.37125 34.81375 8.5625 33.6875 C9.2578068 30.06375867 9.2578068 30.06375867 8 27 C7.96125079 25.33378384 7.9549714 23.66605828 8 22 C7.01 22 6.02 22 5 22 C4.67 23.32 4.34 24.64 4 26 C3.01 25.67 2.02 25.34 1 25 C1 19.06 1 13.12 1 7 C0.01 7.33 -0.98 7.66 -2 8 C-1.34 5.36 -0.68 2.72 0 0 Z " fill="#D2B58A" transform="translate(136,52)"/>
<path d="M0 0 C0 0.99 0 1.98 0 3 C-1.13695312 3.3196875 -2.27390625 3.639375 -3.4453125 3.96875 C-9.13789438 6.10629066 -12.7538666 10.1691949 -16.875 14.5 C-17.63296875 15.27214844 -18.3909375 16.04429688 -19.171875 16.83984375 C-22.05571627 19.80065587 -24.70241181 22.55361771 -27 26 C-28.32 25.34 -29.64 24.68 -31 24 C-30.50628906 23.59007813 -30.01257813 23.18015625 -29.50390625 22.7578125 C-28.86324219 22.21898438 -28.22257813 21.68015625 -27.5625 21.125 C-26.92441406 20.59132813 -26.28632813 20.05765625 -25.62890625 19.5078125 C-23.89194996 18.0777243 -23.89194996 18.0777243 -23 16 C-22.34 16 -21.68 16 -21 16 C-20.7525 15.443125 -20.505 14.88625 -20.25 14.3125 C-19 12 -19 12 -16.875 9.5 C-14.6 6.9875 -14.6 6.9875 -15 3 C-17.97 2.505 -17.97 2.505 -21 2 C-21 1.34 -21 0.68 -21 0 C-13.80827843 -1.07875823 -7.21805755 -0.7938642 0 0 Z " fill="#8B7C69" transform="translate(182,51)"/>
<path d="M0 0 C1.65 0 3.3 0 5 0 C5.185625 0.928125 5.37125 1.85625 5.5625 2.8125 C7.10727559 6.23787197 7.38621238 6.5205979 10.625 7.875 C11.73875 8.24625 12.8525 8.6175 14 9 C14 9.66 14 10.32 14 11 C5.09 11 -3.82 11 -13 11 C-12.67 10.34 -12.34 9.68 -12 9 C-11.05125 8.7525 -10.1025 8.505 -9.125 8.25 C-5.72466057 7.25543537 -5.72466057 7.25543537 -4.125 3.875 C-3.75375 2.92625 -3.3825 1.9775 -3 1 C-2.67 1.66 -2.34 2.32 -2 3 C-1.34 3 -0.68 3 0 3 C0 2.01 0 1.02 0 0 Z " fill="#B39E80" transform="translate(140,103)"/>
<path d="M0 0 C2.51228949 2.44250367 4.81723877 4.73531133 6.8125 7.625 C9.85568039 10.92902443 12.7433236 11.65205247 17 13 C16.67 13.66 16.34 14.32 16 15 C13.08178537 15.13510253 10.16982348 15.2341305 7.25 15.3125 C6.425 15.35439453 5.6 15.39628906 4.75 15.43945312 C2.398256 15.48686732 0.30597843 15.47157594 -2 15 C-4.578125 12.48046875 -4.578125 12.48046875 -6 10 C-5.01 9.67 -4.02 9.34 -3 9 C-1.14555788 7.14555788 -0.75109289 4.45357011 0 2 C0 1.34 0 0.68 0 0 Z " fill="#A69377" transform="translate(172,99)"/>
<path d="M0 0 C0.33 0 0.66 0 1 0 C1.33 2.31 1.66 4.62 2 7 C2.33 7 2.66 7 3 7 C3.01981934 7.73637695 3.03963867 8.47275391 3.06005859 9.23144531 C3.15537828 12.57132056 3.26502996 15.91057639 3.375 19.25 C3.4059375 20.40886719 3.436875 21.56773438 3.46875 22.76171875 C3.50742188 23.87675781 3.54609375 24.99179688 3.5859375 26.140625 C3.6173584 27.16704102 3.6487793 28.19345703 3.68115234 29.25097656 C4.00272057 32.02345603 4.43094174 33.70308215 6 36 C9.04199472 37.29231642 9.04199472 37.29231642 12 38 C11.67 38.99 11.34 39.98 11 41 C4.73 40.67 -1.54 40.34 -8 40 C-8 39.34 -8 38.68 -8 38 C-5.69 37.01 -3.38 36.02 -1 35 C-0.67 23.45 -0.34 11.9 0 0 Z " fill="#5F5043" transform="translate(87,74)"/>
<path d="M0 0 C0.66 0.66 1.32 1.32 2 2 C2.99 2 3.98 2 5 2 C5.99 5.3 6.98 8.6 8 12 C7.34 12 6.68 12 6 12 C6.226875 12.721875 6.45375 13.44375 6.6875 14.1875 C7.08398299 17.75584692 6.04377787 19.13871099 4 22 C3.01 21.67 2.02 21.34 1 21 C0.87625 20.13375 0.7525 19.2675 0.625 18.375 C0.01533133 15.08278918 -0.76939959 12.11269516 -2 9 C-2.66 8.67 -3.32 8.34 -4 8 C-2.68 5.36 -1.36 2.72 0 0 Z " fill="#D6B98D" transform="translate(110,85)"/>
<path d="M0 0 C1.32 0.66 2.64 1.32 4 2 C3.3512793 2.78250122 3.3512793 2.78250122 2.68945312 3.58081055 C0.65674756 6.49151567 -0.63413514 9.44231295 -2.03125 12.70703125 C-2.30843872 13.35065109 -2.58562744 13.99427094 -2.87121582 14.65739441 C-3.75253244 16.70697046 -4.62636969 18.75963761 -5.5 20.8125 C-6.08674684 22.18054998 -6.67398182 23.54839071 -7.26171875 24.91601562 C-8.84697896 28.60819557 -10.4237204 32.30397647 -12 36 C-12.99906736 38.33373442 -13.99943697 40.66690621 -15 43 C-15.66 41.68 -16.32 40.36 -17 39 C-16.34 39 -15.68 39 -15 39 C-15.515625 38.0925 -16.03125 37.185 -16.5625 36.25 C-18 33 -18 33 -17.6875 30.625 C-17.460625 30.08875 -17.23375 29.5525 -17 29 C-16.34 30.32 -15.68 31.64 -15 33 C-10.05 22.11 -5.1 11.22 0 0 Z " fill="#807666" transform="translate(133,58)"/>
<path d="M0 0 C1.32 0.33 2.64 0.66 4 1 C4 5.95 4 10.9 4 16 C3.67 16 3.34 16 3 16 C2.505 9.565 2.505 9.565 2 3 C-0.23141932 4.89323398 -2.46015996 6.78947696 -4.6875 8.6875 C-5.62625977 9.48317383 -5.62625977 9.48317383 -6.58398438 10.29492188 C-14.54466267 17.08858974 -18.93132162 21.31321624 -20 32 C-20.33 32 -20.66 32 -21 32 C-21 28.7 -21 25.4 -21 22 C-21.99 21.67 -22.98 21.34 -24 21 C-23.525625 20.38125 -23.05125 19.7625 -22.5625 19.125 C-20.97582559 17.09294454 -20.97582559 17.09294454 -20 15 C-19.34 15.33 -18.68 15.66 -18 16 C-17.79375 15.21625 -17.5875 14.4325 -17.375 13.625 C-16 11 -16 11 -13.234375 10.12890625 C-8.51594731 8.48201543 -5.84494976 5.28396059 -2.3671875 1.80078125 C-1.58601563 1.20652344 -0.80484375 0.61226563 0 0 Z " fill="#908878" transform="translate(132,91)"/>
<path d="M0 0 C2.85729443 1.87705474 4.41513726 4.12593393 6.390625 6.90625 C7.45023438 8.37578125 7.45023438 8.37578125 8.53125 9.875 C10.140625 12.40625 10.140625 12.40625 10.140625 14.40625 C9.150625 14.40625 8.160625 14.40625 7.140625 14.40625 C7.140625 13.41625 7.140625 12.42625 7.140625 11.40625 C5.820625 11.07625 4.500625 10.74625 3.140625 10.40625 C3.140625 9.08625 3.140625 7.76625 3.140625 6.40625 C2.480625 6.40625 1.820625 6.40625 1.140625 6.40625 C0.810625 5.74625 0.480625 5.08625 0.140625 4.40625 C-1.59585448 6.08113528 -1.59585448 6.08113528 -2.859375 8.40625 C-2.15597934 10.91590614 -2.15597934 10.91590614 -0.859375 13.40625 C-0.49066412 15.06544896 -0.14655826 16.7310143 0.140625 18.40625 C-3.03329168 15.40389638 -5.57190101 12.20871358 -8.109375 8.65625 C-8.81578125 7.67140625 -9.5221875 6.6865625 -10.25 5.671875 C-10.78109375 4.92421875 -11.3121875 4.1765625 -11.859375 3.40625 C-10.869375 3.07625 -9.879375 2.74625 -8.859375 2.40625 C-8.199375 2.73625 -7.539375 3.06625 -6.859375 3.40625 C-6.859375 4.39625 -6.859375 5.38625 -6.859375 6.40625 C-6.199375 6.07625 -5.539375 5.74625 -4.859375 5.40625 C-4.694375 4.58125 -4.529375 3.75625 -4.359375 2.90625 C-4.194375 2.08125 -4.029375 1.25625 -3.859375 0.40625 C-1.859375 -0.59375 -1.859375 -0.59375 0 0 Z " fill="#C2AA85" transform="translate(161.859375,84.59375)"/>
<path d="M0 0 C1.39025391 0.07831055 1.39025391 0.07831055 2.80859375 0.15820312 C5.08113901 0.28705878 7.35315099 0.42198311 9.625 0.5625 C9.625 1.5525 9.625 2.5425 9.625 3.5625 C7.645 4.2225 5.665 4.8825 3.625 5.5625 C3.59588679 8.6458134 3.57816318 11.72909125 3.5625 14.8125 C3.55412109 15.68519531 3.54574219 16.55789062 3.53710938 17.45703125 C3.53388672 18.30136719 3.53066406 19.14570312 3.52734375 20.015625 C3.52210693 20.79067383 3.51687012 21.56572266 3.51147461 22.36425781 C3.62463002 24.55533598 4.01947552 26.45887861 4.625 28.5625 C3.635 29.2225 2.645 29.8825 1.625 30.5625 C1.625 21.3225 1.625 12.0825 1.625 2.5625 C-1.675 2.2325 -4.975 1.9025 -8.375 1.5625 C-8.375 3.2125 -8.375 4.8625 -8.375 6.5625 C-9.365 7.0575 -9.365 7.0575 -10.375 7.5625 C-10.375 6.5725 -10.375 5.5825 -10.375 4.5625 C-12.355 3.9025 -14.335 3.2425 -16.375 2.5625 C-16.375 1.9025 -16.375 1.2425 -16.375 0.5625 C-10.83278869 -0.6803547 -5.61609437 -0.34850229 0 0 Z " fill="#5D5142" transform="translate(144.375,50.4375)"/>
<path d="M0 0 C0.33 0.66 0.66 1.32 1 2 C1.66 2 2.32 2 3 2 C3.02887814 5.47914941 3.04675687 8.95826831 3.0625 12.4375 C3.07087891 13.43072266 3.07925781 14.42394531 3.08789062 15.44726562 C3.09111328 16.39150391 3.09433594 17.33574219 3.09765625 18.30859375 C3.10289307 19.18314209 3.10812988 20.05769043 3.11352539 20.95874023 C3 23 3 23 2 24 C1.84174742 25.99782126 1.74880829 28.00088834 1.68359375 30.00390625 C1.64169922 31.21884766 1.59980469 32.43378906 1.55664062 33.68554688 C1.51732422 34.96494141 1.47800781 36.24433594 1.4375 37.5625 C1.39431641 38.84576172 1.35113281 40.12902344 1.30664062 41.45117188 C1.200152 44.63399853 1.09814038 47.81690674 1 51 C0.67 51 0.34 51 0 51 C0 34.17 0 17.34 0 0 Z " fill="#998776" transform="translate(88,57)"/>
<path d="M0 0 C0.66 0 1.32 0 2 0 C2 5.28 2 10.56 2 16 C1.34 14.68 0.68 13.36 0 12 C-0.99 12 -1.98 12 -3 12 C-3.33 12.66 -3.66 13.32 -4 14 C-4.66 14 -5.32 14 -6 14 C-6.66 15.32 -7.32 16.64 -8 18 C-8 13.71 -8 9.42 -8 5 C-7.67 5 -7.34 5 -7 5 C-7 6.98 -7 8.96 -7 11 C-6.34 11 -5.68 11 -5 11 C-5.33 10.01 -5.66 9.02 -6 8 C-4.06745228 5.9754262 -2.36841312 4.57894208 0 3 C0 2.01 0 1.02 0 0 Z " fill="#D5BB91" transform="translate(144,92)"/>
<path d="M0 0 C1.32 0 2.64 0 4 0 C2.35305751 4.27175708 -0.77052484 6.95870017 -4 10.0625 C-8.32816662 14.24121866 -8.32816662 14.24121866 -12 19 C-13.32 18.34 -14.64 17.68 -16 17 C-15.50628906 16.59007813 -15.01257813 16.18015625 -14.50390625 15.7578125 C-13.86324219 15.21898438 -13.22257813 14.68015625 -12.5625 14.125 C-11.92441406 13.59132813 -11.28632813 13.05765625 -10.62890625 12.5078125 C-8.89194996 11.0777243 -8.89194996 11.0777243 -8 9 C-7.34 9 -6.68 9 -6 9 C-5.7525 8.443125 -5.505 7.88625 -5.25 7.3125 C-3.74989321 4.53730243 -2.16884385 2.2964229 0 0 Z " fill="#918576" transform="translate(167,58)"/>
<path d="M0 0 C0.33 0 0.66 0 1 0 C1.33 8.25 1.66 16.5 2 25 C2.99 24.67 3.98 24.34 5 24 C4.67 25.32 4.34 26.64 4 28 C3.34 28 2.68 28 2 28 C1.67 30.31 1.34 32.62 1 35 C0.34 34.67 -0.32 34.34 -1 34 C-0.814375 32.906875 -0.62875 31.81375 -0.4375 30.6875 C0.2578068 27.06375867 0.2578068 27.06375867 -1 24 C-1.03954234 21.66700175 -1.04401732 19.33291811 -1 17 C-1.66 17 -2.32 17 -3 17 C-3 16.34 -3 15.68 -3 15 C-2.34 14.67 -1.68 14.34 -1 14 C-0.52998967 10.72444392 -0.52998967 10.72444392 -0.375 6.9375 C-0.30023438 5.64714844 -0.22546875 4.35679688 -0.1484375 3.02734375 C-0.09945312 2.02832031 -0.05046875 1.02929688 0 0 Z " fill="#D8BE98" transform="translate(145,55)"/>
<path d="M0 0 C-1.1834582 3.68186995 -3.43006168 5.43240633 -6.78125 7.25 C-11.07070763 8.69995751 -15.53495861 8.29067177 -20 8 C-20 7.67 -20 7.34 -20 7 C-18.02 6.67 -16.04 6.34 -14 6 C-15.32 5.01 -16.64 4.02 -18 3 C-16.2675 3.0928125 -16.2675 3.0928125 -14.5 3.1875 C-9.23218525 3.21562001 -4.98668322 0 0 0 Z " fill="#80705F" transform="translate(136,127)"/>
<path d="M0 0 C1.22419811 3.67259434 0.54143712 4.57458418 -1 8 C-1.33 8.99 -1.66 9.98 -2 11 C-3.32 10.67 -4.64 10.34 -6 10 C-6.29296875 3.9453125 -6.29296875 3.9453125 -6 2 C-3 0 -3 0 0 0 Z " fill="#D7B88F" transform="translate(172,99)"/>
<path d="M0 0 C1.32 0.66 2.64 1.32 4 2 C4 2.66 4 3.32 4 4 C6.31 4.66 8.62 5.32 11 6 C11 6.33 11 6.66 11 7 C8.89646505 7.0810206 6.79204048 7.13919907 4.6875 7.1875 C3.51574219 7.22230469 2.34398438 7.25710937 1.13671875 7.29296875 C-2 7 -2 7 -3.91796875 5.48828125 C-4.27503906 4.99714844 -4.63210937 4.50601563 -5 4 C-3.68 4.33 -2.36 4.66 -1 5 C-0.67 3.35 -0.34 1.7 0 0 Z " fill="#A08B72" transform="translate(114,127)"/>
<path d="M0 0 C0.99 0 1.98 0 3 0 C2.67 0.99 2.34 1.98 2 3 C1.90820259 4.43394477 1.86933461 5.87171527 1.8671875 7.30859375 C1.86589844 8.13810547 1.86460937 8.96761719 1.86328125 9.82226562 C1.86714844 10.68529297 1.87101563 11.54832031 1.875 12.4375 C1.87113281 13.29666016 1.86726562 14.15582031 1.86328125 15.04101562 C1.86457031 15.87181641 1.86585938 16.70261719 1.8671875 17.55859375 C1.86831543 18.31454834 1.86944336 19.07050293 1.87060547 19.84936523 C2.00085547 22.01421854 2.40585217 23.91871253 3 26 C2.01 26.66 1.02 27.32 0 28 C0 18.76 0 9.52 0 0 Z " fill="#6E5E4A" transform="translate(146,53)"/>
<path d="M0 0 C2.97 0.99 5.94 1.98 9 3 C8 7 8 7 5.9375 8.25 C5.298125 8.4975 4.65875 8.745 4 9 C4 8.01 4 7.02 4 6 C3.34 6 2.68 6 2 6 C2 4.68 2 3.36 2 2 C1.34 2 0.68 2 0 2 C0 1.34 0 0.68 0 0 Z " fill="#D6B58A" transform="translate(96,69)"/>
<path d="M0 0 C1.32 0 2.64 0 4 0 C5.8125 2.25 5.8125 2.25 7 5 C6.6875 7.3125 6.6875 7.3125 6 9 C5.34 9 4.68 9 4 9 C4 8.01 4 7.02 4 6 C2.35 5.67 0.7 5.34 -1 5 C-0.67 3.35 -0.34 1.7 0 0 Z " fill="#D4B281" transform="translate(151,82)"/>
<path d="M0 0 C3.92488093 3.70060202 7.02215543 7.4906925 10 12 C10 12.66 10 13.32 10 14 C9.01 14 8.02 14 7 14 C7 13.01 7 12.02 7 11 C5.68 10.67 4.36 10.34 3 10 C3 8.68 3 7.36 3 6 C2.34 6 1.68 6 1 6 C0.67 4.02 0.34 2.04 0 0 Z " fill="#A99175" transform="translate(162,85)"/>
<path d="M0 0 C2.85291547 2.85291547 2 5.08693433 2 9 C2.66 9.66 3.32 10.32 4 11 C4 11.99 4 12.98 4 14 C0.125 12.25 0.125 12.25 -1 10 C-1.1328125 8.125 -1.1328125 8.125 -1.125 6 C-1.12886719 4.948125 -1.12886719 4.948125 -1.1328125 3.875 C-1 2 -1 2 0 0 Z " fill="#A39075" transform="translate(105,117)"/>
<path d="M0 0 C0.66 0 1.32 0 2 0 C2 0.66 2 1.32 2 2 C1.071875 2.7115625 1.071875 2.7115625 0.125 3.4375 C-3.1655678 7.40553764 -3.34358176 11.99049236 -4 17 C-4.33 17 -4.66 17 -5 17 C-5 13.7 -5 10.4 -5 7 C-5.99 6.67 -6.98 6.34 -8 6 C-7.4225 5.7525 -6.845 5.505 -6.25 5.25 C-3.86550111 4.06009525 -3.86550111 4.06009525 -1.875 1.875 C-0.946875 0.946875 -0.946875 0.946875 0 0 Z " fill="#95846C" transform="translate(116,106)"/>
<path d="M0 0 C0.99 1.32 1.98 2.64 3 4 C3.99 3.34 4.98 2.68 6 2 C5.49202991 6.3177458 4.80317221 10.03302114 3 14 C2.34 12.68 1.68 11.36 1 10 C1.66 10 2.32 10 3 10 C2.2575 8.63875 2.2575 8.63875 1.5 7.25 C0 4 0 4 0 0 Z " fill="#94846C" transform="translate(115,87)"/>
<path d="M0 0 C0.66 0.33 1.32 0.66 2 1 C3.66444461 1.0955931 5.33281963 1.12984645 7 1.125 C8.3303125 1.12886719 8.3303125 1.12886719 9.6875 1.1328125 C12.02676966 1.15127902 12.02676966 1.15127902 14 0 C14.99 0.33 15.98 0.66 17 1 C16.67 1.99 16.34 2.98 16 4 C9.73 3.67 3.46 3.34 -3 3 C-3 2.34 -3 1.68 -3 1 C-2.01 0.67 -1.02 0.34 0 0 Z " fill="#5D5148" transform="translate(82,111)"/>
<path d="M0 0 C1.99097846 2.98646769 2.94124926 5.59687262 4 9 C1.125 8.8125 1.125 8.8125 -2 8 C-3.375 5.4375 -3.375 5.4375 -4 3 C-2.68 3 -1.36 3 0 3 C0 2.01 0 1.02 0 0 Z " fill="#DCBF90" transform="translate(114,88)"/>
<path d="M0 0 C4.875 2.75 4.875 2.75 6 5 C3.35261084 6.4606285 2.10551666 7 -1 7 C-1.33 5.35 -1.66 3.7 -2 2 C-1.34 2 -0.68 2 0 2 C0 1.34 0 0.68 0 0 Z " fill="#C4AC8A" transform="translate(175,105)"/>
<path d="M0 0 C-0.33 0.66 -0.66 1.32 -1 2 C-4.3 2 -7.6 2 -11 2 C-11 3.32 -11 4.64 -11 6 C-11.33 5.34 -11.66 4.68 -12 4 C-12.99 4 -13.98 4 -15 4 C-15 3.01 -15 2.02 -15 1 C-12.62185747 -0.18907126 -10.70522169 -0.3533546 -8.0625 -0.625 C-7.18722656 -0.72039063 -6.31195313 -0.81578125 -5.41015625 -0.9140625 C-3 -1 -3 -1 0 0 Z " fill="#8D7B65" transform="translate(99,51)"/>
<path d="M0 0 C1.65 1.65 3.3 3.3 5 5 C3.60804085 7.7839183 1.84424221 7.97898997 -1 9 C-1.33 8.34 -1.66 7.68 -2 7 C-1.36971413 5.31923769 -0.70211894 3.65204456 0 2 C0 1.34 0 0.68 0 0 Z " fill="#B69E7E" transform="translate(172,99)"/>
<path d="M0 0 C1.98 0.495 1.98 0.495 4 1 C3.34 3.64 2.68 6.28 2 9 C1.34 9 0.68 9 0 9 C-1.125 2.25 -1.125 2.25 0 0 Z " fill="#BFA982" transform="translate(107,113)"/>
<path d="M0 0 C0.66 0.66 1.32 1.32 2 2 C1.625 4.125 1.625 4.125 1 6 C-0.98 6.33 -2.96 6.66 -5 7 C-5.33 7.99 -5.66 8.98 -6 10 C-6.66 9.67 -7.32 9.34 -8 9 C-7.34 7.68 -6.68 6.36 -6 5 C-5.34 5.33 -4.68 5.66 -4 6 C-3.566875 4.7934375 -3.566875 4.7934375 -3.125 3.5625 C-2 1 -2 1 0 0 Z " fill="#645542" transform="translate(118,101)"/>
<path d="M0 0 C2.46278801 1.231394 3.42497687 2.78064923 5 5 C4.67 5.66 4.34 6.32 4 7 C3.34 6.67 2.68 6.34 2 6 C1.34 7.32 0.68 8.64 0 10 C-0.66 9.67 -1.32 9.34 -2 9 C-2 8.34 -2 7.68 -2 7 C-1.34 7 -0.68 7 0 7 C0 4.69 0 2.38 0 0 Z " fill="#B39776" transform="translate(149,76)"/>
<path d="M0 0 C0.66 0.33 1.32 0.66 2 1 C2.40729228 3.32156597 2.74438677 5.6568787 3 8 C3.66 8 4.32 8 5 8 C5 9.32 5 10.64 5 12 C5.66 12.33 6.32 12.66 7 13 C6.34 13.66 5.68 14.32 5 15 C3.96709159 13.06891037 2.94901328 11.129882 1.9375 9.1875 C1.08478516 7.56908203 1.08478516 7.56908203 0.21484375 5.91796875 C-1 3 -1 3 0 0 Z " fill="#98866E" transform="translate(93,63)"/>
<path d="M0 0 C1.32 0.33 2.64 0.66 4 1 C4 5.95 4 10.9 4 16 C3.67 16 3.34 16 3 16 C2.67 11.71 2.34 7.42 2 3 C1.01 3.495 1.01 3.495 0 4 C-0.66 3.34 -1.32 2.68 -2 2 C-1.34 1.34 -0.68 0.68 0 0 Z " fill="#5C4B41" transform="translate(132,91)"/>
<path d="M0 0 C3 1 3 1 4.16796875 3.06640625 C4.50441406 3.89011719 4.84085937 4.71382813 5.1875 5.5625 C5.53167969 6.38878906 5.87585938 7.21507813 6.23046875 8.06640625 C6.48441406 8.70449219 6.73835938 9.34257813 7 10 C6.34 10.66 5.68 11.32 5 12 C4.16180842 10.37750059 3.3295884 8.75191503 2.5 7.125 C2.0359375 6.22007813 1.571875 5.31515625 1.09375 4.3828125 C0 2 0 2 0 0 Z " fill="#A58E73" transform="translate(105,93)"/>
<path d="M0 0 C0.66 0 1.32 0 2 0 C1.25 7.75 1.25 7.75 -1 10 C-2.1875 8.375 -2.1875 8.375 -3 6 C-1.625 2.75 -1.625 2.75 0 0 Z " fill="#857969" transform="translate(122,82)"/>
<path d="M0 0 C0.33 0.66 0.66 1.32 1 2 C-2.96 2 -6.92 2 -11 2 C-8.76221009 -2.47557983 -4.12017842 -0.8392956 0 0 Z " fill="#C4B398" transform="translate(94,111)"/>
<path d="M0 0 C0.99 0.33 1.98 0.66 3 1 C3.99 0.67 4.98 0.34 6 0 C5.67 1.32 5.34 2.64 5 4 C4.34 4 3.68 4 3 4 C2.67 6.31 2.34 8.62 2 11 C1.34 10.67 0.68 10.34 0 10 C0.185625 8.906875 0.37125 7.81375 0.5625 6.6875 C1.2578068 3.06375867 1.2578068 3.06375867 0 0 Z " fill="#D4B791" transform="translate(144,79)"/>
<path d="M0 0 C2.22825644 2.22825644 2.69239369 3.65761628 3.625 6.625 C3.88539062 7.44226563 4.14578125 8.25953125 4.4140625 9.1015625 C4.60742188 9.72804688 4.80078125 10.35453125 5 11 C2 10 2 10 0.25 7.1875 C-0.98589446 4.03596914 -1.28222189 3.03070628 0 0 Z " fill="#A28E76" transform="translate(107,70)"/>
<path d="M0 0 C2.97 0.99 5.94 1.98 9 3 C9 3.33 9 3.66 9 4 C7.54207116 4.05399736 6.08357288 4.09279177 4.625 4.125 C3.81289062 4.14820313 3.00078125 4.17140625 2.1640625 4.1953125 C0 4 0 4 -2 2 C-1.34 2 -0.68 2 0 2 C0 1.34 0 0.68 0 0 Z " fill="#CBB59A" transform="translate(116,130)"/>
<path d="M0 0 C-1.0975223 2.99324263 -1.67682892 3.84610901 -4.625 5.25 C-5.40875 5.4975 -6.1925 5.745 -7 6 C-7 5.34 -7 4.68 -7 4 C-7.99 3.67 -8.98 3.34 -10 3 C-8.70990357 2.49596232 -7.41786211 1.99690074 -6.125 1.5 C-5.04605469 1.08234375 -5.04605469 1.08234375 -3.9453125 0.65625 C-2 0 -2 0 0 0 Z " fill="#6E625C" transform="translate(136,127)"/>
<path d="M0 0 C3.3 0 6.6 0 10 0 C10 0.66 10 1.32 10 2 C9.01 2 8.02 2 7 2 C6.34 2.66 5.68 3.32 5 4 C1.125 2.25 1.125 2.25 0 0 Z " fill="#DABF9E" transform="translate(167,52)"/>
<path d="M0 0 C1.98 0 3.96 0 6 0 C6.33 0.99 6.66 1.98 7 3 C6.2575 2.979375 5.515 2.95875 4.75 2.9375 C2.29537721 2.99328688 0.33890739 3.3069904 -2 4 C-2 3.34 -2 2.68 -2 2 C-1.34 2 -0.68 2 0 2 C0 1.34 0 0.68 0 0 Z " fill="#C2A782" transform="translate(136,88)"/>
<path d="M0 0 C0.99 0.33 1.98 0.66 3 1 C2.34 2.65 1.68 4.3 1 6 C-0.65 5.67 -2.3 5.34 -4 5 C-2.68 3.35 -1.36 1.7 0 0 Z " fill="#867A61" transform="translate(155,71)"/>
<path d="M0 0 C2.7839183 1.39195915 2.97898997 3.15575779 4 6 C1.36 6 -1.28 6 -4 6 C-3.34 5.01 -2.68 4.02 -2 3 C-1.34 3 -0.68 3 0 3 C0 2.01 0 1.02 0 0 Z " fill="#97866B" transform="translate(89,105)"/>
<path d="M0 0 C0.66 0 1.32 0 2 0 C2.625 2.3125 2.625 2.3125 3 5 C2.01 6.485 2.01 6.485 1 8 C0.01 6.35 -0.98 4.7 -2 3 C-1.34 2.01 -0.68 1.02 0 0 Z " fill="#B9A47D" transform="translate(164,101)"/>
<path d="M0 0 C2.375 0.1875 2.375 0.1875 5 1 C6.3125 3.5625 6.3125 3.5625 7 6 C6.34 6.66 5.68 7.32 5 8 C2.525 4.04 2.525 4.04 0 0 Z " fill="#A38E72" transform="translate(150,87)"/>
<path d="M0 0 C2.31 0 4.62 0 7 0 C7 1.65 7 3.3 7 5 C6.01 5.495 6.01 5.495 5 6 C5 5.01 5 4.02 5 3 C3.35 2.67 1.7 2.34 0 2 C0 1.34 0 0.68 0 0 Z " fill="#8A7C68" transform="translate(129,52)"/>
<path d="M0 0 C1.32 0 2.64 0 4 0 C4.33 0.99 4.66 1.98 5 3 C4.01 3 3.02 3 2 3 C2 3.66 2 4.32 2 5 C1.01 5 0.02 5 -1 5 C-0.67 3.35 -0.34 1.7 0 0 Z " fill="#C8AD82" transform="translate(151,82)"/>
<path d="M0 0 C0.99 0 1.98 0 3 0 C2.67 0.99 2.34 1.98 2 3 C1.77820215 4.89212737 1.59385985 6.78884472 1.4375 8.6875 C1.35371094 9.68136719 1.26992187 10.67523438 1.18359375 11.69921875 C1.12300781 12.45847656 1.06242188 13.21773437 1 14 C0.67 14 0.34 14 0 14 C0 9.38 0 4.76 0 0 Z " fill="#907A65" transform="translate(146,53)"/>
<path d="M0 0 C1.98 0 3.96 0 6 0 C6.33 1.32 6.66 2.64 7 4 C4.69 3.67 2.38 3.34 0 3 C0 2.01 0 1.02 0 0 Z " fill="#B59A73" transform="translate(94,53)"/>
<path d="M0 0 C1.2065625 0.0309375 1.2065625 0.0309375 2.4375 0.0625 C2.1075 1.7125 1.7775 3.3625 1.4375 5.0625 C-0.5 4.75 -0.5 4.75 -2.5625 4.0625 C-2.8925 3.0725 -3.2225 2.0825 -3.5625 1.0625 C-2.5625 0.0625 -2.5625 0.0625 0 0 Z " fill="#D2BB94" transform="translate(111.5625,126.9375)"/>
<path d="M0 0 C3.96 0.99 3.96 0.99 8 2 C8 2.33 8 2.66 8 3 C4.7 3 1.4 3 -2 3 C-1.34 2.67 -0.68 2.34 0 2 C0 1.34 0 0.68 0 0 Z " fill="#A39889" transform="translate(181,110)"/>
<path d="" fill="#333333" transform="translate(0,0)"/>
</svg>
